<?xml version="1.0" encoding="iso-8859-1"?>
<!-- Generator: Adobe Illustrator 18.1.1, SVG Export Plug-In . SVG Version: 6.00 Build 0)  -->
<svg version="1.1" id="Capa_1" xmlns="http://www.w3.org/2000/svg" xmlns:xlink="http://www.w3.org/1999/xlink" x="0px" y="0px"
	 viewBox="0 0 208.171 208.171" style="enable-background:new 0 0 208.171 208.171;" xml:space="preserve">
<g>
	<path style="fill:#010002;" d="M204.13,122.296c-0.637-1.686-0.83-2.083-1.632-2.842c-0.15-0.147-0.358-0.344-0.655-0.676
		c-0.777-3.242-1.292-6.667-1.797-9.974c-1.371-9.04-2.806-18.388-8.79-27.947c-12.998-20.747-48.447-55.454-62.2-60.891
		c-0.272-0.093-0.537-0.19-0.791-0.261c-0.905-3.747-3.436-6.635-7.544-8.579C110.17,6.166,97.032,0,87.498,0
		c-2.312,0-4.37,0.369-6.12,1.088c-0.705,0.293-1.575,0.44-2.652,0.44c-0.662,0-1.31-0.057-1.918-0.125
		c-0.691-0.082-1.349-0.147-1.947-0.147c-2.498,0-4.116,1.231-4.967,3.758c-0.215,0.637-0.78,1.585-1.478,2.756
		c-2.015,3.371-4.778,7.981-3.837,13.381c0.293,1.707,2.892,8.124,6.37,11.893c-0.336,0.251-0.605,0.569-0.816,0.941
		c-0.78,1.389-0.53,3.271,0.841,6.12c1.46,3.06,5.347,3.418,8.135,3.418c3.457,0,7.677-0.626,12.207-1.303
		c4.545-0.68,9.251-1.389,13.088-1.389c4.438,0,6.127,0.941,6.732,1.675c2.734,4.073,4.606,12.741,6.803,22.908
		s4.882,22.626,9.359,33.466c-7.469-6.052-15.088-8.997-23.202-8.997c-2.684,0-5.436,0.333-8.178,0.995
		c-17.841,4.302-25.499,16.742-28.23,22.751c-6.785-5.443-15.146-8.314-24.236-8.314c-17.476,0-34.403,10.862-37.732,24.24
		c-0.426,1.986-10.021,48.83,6.503,69.222c5.046,6.231,12.003,9.394,20.668,9.394c1.528,0,3.131-0.093,4.889-0.322l0.533-0.172
		c33.316-16.864,33.602-24.726,33.924-33.054c0.115-3.271,0.229-6.363,2.988-10.3c2.834,0.344,6.073,0.523,9.606,0.523
		c11.563,0,24.554-1.854,33.19-3.074c2.258-0.326,4.223-0.605,5.78-0.798c8.643-1.074,41.472-10.357,51.228-13.943
		c4.588-1.682,8.7-2.956,12.326-4.091c9.022-2.799,14.992-4.66,17.307-9.319C206.073,130.775,205.901,127.178,204.13,122.296z
		 M84.832,160.905c-3.865,0-7.297-0.218-10.21-0.648l-1.142-0.161l-0.701,0.905c-4.187,5.383-4.352,9.684-4.491,13.474
		c-0.272,7.108-0.519,13.822-31.437,29.522c-9.323,1.031-16.584-1.568-21.566-7.702c-15.321-18.907-5.816-65.414-5.723-65.851
		c2.91-11.689,18.12-21.187,33.892-21.187c9.101,0,17.3,3.153,23.699,9.115l2.294,2.126l0.934-2.974
		c0.24-0.723,6.098-17.894,26.473-22.815c2.434-0.587,4.874-0.888,7.251-0.888c12.44,0,21.036,8.167,25.177,12.104
		c1.825,1.743,2.663,2.545,3.743,2.688l3.973,0.523l-2.015-3.464c-6.882-11.893-10.379-28.08-13.188-41.089
		c-2.265-10.497-4.223-19.562-7.498-24.411c-1.811-2.24-4.953-3.282-9.892-3.282c-4.112,0-8.947,0.727-13.703,1.428
		c-4.334,0.651-8.425,1.256-11.592,1.256c-3.633,0-4.413-0.816-4.581-1.167c-0.526-1.109-0.748-1.804-0.841-2.226h0.032
		c0.669-0.075,1.779-0.19,2.423-1.213c0.29-0.447,0.537-1.192,0.183-2.176l-0.236-0.68l-0.623-0.365
		c-3.361-1.979-6.735-9.727-7.015-11.266c-0.68-3.947,1.639-7.831,3.346-10.683c0.855-1.424,1.489-2.509,1.829-3.518
		c0.361-1.084,0.616-1.084,1.235-1.084c0.462,0,0.948,0.064,1.489,0.125c2.663,0.311,4.874,0.111,6.539-0.587
		c1.267-0.523,2.813-0.784,4.613-0.784c8.664,0,21.359,5.962,31.558,10.751c3.332,1.575,5.146,3.815,5.544,6.846l0.19,1.381
		l1.371,0.293c0.462,0.093,0.945,0.229,1.51,0.433c13.188,5.214,47.538,39.017,60.243,59.291c5.551,8.872,6.922,17.805,8.242,26.484
		c0.569,3.74,1.109,7.272,1.972,10.765l0.075,0.283l0.336,0.515c0.612,0.716,0.977,1.074,1.253,1.317
		c0.211,0.211,0.211,0.211,0.641,1.36c1.381,3.783,1.61,6.388,0.705,8.199c-1.56,3.164-6.886,4.817-14.945,7.319
		c-3.675,1.142-7.841,2.434-12.512,4.144c-9.38,3.45-42.123,12.701-50.358,13.728c-1.582,0.2-3.572,0.48-5.859,0.805
		C108.961,159.076,96.131,160.905,84.832,160.905z"/>
</g>
<g>
</g>
<g>
</g>
<g>
</g>
<g>
</g>
<g>
</g>
<g>
</g>
<g>
</g>
<g>
</g>
<g>
</g>
<g>
</g>
<g>
</g>
<g>
</g>
<g>
</g>
<g>
</g>
<g>
</g>
</svg>
