<?xml version="1.0" encoding="iso-8859-1"?>
<!-- Generator: Adobe Illustrator 18.0.0, SVG Export Plug-In . SVG Version: 6.00 Build 0)  -->
<!DOCTYPE svg PUBLIC "-//W3C//DTD SVG 1.1//EN" "http://www.w3.org/Graphics/SVG/1.1/DTD/svg11.dtd">
<svg xmlns="http://www.w3.org/2000/svg" xmlns:xlink="http://www.w3.org/1999/xlink" version="1.1" id="Capa_1" x="0px" y="0px" viewBox="0 0 496.501 496.501" style="enable-background:new 0 0 496.501 496.501;" xml:space="preserve" width="512px" height="512px">
<g>
	<path d="M464.915,295.703c0.673-6.283,2.773-14.522,5.205-24.063c7.902-31.001,19.844-77.852-4.818-117.629   c-13.624-21.974-40.005-38.363-74.284-46.149c-30.828-7.002-65.246-6.534-94.427,1.283c-4.478,1.2-10.313,2.915-17.068,4.901   c-25.926,7.623-65.106,19.142-102.752,24.111c-44.148,5.825-73.732,0.859-87.936-14.766C51.299,82.102,89.086,6.943,89.472,6.188   c1.069-2.089,0.243-4.65-1.845-5.72c-2.09-1.07-4.649-0.245-5.719,1.842c-0.42,0.818-10.328,20.317-15.386,45.606   c-6.817,34.087-1.277,62.163,16.023,81.192c13.29,14.619,35.88,19.864,61.833,19.863c46.484-0.001,103.739-16.833,137.541-26.771   c6.703-1.971,12.49-3.672,16.87-4.845c55.407-14.844,132.635-1.854,159.288,41.134c9.741,15.711,13.294,32.569,13.558,49.176   h-41.946c-2.347,0-4.25,1.903-4.25,4.25c0,2.347,1.903,4.25,4.25,4.25h41.815c-0.237,5.004-0.737,9.96-1.413,14.834h-22.403   c-2.347,0-4.25,1.903-4.25,4.25c0,2.347,1.903,4.25,4.25,4.25h21.044c-1.927,10.705-4.512,20.87-6.85,30.041   c-2.512,9.857-4.682,18.369-5.419,25.257c-0.03,0.281-0.049,0.58-0.074,0.868h-34.035c-2.347,0-4.25,1.903-4.25,4.25   c0,2.347,1.903,4.25,4.25,4.25h33.847c0.321,10.222,2.228,23.466,4.636,40.177c5.207,36.134,12.337,85.62,8.61,144.641   c-0.148,2.342,1.631,4.361,3.974,4.509c0.091,0.006,0.182,0.009,0.271,0.009c2.226,0,4.096-1.73,4.238-3.982   c3.783-59.897-3.42-109.888-8.68-146.388C466.233,322.189,463.85,305.648,464.915,295.703z" fill="#f0bc62"/>
	<path d="M424.131,177.508c0.696,0,1.401-0.171,2.053-0.532c2.054-1.136,2.797-3.722,1.662-5.776   c-11.441-20.682-38.959-29.59-60.029-33.421c-26.105-4.746-51.676-3.583-65.438-0.323c-2.284,0.541-3.697,2.831-3.156,5.115   c0.541,2.284,2.831,3.695,5.115,3.156c25.584-6.059,97.936-3.194,116.07,29.587C421.184,176.717,422.634,177.508,424.131,177.508z" fill="#f0bc62"/>
	<path d="M101.856,186.083c-1.879,0.376-46.459,9.554-83.843,39.866c-1.823,1.479-2.102,4.155-0.625,5.978   c0.84,1.036,2.066,1.573,3.304,1.573c0.941,0,1.887-0.311,2.674-0.949c35.704-28.949,79.718-38.046,80.159-38.134   c2.3-0.462,3.792-2.702,3.33-5.002C106.394,187.115,104.158,185.625,101.856,186.083z" fill="#f0bc62"/>
	<path d="M265.676,381.067c-2.335-0.189-4.403,1.516-4.613,3.853c-4.424,49.238-10.52,84.046-17.626,100.658   c-0.923,2.158,0.078,4.656,2.236,5.579c0.545,0.233,1.112,0.344,1.669,0.344c1.65,0,3.22-0.967,3.91-2.579   c7.56-17.673,13.708-52.408,18.276-103.242C269.739,383.343,268.014,381.278,265.676,381.067z" fill="#f0bc62"/>
	<path d="M226.689,454.999h-55.001c-2.347,0-4.25,1.902-4.25,4.25c0,2.348,1.903,4.25,4.25,4.25h55.001   c2.347,0,4.25-1.902,4.25-4.25C230.939,456.902,229.037,454.999,226.689,454.999z" fill="#f0bc62"/>
	<path d="M314.537,194.081c2.3-0.469,3.785-2.713,3.316-5.013c-0.469-2.3-2.711-3.785-5.013-3.316   c-34.99,7.127-171.41-4.616-172.783-4.736c-2.341-0.209-4.399,1.527-4.602,3.866c-0.204,2.338,1.527,4.399,3.866,4.602   c4.291,0.373,81.992,7.06,135.093,7.06C291.35,196.544,305.786,195.864,314.537,194.081z" fill="#f0bc62"/>
	<path d="M362.355,417.667H303.71c-5.022-59.154-0.354-123.157-0.283-124.097c0.177-2.34-1.577-4.38-3.918-4.558   c-2.334-0.171-4.38,1.577-4.558,3.917c-0.182,2.407-1.957,27.755-3.299,60.739c-1.889,46.393-9,106.497-19.871,131.909   c-0.923,2.158,0.078,4.656,2.236,5.579c0.545,0.233,1.112,0.344,1.669,0.344c1.65,0,3.22-0.967,3.91-2.579   c7.007-16.381,11.813-45.473,15.102-76.206c2.298,30.392,7.027,60.309,16.091,81.224c0.694,1.604,2.259,2.562,3.902,2.562   c0.564,0,1.137-0.113,1.688-0.352c2.154-0.933,3.143-3.435,2.21-5.589c-7.23-16.685-11.57-39.825-14.083-64.394h57.85   c2.347,0,4.25-1.902,4.25-4.25C366.605,419.57,364.703,417.667,362.355,417.667z" fill="#f0bc62"/>
</g>
<g>
</g>
<g>
</g>
<g>
</g>
<g>
</g>
<g>
</g>
<g>
</g>
<g>
</g>
<g>
</g>
<g>
</g>
<g>
</g>
<g>
</g>
<g>
</g>
<g>
</g>
<g>
</g>
<g>
</g>
</svg>
