<?xml version="1.0" encoding="iso-8859-1"?>
<!-- Generator: Adobe Illustrator 18.0.0, SVG Export Plug-In . SVG Version: 6.00 Build 0)  -->
<!DOCTYPE svg PUBLIC "-//W3C//DTD SVG 1.1//EN" "http://www.w3.org/Graphics/SVG/1.1/DTD/svg11.dtd">
<svg xmlns="http://www.w3.org/2000/svg" xmlns:xlink="http://www.w3.org/1999/xlink" version="1.1" id="Capa_1" x="0px" y="0px" viewBox="0 0 488.575 488.575" style="enable-background:new 0 0 488.575 488.575;" xml:space="preserve" width="512px" height="512px">
<path d="M199.704,186.557c0.669,2.26,8.294,26.635-1.217,41.234c-4.409,6.769-12.183,10.65-22.973,11.65  c-0.945-1.595-2.897-5.48-6.252-14.587c-8.112-22.021-39.401-57.995-78.281-45.579c-0.12,0.039-0.239,0.083-0.356,0.131  c-0.475,0.2-11.656,5.054-14.113,18.797c-0.337,1.882,0.629,3.759,2.353,4.584c0.46,0.22,46.055,22.548,52.189,70.044  c0.182,1.594,2.919,21.696,27.183,46.466c24.968,25.488,32.985,58.036,33.786,73.249c0.975,18.513-4.439,90.73-4.494,91.457  c-0.177,2.341,1.578,4.381,3.918,4.557c2.338,0.182,4.381-1.577,4.557-3.918c0.226-2.992,5.509-73.49,4.506-92.543  c-1.157-21.985-12.8-54.862-36.201-78.751c-22.473-22.94-24.79-41.3-24.808-41.46c-0.004-0.037-0.008-0.073-0.013-0.109  c-5.813-45.158-42.671-68.833-53.835-75.029c2.255-6.375,7.264-9.029,8.144-9.453c33.292-10.452,60.372,21.179,67.488,40.494  c6.513,17.68,8.945,19.557,11.447,20.174c0.61,0.15,1.228,0.172,1.823,0.076c14.373-0.947,24.724-6.238,31.018-15.559  c11.424-16.917,3.549-43.792,2.267-48.383c-5.764-20.646-21.124-83.102-21.124-83.102h6.177c2.347,0,4.25-1.903,4.25-4.25  c0-2.347-1.903-4.25-4.25-4.25h-8.338l-10.492-41.274c-1.626-6.534,2.367-13.172,8.901-14.799  c6.534-1.622,13.171,2.367,14.787,8.862l29.728,124.376c0.01,0.042,0.021,0.085,0.033,0.127c1.37,5.04,5.972,8.559,11.191,8.559  c5.755,0,10.677-4.2,11.449-9.769c5.103-36.775,15.749-148.086,15.851-149.161c0.712-6.695,6.732-11.566,13.434-10.851  c6.694,0.712,11.562,6.738,10.85,13.432l-3.355,31.531h-7.902c-2.348,0-4.25,1.903-4.25,4.25c0,2.347,1.902,4.25,4.25,4.25h6.999  l-11.68,109.79c-0.02,0.194-0.028,0.389-0.022,0.584c0.168,5.328,3.915,9.894,9.111,11.104c6.529,1.52,12.397-1.501,14.28-7.344  c0.031-0.096,0.059-0.193,0.082-0.291L327.532,54.59c1.539-6.292,7.912-10.159,14.202-8.621c3.047,0.745,5.622,2.633,7.251,5.315  c1.628,2.682,2.114,5.837,1.379,8.838c-0.139,0.542-8.154,31.781-16.232,64.166h-9.982c-2.347,0-4.25,1.903-4.25,4.25  c0,2.347,1.903,4.25,4.25,4.25h7.866c-5.212,21.01-10.164,41.414-12.714,53.126c-1.263,5.799,1.662,11.871,6.954,14.436  c6.136,2.979,13.571,0.925,16.573-4.577c0.03-0.054,0.058-0.108,0.085-0.163c0.323-0.658,32.416-66.041,42.735-87.261  c2.387-4.907,7.647-7.186,12.228-5.301c4.735,1.947,7.003,7.384,5.057,12.12l-47.115,114.604c-0.14,0.339-0.234,0.695-0.283,1.059  c-0.095,0.716-8.27,61.75-20.857,97.941h-32.912c-2.347,0-4.25,1.903-4.25,4.25c0,2.347,1.903,4.25,4.25,4.25h29.666  c-1.133,2.678-2.296,5.132-3.485,7.294c-17.314,31.452-16.96,36.98-15.472,60.251l0.05,0.777c0.149,2.346,0.377,4.999,0.664,7.868  h-68.215c-2.347,0-4.25,1.903-4.25,4.25s1.903,4.25,4.25,4.25h69.156c0.955,7.97,2.186,16.832,3.444,25.339h-30.34  c-2.347,0-4.25,1.903-4.25,4.25c0,2.347,1.903,4.25,4.25,4.25h31.621c2.378,15.506,4.538,28.16,4.723,29.239  c0.354,2.071,2.151,3.533,4.184,3.533c0.237,0,0.48-0.02,0.722-0.061c2.314-0.396,3.868-2.592,3.472-4.906  c-0.095-0.553-9.479-55.547-10.948-78.553l-0.049-0.778c-1.426-22.309-1.684-26.328,14.436-55.61  c16.56-30.083,27.414-108.161,28.495-116.169l46.907-114.097c3.727-9.07-0.617-19.483-9.686-23.212  c-8.796-3.617-18.727,0.444-23.105,9.444c-10.118,20.807-41.196,84.126-42.669,87.128c-0.84,1.427-3.42,1.889-5.369,0.943  c-1.775-0.861-2.79-3.003-2.359-4.98c6.79-31.174,30.75-124.546,31.002-125.533c1.285-5.253,0.447-10.692-2.359-15.315  c-2.806-4.623-7.245-7.877-12.497-9.161c-10.845-2.65-21.825,4.014-24.477,14.856l-29.688,121.107  c-0.738,2.034-2.953,1.852-4.222,1.557c-1.374-0.32-2.385-1.479-2.528-2.862L298.739,22.9c1.207-11.355-7.05-21.576-18.405-22.783  c-11.36-1.206-21.577,7.05-22.789,18.451c-0.107,1.118-10.735,112.249-15.813,148.846c-0.189,1.366-1.52,2.437-3.03,2.437  c-1.376,0-2.593-0.918-2.975-2.239L206.009,43.274c-2.757-11.082-14.017-17.853-25.098-15.096  c-11.082,2.758-17.854,14.017-15.092,25.12C165.82,53.298,189.953,153.594,199.704,186.557z" fill="#f0bc62"/>
<g>
</g>
<g>
</g>
<g>
</g>
<g>
</g>
<g>
</g>
<g>
</g>
<g>
</g>
<g>
</g>
<g>
</g>
<g>
</g>
<g>
</g>
<g>
</g>
<g>
</g>
<g>
</g>
<g>
</g>
</svg>
