<?xml version="1.0" encoding="iso-8859-1"?>
<!-- Generator: Adobe Illustrator 18.0.0, SVG Export Plug-In . SVG Version: 6.00 Build 0)  -->
<!DOCTYPE svg PUBLIC "-//W3C//DTD SVG 1.1//EN" "http://www.w3.org/Graphics/SVG/1.1/DTD/svg11.dtd">
<svg version="1.1" id="Capa_1" xmlns="http://www.w3.org/2000/svg" xmlns:xlink="http://www.w3.org/1999/xlink" x="0px" y="0px"
	 viewBox="0 0 500.605 500.605" style="enable-background:new 0 0 500.605 500.605;" xml:space="preserve">
<g>
	<path d="M101.951,17.753c51.355,8.069,66.495,67.968,63.18,98.302c-3.094,28.313-0.534,30.484,1.161,31.922
		c0.515,0.438,1.104,0.751,1.723,0.931c20.954,8.815,38.242,9.717,51.388,2.678c20.848-11.161,26.189-39.48,29.38-56.4
		c0.42-2.228,0.817-4.332,1.2-6.143c4.536-21.43,18.001-83.265,18.137-83.887c0.499-2.293-0.955-4.558-3.249-5.057
		c-2.294-0.498-4.558,0.956-5.057,3.248c-0.135,0.622-13.606,62.481-18.146,83.935c-0.403,1.903-0.808,4.052-1.237,6.327
		c-3.098,16.423-7.778,41.242-25.039,50.482c-10.566,5.657-25.03,4.789-43.003-2.572c-0.293-2.139-0.585-8.273,1.193-24.541
		c3.629-33.198-13.345-98.859-70.565-107.662c-0.125-0.019-0.251-0.033-0.377-0.041c-0.702-0.039-17.355-0.912-28.812,14.515
		c-1.14,1.536-1.112,3.646,0.065,5.153c0.116,0.149,11.72,15.136,20.254,38.223c7.797,21.095,14.565,53.524,2.534,88.252
		c-0.678,1.847-10.108,29.162,5.28,76.669c14.106,43.55,8.387,90.787-3.538,118.281c-10.719,24.713-86.062,142.405-86.822,143.591
		c-1.266,1.977-0.69,4.606,1.286,5.871c0.709,0.455,1.503,0.673,2.289,0.673c1.4,0,2.771-0.691,3.582-1.958
		c1.401-2.188,16.997-26.55,34.74-55.008l39.424,23.936c0.689,0.419,1.45,0.618,2.202,0.618c1.436,0,2.837-0.728,3.637-2.045
		c1.218-2.007,0.579-4.621-1.427-5.839L57.987,436.32c20.556-33.105,42.596-69.575,48.232-82.569
		c12.562-28.961,18.617-78.622,3.827-124.283c-14.598-45.068-5.475-70.88-5.387-71.121c0.013-0.034,0.025-0.068,0.037-0.103
		c12.912-37.229,5.669-71.828-2.68-94.297c-6.911-18.597-15.53-31.959-19.401-37.469C90.604,17.777,100.555,17.713,101.951,17.753z
		 M169.639,140.598c-0.219-0.018-0.438-0.011-0.655,0.004c0.099-0.007,0.201-0.021,0.297-0.021
		C169.403,140.582,169.522,140.587,169.639,140.598z M168.838,140.612c-0.232,0.025-0.463,0.065-0.69,0.128
		C168.384,140.675,168.614,140.637,168.838,140.612z"/>
	<path d="M296.543,99.974c2.149,1.069,4.448,1.58,6.715,1.58c4.716,0,9.284-2.216,12.029-6.232l3.82-5.581
		c12.666-18.498,30.013-43.831,49.91-75.213c1.257-1.982,0.668-4.608-1.314-5.865c-1.983-1.258-4.609-0.668-5.865,1.313
		c-19.816,31.256-37.114,56.518-49.744,74.962l-3.824,5.587c-1.656,2.422-5.145,3.23-7.94,1.839
		c-2.564-1.276-3.972-4.121-3.438-6.933l18.55-80.222c0.529-2.287-0.896-4.569-3.183-5.098c-2.286-0.532-4.57,0.896-5.098,3.183
		l-18.566,80.294c-0.01,0.042-0.019,0.085-0.027,0.127C287.256,90.298,290.536,96.984,296.543,99.974z"/>
	<path d="M347.518,117.789c-2.862,6.239-1.163,13.653,4.134,18.03c3.025,2.5,6.889,4.166,10.816,4.166
		c3.417,0,6.881-1.262,9.881-4.333c0.053-0.055,0.105-0.111,0.156-0.169l87.12-99.431c1.547-1.766,1.37-4.451-0.396-5.998
		c-1.765-1.546-4.449-1.37-5.998,0.396l-87.036,99.335c-3.574,3.561-7.886,0.509-9.128-0.518c-2.264-1.872-3.037-5.001-1.928-7.693
		l64.865-101.026c1.268-1.975,0.695-4.604-1.28-5.873c-1.976-1.269-4.605-0.695-5.873,1.28l-65.047,101.31
		C347.697,117.433,347.601,117.608,347.518,117.789z"/>
	<path d="M396.655,185.658c3.395,4.4,8.682,6.811,13.757,6.811c2.902,0,5.736-0.788,8.106-2.443c0.05-0.035,0.1-0.071,0.148-0.108
		c0,0,36.535-27.926,69.345-53.051c1.863-1.427,2.217-4.095,0.79-5.958c-1.428-1.864-4.095-2.217-5.958-0.79
		c-31.889,24.42-67.299,51.487-69.254,52.982c-2.823,1.901-7.663,0.662-10.205-2.634c-2.273-2.945-2.197-7.398,0.178-10.357
		c17.385-21.663,46.364-55.62,75.09-89.088c1.529-1.781,1.324-4.464-0.457-5.993c-1.781-1.528-4.464-1.324-5.993,0.457
		c-28.773,33.523-57.807,67.545-75.27,89.304C392.093,170.82,391.977,179.598,396.655,185.658z"/>
	<path d="M254.716,447.415c11.797-30.704,15.045-35.785,55.354-63.702c40.966-28.374,105.994-123.67,111.709-132.11l66.448-58.15
		c1.767-1.546,1.945-4.231,0.399-5.997c-1.545-1.766-4.23-1.945-5.997-0.399l-42.293,37.012l-18.221-18.22
		c-1.66-1.659-4.351-1.659-6.011,0c-1.66,1.66-1.66,4.351,0,6.011l17.82,17.82l-18.157,15.89c-0.276,0.242-0.52,0.518-0.725,0.822
		c-0.687,1.018-69.158,102.177-109.813,130.334c-37.114,25.706-44.059,34.496-53.916,56.988l-50.771-29.146
		c-2.035-1.168-4.633-0.466-5.802,1.569c-1.169,2.036-0.465,4.634,1.57,5.802l51.638,29.644c-0.35,0.83-0.705,1.675-1.069,2.54
		l-0.438,1.039c-1.452,3.454-3.096,7.635-4.901,12.457l-93.697-51.343c-2.06-1.126-4.642-0.373-5.77,1.685
		c-1.128,2.058-0.373,4.642,1.685,5.77l94.819,51.958c-11,30.278-10.56,30.926-9.054,33.081c0.795,1.137,2.133,1.836,3.52,1.837
		c0.001,0,0.001,0,0.002,0c1.422,0,2.773-0.717,3.612-1.917c0.236-0.339,0.423-0.709,0.552-1.102
		C237.212,497.587,249.952,459.815,254.716,447.415z"/>
	<path d="M378.431,256.503c1.893,0,3.62-1.274,4.113-3.192c0.585-2.273-0.785-4.59-3.058-5.175
		c-68.095-17.51-149.298-95.162-150.11-95.945c-1.689-1.628-4.381-1.577-6.009,0.113c-1.629,1.69-1.579,4.38,0.112,6.009
		c3.381,3.257,83.614,79.984,153.89,98.056C377.725,256.459,378.081,256.503,378.431,256.503z"/>
	<path d="M165.001,351.741c0.74,0.515,1.586,0.762,2.423,0.762c1.344,0,2.667-0.636,3.493-1.823
		c33.942-48.792,32.687-96.459,25.659-127.856c-7.598-33.937-23.02-56.092-23.673-57.019c-1.352-1.918-4.002-2.378-5.922-1.026
		c-1.919,1.352-2.378,4.003-1.026,5.922c0.15,0.213,15.096,21.681,22.327,53.981c9.683,43.249,1.493,84.007-24.341,121.144
		C162.599,347.752,163.074,350.4,165.001,351.741z"/>
	<path d="M338.697,262.065c-3.579,0.625-88.087,15.871-126.653,66.615c-1.42,1.869-1.057,4.535,0.812,5.956
		c0.769,0.584,1.672,0.866,2.569,0.866c1.283,0,2.55-0.578,3.387-1.678c36.53-48.067,120.503-63.237,121.348-63.385
		c2.312-0.404,3.858-2.606,3.455-4.918C343.21,263.209,341.014,261.662,338.697,262.065z"/>
	<path d="M335.314,196.939c0.667,0.382,1.393,0.564,2.11,0.564c1.473,0,2.906-0.767,3.691-2.137
		c1.167-2.036,0.463-4.633-1.573-5.801c-71.408-40.94-83.086-60.817-83.342-61.272c-1.068-2.057-3.591-2.882-5.672-1.842
		c-2.099,1.05-2.95,3.603-1.9,5.702C249.058,133.016,260.065,153.796,335.314,196.939z"/>
	<path d="M250.737,90.783c-1.423,1.867-1.063,4.534,0.805,5.956l31.499,24c0.769,0.586,1.674,0.87,2.573,0.87
		c1.281,0,2.547-0.577,3.383-1.674c1.423-1.867,1.063-4.534-0.805-5.956l-31.499-23.999
		C254.827,88.556,252.16,88.915,250.737,90.783z"/>
</g>
<g>
</g>
<g>
</g>
<g>
</g>
<g>
</g>
<g>
</g>
<g>
</g>
<g>
</g>
<g>
</g>
<g>
</g>
<g>
</g>
<g>
</g>
<g>
</g>
<g>
</g>
<g>
</g>
<g>
</g>
</svg>
