<?xml version="1.0" encoding="iso-8859-1"?>
<!-- Generator: Adobe Illustrator 18.0.0, SVG Export Plug-In . SVG Version: 6.00 Build 0)  -->
<!DOCTYPE svg PUBLIC "-//W3C//DTD SVG 1.1//EN" "http://www.w3.org/Graphics/SVG/1.1/DTD/svg11.dtd">
<svg version="1.1" id="Capa_1" xmlns="http://www.w3.org/2000/svg" xmlns:xlink="http://www.w3.org/1999/xlink" x="0px" y="0px"
	 viewBox="0 0 448.624 448.624" style="enable-background:new 0 0 448.624 448.624;" xml:space="preserve">
<g>
	<path d="M443.534,399.616c-96.582,19.454-186.884,5.855-245.63-8.976c-63.77-16.101-105.184-37.097-105.594-37.307
		c-0.674-0.345-1.431-0.504-2.186-0.459c-24.46,1.442-65.276-3.585-77.468-23.324c-12.333-19.968,6.987-47.696,7.181-47.97
		c0.433-0.608,0.697-1.319,0.768-2.061c1.389-14.635,3.637-29.958,6.471-45.485h43.964c2.347,0,4.25-1.903,4.25-4.25
		c0-2.347-1.903-4.25-4.25-4.25H28.684c1.396-7.158,2.903-14.339,4.501-21.5h21.188c2.347,0,4.25-1.903,4.25-4.25
		c0-2.347-1.903-4.25-4.25-4.25H35.125C54.141,113.943,83.278,37.667,83.673,36.641c0.842-2.19-0.251-4.649-2.441-5.492
		c-2.19-0.843-4.65,0.251-5.492,2.441c-0.534,1.388-53.288,139.461-63.492,244.035c-3.739,5.643-20.821,33.728-6.823,56.391
		c15.004,24.291,60.861,28.546,84.06,27.404c6.884,3.381,47.099,22.48,106.097,37.399c38.483,9.732,90.31,18.941,148.626,18.94
		c32.085,0,66.138-2.789,101.005-9.811c2.301-0.464,3.79-2.705,3.327-5.006C448.076,400.642,445.837,399.154,443.534,399.616z"/>
	<path d="M443.534,382.609c-49.67,10.005-102.297,12.3-156.415,6.821c-2.331-0.236-4.42,1.465-4.657,3.8
		c-0.236,2.335,1.465,4.42,3.8,4.657c19.384,1.962,38.581,2.942,57.53,2.942c34.783,0,68.726-3.302,101.42-9.887
		c2.301-0.464,3.79-2.705,3.327-5.006C448.076,383.636,445.837,382.145,443.534,382.609z"/>
	<path d="M198.731,373.84c-2.277-0.572-4.586,0.811-5.157,3.087c-0.572,2.277,0.811,4.585,3.087,5.157
		c19.762,4.962,39.82,9.001,59.617,12.006c0.216,0.033,0.431,0.049,0.643,0.049c2.065,0,3.877-1.508,4.196-3.613
		c0.353-2.32-1.243-4.487-3.564-4.839C238.022,382.722,218.231,378.736,198.731,373.84z"/>
	<path d="M139.044,246.031c0.819,0,1.647-0.237,2.375-0.729c0.298-0.201,30.357-20.218,82.295-31.6
		c47.903-10.497,124.783-15.586,218.998,19.787c2.197,0.825,4.647-0.287,5.473-2.485c0.825-2.197-0.288-4.648-2.485-5.473
		c-42.524-15.966-85.201-25.251-126.843-27.597c-33.358-1.879-66.127,0.665-97.399,7.562c-29.285,6.458-51.578,15.434-65.947,22.362
		c29.681-55.644,13.218-187.024,12.411-193.287c-0.3-2.328-2.426-3.967-4.759-3.672c-2.328,0.3-3.972,2.431-3.672,4.759
		c0.055,0.424,5.46,42.917,5.132,89.26c-0.427,60.359-10.171,99.606-28.179,113.498c-1.817,1.402-2.192,3.992-0.849,5.852
		C136.424,245.417,137.724,246.031,139.044,246.031z"/>
	<path d="M427.301,319.93c2.29-0.512,3.732-2.785,3.22-5.075c-0.512-2.29-2.782-3.729-5.075-3.22
		c-77.649,17.369-140.356,12.91-179.287,6.112c-42.081-7.349-66.211-18.935-66.583-19.115c-2.107-1.031-4.654-0.16-5.686,1.948
		c-1.032,2.108-0.16,4.654,1.948,5.686c1.009,0.494,25.205,12.186,68.467,19.786c19.269,3.385,44.224,6.211,73.852,6.211
		C349.673,332.263,386.476,329.061,427.301,319.93z"/>
	<path d="M330.286,233.326c37.066-5.106,107.069,24.079,107.772,24.374c0.538,0.226,1.096,0.333,1.646,0.333
		c1.659,0,3.236-0.978,3.919-2.604c0.91-2.164-0.106-4.655-2.27-5.564c-2.956-1.244-72.855-30.391-112.228-24.959
		c-2.325,0.32-3.95,2.465-3.629,4.79S327.963,233.651,330.286,233.326z"/>
</g>
<g>
</g>
<g>
</g>
<g>
</g>
<g>
</g>
<g>
</g>
<g>
</g>
<g>
</g>
<g>
</g>
<g>
</g>
<g>
</g>
<g>
</g>
<g>
</g>
<g>
</g>
<g>
</g>
<g>
</g>
</svg>
