<?xml version="1.0" encoding="iso-8859-1"?>
<!-- Generator: Adobe Illustrator 18.0.0, SVG Export Plug-In . SVG Version: 6.00 Build 0)  -->
<!DOCTYPE svg PUBLIC "-//W3C//DTD SVG 1.1//EN" "http://www.w3.org/Graphics/SVG/1.1/DTD/svg11.dtd">
<svg xmlns="http://www.w3.org/2000/svg" xmlns:xlink="http://www.w3.org/1999/xlink" version="1.1" id="Capa_1" x="0px" y="0px" viewBox="0 0 484.539 484.539" style="enable-background:new 0 0 484.539 484.539;" xml:space="preserve" width="512px" height="512px">
<g>
	<path d="M247.938,401.295c-85.55,0-143.029-50.014-143.029-124.453c0-2.347-1.903-4.25-4.25-4.25c-2.347,0-4.25,1.903-4.25,4.25   c0,40.061,15.451,73.994,44.681,98.132c27.194,22.455,65.14,34.822,106.848,34.822c2.347,0,4.25-1.902,4.25-4.25   C252.188,403.198,250.285,401.295,247.938,401.295z" fill="#f0bc62"/>
	<path d="M279.337,342.793c0.702,0.459,1.512,0.693,2.327,0.693c0.578,0,1.158-0.118,1.703-0.357   c34.513-15.097,55.118-44.939,55.118-79.827V86.385c0-31.331-25.49-56.821-56.821-56.822c-1.127,0-2.208,0.448-3.005,1.245   c-0.797,0.797-1.245,1.878-1.245,3.005v305.422C277.413,340.67,278.137,342.008,279.337,342.793z M285.913,38.249   c24.663,2.158,44.071,22.923,44.071,48.136v176.917c0,29.829-15.968,54.738-44.071,69.211V38.249z" fill="#f0bc62"/>
	<path d="M362.491,137.013V66.695C362.491,29.92,332.572,0,295.796,0H189.637c-37.269,0-67.589,29.92-67.589,66.696v70.317   c-27.971,29.182-43.363,67.426-43.363,107.903v235.373c0,1.127,0.448,2.208,1.245,3.005c0.797,0.797,1.878,1.245,3.005,1.245   l318.669,0c2.347,0,4.25-1.903,4.25-4.25V244.915C405.854,204.439,390.463,166.195,362.491,137.013z M130.547,66.696   c0-10.85,3.039-21.01,8.31-29.714v70.996c0,2.347,1.903,4.25,4.25,4.25c2.347,0,4.25-1.903,4.25-4.25v-81   c0-0.273-0.031-0.538-0.08-0.796c5.767-5.847,12.765-10.503,20.58-13.567v176.363c0,2.347,1.903,4.25,4.25,4.25   c2.347,0,4.25-1.903,4.25-4.25V10c4.272-0.97,8.713-1.5,13.28-1.5h106.159c32.089,0,58.195,26.106,58.195,58.195v210.146   c0,67.072-56.112,97.094-111.722,97.094c-55.61,0-111.722-30.022-111.722-97.094V66.696z M397.354,476.038h-16.997v-87.226   c0-2.347-1.903-4.25-4.25-4.25c-2.347,0-4.25,1.903-4.25,4.25v87.226h-18.5v-46.927c0-2.347-1.903-4.25-4.25-4.25   c-2.347,0-4.25,1.903-4.25,4.25v46.927l-257.672,0v-22.311h73.954c2.347,0,4.25-1.903,4.25-4.25c0-2.347-1.903-4.25-4.25-4.25   H87.185V244.915c0-35.203,12.307-68.625,34.863-95.232v127.158c0,31.823,12.28,58.784,35.511,77.968   c21.575,17.815,51.659,27.626,84.71,27.626c33.052,0,63.136-9.811,84.711-27.626c23.231-19.184,35.511-46.145,35.511-77.968   V149.684c22.556,26.607,34.863,60.029,34.863,95.232V476.038z" fill="#f0bc62"/>
	<path d="M235.107,445.228h-47c-2.347,0-4.25,1.903-4.25,4.25c0,2.347,1.903,4.25,4.25,4.25h47c2.347,0,4.25-1.903,4.25-4.25   C239.357,447.131,237.454,445.228,235.107,445.228z" fill="#f0bc62"/>
</g>
<g>
</g>
<g>
</g>
<g>
</g>
<g>
</g>
<g>
</g>
<g>
</g>
<g>
</g>
<g>
</g>
<g>
</g>
<g>
</g>
<g>
</g>
<g>
</g>
<g>
</g>
<g>
</g>
<g>
</g>
</svg>
