<?xml version="1.0" encoding="iso-8859-1"?>
<!-- Generator: Adobe Illustrator 18.0.0, SVG Export Plug-In . SVG Version: 6.00 Build 0)  -->
<!DOCTYPE svg PUBLIC "-//W3C//DTD SVG 1.1//EN" "http://www.w3.org/Graphics/SVG/1.1/DTD/svg11.dtd">
<svg version="1.1" id="Capa_1" xmlns="http://www.w3.org/2000/svg" xmlns:xlink="http://www.w3.org/1999/xlink" x="0px" y="0px"
	 viewBox="0 0 493.249 493.249" style="enable-background:new 0 0 493.249 493.249;" xml:space="preserve">
<g>
	<path d="M306.669,150.05c0.678-0.774,1.052-1.769,1.052-2.799V68.522c0-17.667-14.372-32.04-32.039-32.04h-58.705
		c-17.667,0-32.039,14.373-32.039,32.04v78.729c0,1.03,0.374,2.024,1.052,2.799c15.364,17.554,37.357,27.622,60.34,27.622
		C269.312,177.672,291.305,167.604,306.669,150.05z M299.221,145.628c-13.69,14.983-32.877,23.544-52.892,23.544
		c-20.015,0-39.201-8.561-52.892-23.544V68.522c0-11.712,8.598-21.449,19.812-23.241v65.968c0,2.059,1.669,3.728,3.727,3.728
		c2.059,0,3.728-1.669,3.728-3.728V44.982h11.026v26.934c0,2.059,1.669,3.728,3.728,3.728s3.727-1.669,3.727-3.728V44.982h36.497
		c12.98,0,23.539,10.56,23.539,23.54V145.628z"/>
	<path d="M186.663,402h119.332c2.347,0,4.25-1.903,4.25-4.25s-1.903-4.25-4.25-4.25H186.663c-2.347,0-4.25,1.903-4.25,4.25
		S184.316,402,186.663,402z"/>
	<path d="M186.663,240.34h119.332c2.347,0,4.25-1.903,4.25-4.25c0-2.347-1.903-4.25-4.25-4.25H186.663
		c-2.347,0-4.25,1.903-4.25,4.25C182.413,238.437,184.316,240.34,186.663,240.34z"/>
	<path d="M310.246,433.084c0-2.347-1.903-4.25-4.25-4.25H186.663c-2.347,0-4.25,1.903-4.25,4.25s1.903,4.25,4.25,4.25h119.332
		C308.343,437.334,310.246,435.431,310.246,433.084z"/>
	<path d="M183.21,207.092c0,2.347,1.903,4.25,4.25,4.25h46.667c2.347,0,4.25-1.903,4.25-4.25c0-2.347-1.903-4.25-4.25-4.25H187.46
		C185.112,202.842,183.21,204.745,183.21,207.092z"/>
	<path d="M266.793,202.842c-2.347,0-4.25,1.903-4.25,4.25c0,2.347,1.903,4.25,4.25,4.25h22.667c2.347,0,4.25-1.903,4.25-4.25
		c0-2.347-1.903-4.25-4.25-4.25H266.793z"/>
	<path d="M246.625,0c-49.984,0-90.65,31.589-90.65,70.417v418.582c0,2.347,1.903,4.25,4.25,4.25c2.347,0,4.25-1.903,4.25-4.25
		V70.417c0-34.141,36.852-61.917,82.15-61.917c45.298,0,82.15,27.776,82.15,61.917v397.749h-65.383c-2.347,0-4.25,1.903-4.25,4.25
		s1.903,4.25,4.25,4.25h65.383v12.333c0,2.347,1.903,4.25,4.25,4.25c2.347,0,4.25-1.903,4.25-4.25V70.417
		C337.275,31.589,296.609,0,246.625,0z"/>
</g>
<g>
</g>
<g>
</g>
<g>
</g>
<g>
</g>
<g>
</g>
<g>
</g>
<g>
</g>
<g>
</g>
<g>
</g>
<g>
</g>
<g>
</g>
<g>
</g>
<g>
</g>
<g>
</g>
<g>
</g>
</svg>
