<?xml version="1.0" encoding="iso-8859-1"?>
<!-- Generator: Adobe Illustrator 19.0.0, SVG Export Plug-In . SVG Version: 6.00 Build 0)  -->
<svg xmlns="http://www.w3.org/2000/svg" xmlns:xlink="http://www.w3.org/1999/xlink" version="1.1" id="Layer_1" x="0px" y="0px" viewBox="0 0 374.561 374.561" style="enable-background:new 0 0 374.561 374.561;" xml:space="preserve" width="512px" height="512px">
<g>
	<g>
		<path d="M176.616,272.492l-64,64c-9.612,9.612-22.4,14.612-36.072,13.956c-13.688-0.616-26.88-6.608-37.144-16.872    C29.468,323.648,24,310.444,24,296.4s5.468-27.248,15.4-37.18l61.756-61.756l-16.968-16.968l-61.756,61.752    C7.964,256.716,0,275.944,0,296.4s7.964,39.684,22.428,54.148c14.516,14.512,33.348,22.992,53.04,23.876    c1.128,0.052,2.256,0.076,3.376,0.076c19.192,0,37.1-7.396,50.74-21.04l64-64L176.616,272.492z" fill="#c45e71"/>
	</g>
</g>
<g>
	<g>
		<path d="M350.488,22.492c-29.856-29.86-78.44-29.86-108.296,0l-62.004,62.004l16.968,16.968l62.008-62.004    c20.5-20.5,53.856-20.5,74.356,0c21.344,21.344,22.704,53.428,3.096,73.036l-68,68l16.968,16.968l67.996-67.996    C382.708,100.344,381.348,53.352,350.488,22.492z" fill="#c45e71"/>
	</g>
</g>
<g>
	<g>
		<path d="M350.492,242.252l-219.76-219.76C116.264,8.024,97.036,0.06,76.58,0.06S36.896,8.024,22.432,22.488    c-29.86,29.86-29.86,78.44,0,108.3l219.76,219.764c14.464,14.464,33.692,22.428,54.148,22.428    c20.452,0,39.688-7.964,54.152-22.432C380.352,320.692,380.352,272.108,350.492,242.252z M333.524,333.58    c-9.932,9.932-23.136,15.4-37.18,15.4s-27.248-5.472-37.18-15.4L39.404,113.82c-20.5-20.504-20.5-53.86,0-74.36    c9.928-9.932,23.132-15.4,37.176-15.4s27.248,5.468,37.184,15.404l219.76,219.76C354.024,279.724,354.024,313.08,333.524,333.58z" fill="#c45e71"/>
	</g>
</g>
<g>
	<g>
		<path d="M232.908,189.332l-49.48-49.48c-5.408-5.404-13.584-5.996-18.256-1.32l-26.344,26.34    c-4.676,4.68-4.088,12.852,1.32,18.256l49.488,49.48c5.404,5.404,13.576,5.996,18.252,1.32l26.344-26.34    C238.908,202.912,238.316,194.74,232.908,189.332z" fill="#c45e71"/>
	</g>
</g>
<g>
	<g>
		<circle cx="93.86" cy="243.42" r="12" fill="#c45e71"/>
	</g>
</g>
<g>
	<g>
		<circle cx="130.62" cy="280.22" r="12" fill="#c45e71"/>
	</g>
</g>
<g>
	<g>
		<circle cx="57.1" cy="280.22" r="12" fill="#c45e71"/>
	</g>
</g>
<g>
	<g>
		<circle cx="93.86" cy="316.98" r="12" fill="#c45e71"/>
	</g>
</g>
<g>
	<g>
		<circle cx="279.1" cy="58.22" r="12" fill="#c45e71"/>
	</g>
</g>
<g>
	<g>
		<circle cx="315.86" cy="94.98" r="12" fill="#c45e71"/>
	</g>
</g>
<g>
	<g>
		<circle cx="242.34" cy="94.98" r="12" fill="#c45e71"/>
	</g>
</g>
<g>
	<g>
		<circle cx="279.1" cy="131.748" r="12" fill="#c45e71"/>
	</g>
</g>
<g>
</g>
<g>
</g>
<g>
</g>
<g>
</g>
<g>
</g>
<g>
</g>
<g>
</g>
<g>
</g>
<g>
</g>
<g>
</g>
<g>
</g>
<g>
</g>
<g>
</g>
<g>
</g>
<g>
</g>
</svg>
