<?xml version="1.0" encoding="iso-8859-1"?>
<!-- Generator: Adobe Illustrator 18.0.0, SVG Export Plug-In . SVG Version: 6.00 Build 0)  -->
<!DOCTYPE svg PUBLIC "-//W3C//DTD SVG 1.1//EN" "http://www.w3.org/Graphics/SVG/1.1/DTD/svg11.dtd">
<svg version="1.1" id="Capa_1" xmlns="http://www.w3.org/2000/svg" xmlns:xlink="http://www.w3.org/1999/xlink" x="0px" y="0px"
	 viewBox="0 0 382.036 382.036" style="enable-background:new 0 0 382.036 382.036;" xml:space="preserve">
<g>
	<rect x="164.018" y="267.667" style="fill:#84AEB2;" width="55" height="39.5"/>
	<g>
		<g>
			<path style="fill:#FFB37F;" d="M177.986,147.737c-2.927-4.684-9.098-6.105-13.779-3.18c-0.602,0.375-14.87,9.398-28.294,26.873
				c-12.032,15.664-20.413,34.963-23.423,54.5c-2.032,13.189-5.649,44.045,8.684,52.643c14.666,8.797,15.817-9.242,13.582-18.631
				c9.128,8.115,12.125,2.295,7.751-6.23c-6.346-12.369-11.754-16.338-8.799-31.258c2.756-13.912,9.096-26.998,17.632-38.27
				c11.186-14.768,23.27-22.541,23.489-22.682C179.495,158.571,180.909,152.413,177.986,147.737z"/>
			<path style="fill:#FFC695;" d="M271.605,249.741c-0.32-6.156-1.142-12.035-1.626-16.475
				c-2.467-22.602-10.225-44.051-24.129-62.15c-13.424-17.477-27.692-26.498-28.293-26.875c-4.683-2.926-10.852-1.504-13.78,3.182
				c-2.922,4.676-1.508,10.832,3.158,13.766c0.22,0.139,12.304,7.912,23.488,22.68c8.156,10.768,14.093,22.986,17.091,36.168
				c2.643,11.625,1.104,20.162-4.422,30.547c-3.649,6.859-7.356,22.039,5.011,11.043c-2.235,9.389-1.085,27.426,13.582,18.631
				C270.963,274.69,272.227,261.692,271.605,249.741z"/>
		</g>
		<g>
			<path style="fill:#B8D6DD;" d="M165.518,143.879c-0.446,0.195-0.886,0.412-1.311,0.678c-0.602,0.375-14.87,9.398-28.294,26.873
				c-12.032,15.664-20.413,34.963-23.423,54.5c-0.194,1.262-0.403,2.686-0.609,4.236h21.003c-0.013-2.244,0.24-4.762,0.824-7.713
				c2.756-13.912,9.096-26.998,17.632-38.27c4.913-6.486,9.999-11.623,14.178-15.356V143.879z"/>
			<path style="fill:#B8D6DD;" d="M245.85,171.116c-13.424-17.477-27.692-26.498-28.293-26.875c-0.177-0.11-0.359-0.202-0.539-0.3
				v25.268c4.024,3.667,8.79,8.565,13.405,14.659c8.156,10.768,14.093,22.986,17.091,36.168c0.825,3.628,1.242,6.955,1.259,10.131
				h20.821C266.776,208.706,259.116,188.385,245.85,171.116z"/>
		</g>
		<path style="fill:#F29555;" d="M221.712,148.338c-4.938-5.387-21.75-13.518-30.573-11.148
			c-8.824-2.369-25.637,5.762-30.574,11.148c-7.289,7.953-16.305,21.699-14.249,86.697h44.702h0.242h44.702
			C238.018,170.038,229.002,156.292,221.712,148.338z"/>
		<path style="fill:#93E2CE;" d="M221.712,148.338c-1.664-1.816-4.679-3.941-8.28-5.873c-5.531,7.006-14.072,11.57-23.525,11.57
			c-9.021,0-17.214-4.158-22.751-10.627c-2.847,1.662-5.194,3.406-6.591,4.93c-7.289,7.953-17.325,19.031-14.249,86.697h89.646
			C239.906,167.37,229.002,156.292,221.712,148.338z"/>
		<g>
			<path style="fill:#FFB37F;" d="M146.435,234.036c1.123,11.6,7.469,74.742,22.757,126h16l-3-88h18.045l-2.989,87h16
				c14.888-49.918,21.296-111.268,22.659-125H146.435z"/>
			<path style="fill:#ACD2EA;" d="M185.192,360.036h-16c0,0-27,14-25,22h42L185.192,360.036z"/>
			<path style="fill:#ACD2EA;" d="M197.086,359.036h16c0,0,27,14,25,22h-42L197.086,359.036z"/>
		</g>
		<path style="opacity:0.5;fill:#4198C4;" d="M173.413,381.036h12.778l-0.812-17.838
			C179.529,367.418,175.794,374.092,173.413,381.036z"/>
		<path style="opacity:0.5;fill:#4198C4;" d="M208.859,381.036H196.08l0.811-17.838
			C202.742,367.418,206.478,374.092,208.859,381.036z"/>
		<g>
			<g>
				<g>
					<path style="fill:#74D1B6;" d="M146.435,234.036c1.123,11.6,7.469,74.742,22.757,126h16l-3-88h18.045l-2.989,87h16
						c14.888-49.918,21.296-111.268,22.659-125H146.435z"/>
				</g>
			</g>
		</g>
		<g>
			<g>
				<g>
					<path style="fill:#74D1B6;" d="M190.573,272.036v-38h-44.138c1.123,11.6,7.469,74.742,22.757,126h16l-3-88H190.573z"/>
				</g>
			</g>
		</g>
		<polygon style="fill:#6FC9AF;" points="235.573,247.702 147.573,247.702 145.573,233.702 237.573,233.702 		"/>
		<path style="fill:#D2EEF5;" d="M164.707,138.557c0,0-13.512,18.109-20.189,51.109c-5.909,29.202-5.5,59,8.5,119h21l4-169
			L164.707,138.557z"/>
		<path style="fill:#D2EEF5;" d="M219.823,138.557c0,0,15.373,29.109,19.189,51.109c5.05,29.11,4.5,59-9.5,118h-21l-4-168
			L219.823,138.557z"/>
		<path style="fill:#3281A0;" d="M146.542,376.036c-1.804,2.15-2.795,4.223-2.351,6h42l-0.273-6H146.542z"/>
		<path style="fill:#3281A0;" d="M196.314,377.036l-0.228,5h42c0.375-1.5-0.27-3.211-1.564-5H196.314z"/>
		<rect x="164.573" y="352.702" style="fill:#6FC9AF;" width="22.666" height="8.668"/>
		<rect x="195.239" y="353.036" style="fill:#6FC9AF;" width="22.667" height="8.666"/>
		<g>
			<g>
				
					<ellipse transform="matrix(0.9925 -0.1219 0.1219 0.9925 -8.4089 31.2506)" style="fill:#FFB37F;" cx="251.277" cy="84.37" rx="13.667" ry="17"/>
				
					<ellipse transform="matrix(0.9998 -0.0176 0.0176 0.9998 -1.4694 2.3241)" style="fill:#F29555;" cx="130.944" cy="84.413" rx="13.667" ry="17"/>
			</g>
			<g>
				<path style="fill:#FFC695;" d="M192.147,21.5c-15.093,0.699-30.754,4.859-42,12.536c-16.568,11.31-18.277,34.876-20.242,52.996
					c-2.075,19.129-1.016,38.614,16.468,50.001c12.189,7.939,31.458,7.709,45.774,8.861V21.5z"/>
				<path style="fill:#FFC695;" d="M191.131,21.5c15.093,0.699,29.754,4.859,41,12.536c16.568,11.31,18.277,34.876,20.242,52.996
					c2.074,19.129,1.016,38.614-16.469,50.001c-12.189,7.939-30.457,7.709-44.773,8.861V21.5z"/>
			</g>
			<g>
				<circle style="fill:#333331;" cx="161.014" cy="91.19" r="6.487"/>
				<circle style="fill:#333331;" cx="221.263" cy="91.19" r="6.487"/>
			</g>
			<path style="fill:#F29555;" d="M202.471,105.37c0,3.497-2.835,6.333-6.333,6.333h-10c-3.498,0-6.333-2.836-6.333-6.333l0,0
				c0-3.498,2.835-6.334,6.333-6.334h10C199.636,99.036,202.471,101.872,202.471,105.37L202.471,105.37z"/>
			<path style="fill:#F29555;" d="M204.676,118.059c-1.639-0.204-3.127,0.948-3.345,2.578c-0.116,0.778-1.332,6.977-10.193,7.398
				c-8.861-0.422-10.076-6.62-10.192-7.398c-0.219-1.63-1.707-2.782-3.346-2.578c-1.644,0.205-2.81,1.705-2.605,3.35
				c0.542,4.337,4.626,12.107,15.976,12.602v0.023c0.059-0.002,0.109-0.01,0.167-0.012c0.058,0.002,0.109,0.01,0.167,0.012v-0.023
				c11.35-0.494,15.434-8.265,15.977-12.602C207.486,119.764,206.32,118.264,204.676,118.059z"/>
		</g>
	</g>
	<path style="fill:#9A9798;" d="M253.185,67.332C269.184,14,228.541,0,191.185,0c-34.001,0-72.667,14-62.001,67.332
		c0,0,1.755,17.033,1.76,17.078c-1.84-16.217,9.701-39.531,24.24-39.078c6.483,0.203,18.667,12,36,12.574c0,0.002,0,0.003,0,0.004
		c0,0,0-0.001,0.001-0.002c0,0.001,0,0.002,0,0.002c0.001-0.001-0.001-0.004,0.001-0.004c17.332-0.574,26.515-12.371,32.998-12.574
		c14.539-0.453,29.081,22.861,27.241,39.077C251.431,84.365,253.185,67.332,253.185,67.332z"/>
	<path style="fill:#FFFFFF;" d="M220.851,72.166c-9.73,0-17.794,7.17-19.244,16.5h-21.409c-1.158-9.655-9.385-17.167-19.347-17.167
		c-10.752,0-19.5,8.747-19.5,19.5s8.748,19.5,19.5,19.5c9.498,0,17.421-6.829,19.143-15.833h21.613
		c1.45,9.33,9.515,16.5,19.244,16.5c10.753,0,19.5-8.747,19.5-19.5S231.604,72.166,220.851,72.166z M160.851,105.499
		c-7.995,0-14.5-6.505-14.5-14.5s6.505-14.5,14.5-14.5s14.5,6.505,14.5,14.5S168.846,105.499,160.851,105.499z M220.851,106.166
		c-7.995,0-14.5-6.505-14.5-14.5s6.505-14.5,14.5-14.5s14.5,6.505,14.5,14.5S228.846,106.166,220.851,106.166z"/>
	<polygon style="fill:#D2EEF5;" points="178.518,144.667 175.018,275.667 153.518,152.167 163.518,143.167 	"/>
	<rect x="110.018" y="222.667" style="fill:#D2EEF5;" width="25.5" height="12"/>
	<rect x="246.518" y="224.667" style="fill:#EBF5F7;" width="25.5" height="12"/>
	<g>
		<path style="fill:#84AEB2;" d="M166.693,143.749c-1.705-0.255-3.391-0.553-5.048-0.902c-2.589,3.938-11.414,21.194-1.56,62.4
			c0.274,1.147,1.299,1.92,2.43,1.92c0.192,0,0.388-0.022,0.583-0.069c1.343-0.321,2.171-1.67,1.851-3.013
			c-10.477-43.813,1.07-58.794,1.172-58.921C166.471,144.749,166.656,144.252,166.693,143.749z"/>
		<g>
			<path style="fill:#848484;" d="M162.894,244.417c-0.573,0-1.143-0.245-1.538-0.72c-0.598-0.718-14.606-17.723-10.75-30.011
				c1.557-4.962,5.681-8.393,12.258-10.198c6.423-1.764,11.567-0.921,15.287,2.503c9.574,8.815,5.391,31.819,5.208,32.794
				c-0.204,1.085-1.248,1.803-2.334,1.598c-1.085-0.203-1.801-1.248-1.598-2.334c1.128-6.04,2.61-23.046-3.988-29.116
				c-2.675-2.462-6.441-2.979-11.517-1.587c-5.253,1.442-8.361,3.908-9.5,7.538c-2.664,8.489,6.32,21.829,10.007,26.253
				c0.707,0.849,0.593,2.109-0.256,2.816C163.799,244.264,163.345,244.417,162.894,244.417z"/>
		</g>
		<path style="fill:#3A2C24;" d="M160.679,243.523l3.7-3.143c0,0,13.892,3.233,5.309,10.694
			C162.393,257.417,160.679,243.523,160.679,243.523z"/>
		<path style="fill:#3A2C24;" d="M179.142,237.46l4.714,1.163c0,0,5.506,13.156-5.566,10.561
			C168.877,246.98,179.142,237.46,179.142,237.46z"/>
		
			<rect x="158.411" y="196.287" transform="matrix(0.9551 -0.2964 0.2964 0.9551 -52.6593 57.0799)" style="fill:#3A2C24;" width="7.048" height="11.875"/>
	</g>
	<rect x="211.018" y="204.667" style="fill:#B8D6DD;" width="23.5" height="30.5"/>
	<polygon style="fill:#EBF5F7;" points="204.518,144.667 208.018,275.667 229.518,152.167 219.518,143.167 	"/>
	<g>
		<path style="fill:#84AEB2;" d="M212.939,144.18c1.509,3.744,10.881,28.782,9.081,68.373c-0.063,1.379,1.005,2.548,2.385,2.61
			c0.038,0.002,0.076,0.003,0.115,0.003c1.328,0,2.435-1.046,2.495-2.387c1.736-38.189-6.46-62.764-8.995-69.359
			C216.343,143.718,214.646,143.967,212.939,144.18z"/>
		<g>
			<g>
				<circle style="fill:#3A2C24;" cx="224.955" cy="221.229" r="10.313"/>
				<circle style="fill:#848484;" cx="224.955" cy="221.229" r="6.313"/>
			</g>
		</g>
	</g>
</g>
<g>
</g>
<g>
</g>
<g>
</g>
<g>
</g>
<g>
</g>
<g>
</g>
<g>
</g>
<g>
</g>
<g>
</g>
<g>
</g>
<g>
</g>
<g>
</g>
<g>
</g>
<g>
</g>
<g>
</g>
</svg>
