<?xml version="1.0" encoding="iso-8859-1"?>
<!-- Generator: Adobe Illustrator 18.1.1, SVG Export Plug-In . SVG Version: 6.00 Build 0)  -->
<svg xmlns="http://www.w3.org/2000/svg" xmlns:xlink="http://www.w3.org/1999/xlink" version="1.1" id="Capa_1" x="0px" y="0px" viewBox="0 0 50.946 50.946" style="enable-background:new 0 0 50.946 50.946;" xml:space="preserve" width="512px" height="512px">
<g>
	<g>
		<path d="M50.617,40.231c-0.933-0.961-1.062-2.295-1.371-3.535c-0.391-1.563-0.789-3.127-1.17-4.692    c-0.353-1.45-0.623-3.015-1.332-4.338c-0.316-0.593-0.701-1.147-0.941-1.779c-0.296-0.776-0.5-1.604-0.739-2.403    c-0.469-1.567-0.912-3.144-1.328-4.727c-0.343-1.302-0.606-2.62-1.147-3.858c-0.865-1.983-2.465-3.428-4.479-4.184    c-1.39-0.522-2.889-0.851-4.319-1.247c-1.472-0.407-2.941-0.796-4.459-0.979c-1.577-0.19-3.087,0.055-4.643,0.287    c-1.634,0.244-3.319,0.153-4.967,0.149c-3.249-0.008-6.495-0.224-9.742-0.21C6.857,8.729,3.729,9.101,0.728,9.979    c-0.26,0.076-0.433,0.298-0.616,0.481c-0.183,0.182-0.097,0.43-0.057,0.651c0.031,0.173,0.22,0.294,0.386,0.294    c1.03,0,2.059,0,3.088,0c0.062,0.232,0.2,0.442,0.421,0.577c0.494,0.301,0.787,0.114,1.149-0.257    c0.429-0.44,1.054-0.482,1.629-0.45c0.739,0.041,1.472,0.157,2.214,0.189c1.579,0.068,3.163,0.013,4.725,0.296    c0.736,0.133,1.432,0.402,2.157,0.577c0.766,0.185,1.554,0.28,2.334,0.387c0.799,0.11,1.534,0.139,2.144,0.538    c0.581,0.38,1.034,0.932,1.357,1.541c0.536,1.01,0.512,2.134,0.375,3.236c-0.187,1.51,0.578,3.015,0.898,4.457    c0.192,0.866,0.266,1.751,0.261,2.636c-0.005,0.88-0.192,1.725-0.272,2.594c-0.08,0.867,0.007,1.788,0.004,2.661    c-0.003,0.888,0.007,1.774-0.018,2.66c-0.044,1.61-0.265,3.229-0.816,4.75c-0.262,0.724-0.65,1.406-1.148,1.992    c-0.544,0.639-1.288,0.92-2.003,1.319c-0.272,0.151-0.246,0.532,0,0.69c1.092,0.703,2.159,0.951,3.4,0.501    c0.601-0.217,1.221-0.34,1.805-0.607c0.443-0.203,0.654-0.772,0.712-1.215c0.073-0.559,0.068-1.041,0.366-1.543    c0.358-0.603,0.997-1.117,1.467-1.637c0.926-1.021,1.812-2.08,2.604-3.21c1.689-2.409,3.162-4.979,4.682-7.5    c1.389-2.301,2.811-4.581,4.229-6.864c0.556,0.93,1.125,1.851,1.592,2.831c0.619,1.3,1.226,2.604,1.83,3.908    c1.186,2.558,2.408,5.099,3.576,7.663c0.545,1.195,1.028,2.42,1.377,3.688c0.18,0.649,0.311,1.312,0.393,1.979    c0.062,0.506,0.064,0.987,0.271,1.461c0.397,0.909,1.569,0.679,2.338,0.621c0.408-0.031,1.055-0.063,1.266-0.504    C51.05,40.943,50.921,40.572,50.617,40.231z M49.776,41.059c-0.325,0.036-0.655,0.051-0.983,0.08    c-0.276,0.026-0.633,0.061-0.812-0.199c-0.239-0.349-0.185-0.922-0.231-1.32c-0.068-0.564-0.178-1.121-0.311-1.674    c-0.521-2.168-1.521-4.189-2.472-6.192c-1.065-2.245-2.099-4.505-3.146-6.758c-0.516-1.107-1.019-2.223-1.566-3.314    c-0.504-1.008-1.133-1.952-1.699-2.925c-0.154-0.265-0.534-0.253-0.691,0c-1.432,2.309-2.873,4.612-4.281,6.938    c-1.43,2.362-2.838,4.738-4.35,7.052c-0.727,1.11-1.514,2.161-2.38,3.167c-0.439,0.51-0.893,1.007-1.349,1.501    c-0.4,0.434-0.84,0.841-1.112,1.372c-0.201,0.392-0.267,0.828-0.31,1.261c-0.026,0.265-0.013,0.492-0.139,0.735    c-0.168,0.326-0.63,0.396-0.95,0.492c-0.601,0.182-1.232,0.465-1.863,0.494c-0.405,0.018-0.79-0.115-1.151-0.296    c0.342-0.172,0.683-0.35,0.981-0.586c0.512-0.407,0.917-0.952,1.257-1.507c0.673-1.098,1.004-2.384,1.229-3.639    c0.271-1.516,0.278-3.057,0.276-4.592c-0.001-0.761,0.027-1.521,0.013-2.279c-0.007-0.383-0.033-0.76-0.017-1.143    c0.018-0.433,0.135-0.871,0.188-1.303c0.187-1.505,0.059-3.034-0.289-4.506c-0.172-0.728-0.431-1.432-0.616-2.157    c-0.209-0.816-0.169-1.545-0.093-2.371c0.167-1.788-0.544-3.585-1.991-4.667c-0.726-0.543-1.472-0.618-2.368-0.746    c-0.902-0.128-1.804-0.241-2.69-0.455c-0.89-0.215-1.729-0.518-2.642-0.64c-1.849-0.248-3.72-0.126-5.575-0.307    c-0.709-0.069-1.383-0.18-2.087-0.004c-0.303,0.076-0.584,0.235-0.829,0.424c-0.125,0.096-0.228,0.209-0.332,0.324    c-0.014-0.01-0.01-0.02-0.041-0.031c-0.067-0.044-0.088-0.103-0.063-0.177c0.067-0.251-0.124-0.506-0.386-0.506    c-0.83,0-1.659,0-2.488,0c0.445-0.158,0.943-0.238,1.369-0.334c0.798-0.181,1.606-0.32,2.416-0.435    C6.783,9.611,8.385,9.528,9.98,9.514c1.608-0.014,3.214,0.088,4.821,0.137c1.64,0.05,3.281,0.068,4.921,0.073    c1.622,0.005,3.271,0.08,4.882-0.136c1.597-0.214,3.107-0.474,4.726-0.3c1.568,0.168,3.105,0.631,4.619,1.054    c1.396,0.39,2.854,0.711,4.201,1.241c2.018,0.794,3.365,2.506,4.053,4.516c0.467,1.364,0.738,2.807,1.117,4.198    c0.43,1.578,0.893,3.146,1.37,4.713c0.202,0.66,0.396,1.307,0.716,1.92c0.311,0.598,0.699,1.148,0.953,1.773    c0.281,0.691,0.43,1.464,0.615,2.186c0.195,0.758,0.377,1.518,0.561,2.277c0.348,1.441,0.754,2.874,1.075,4.32    c0.271,1.215,0.548,2.391,1.441,3.311l0,0C50.262,41.035,50.001,41.033,49.776,41.059z" fill="#D90057"/>
		<path d="M32.108,16.852c-0.595-0.4-1.573-0.364-2.241-0.269c-0.883,0.126-1.682,0.638-2.442,1.066    c-0.776,0.437-1.632,0.679-2.113,1.487c-0.482,0.809-0.26,1.931-0.202,2.813c0.085,1.307,0.216,2.61,0.307,3.917    c0.04,0.572,0.075,1.146,0.056,1.72c-0.022,0.674-0.179,1.354-0.291,2.021c-0.221,1.301-0.468,2.598-0.699,3.896    c-0.042,0.235,0.063,0.401,0.279,0.492c0.057,0.022,0.115,0.048,0.172,0.071c0.169,0.069,0.362-0.049,0.452-0.185    c0.772-1.177,1.601-2.317,2.351-3.51c0.731-1.162,1.316-2.392,1.819-3.667c1.062-2.692,1.983-5.466,2.774-8.249    c0-0.001,0-0.001,0-0.002C32.473,17.928,32.649,17.216,32.108,16.852z M28.85,26.322c-0.825,2.158-2.065,4.023-3.331,5.914    c0.1-0.547,0.199-1.094,0.296-1.642c0.187-1.054,0.427-2.129,0.462-3.2c0.034-1.029-0.099-2.074-0.184-3.098    c-0.093-1.107-0.188-2.217-0.241-3.329c-0.039-0.804-0.047-1.498,0.69-1.981c0.318-0.208,0.697-0.333,1.033-0.51    c0.381-0.201,0.75-0.424,1.129-0.627c0.738-0.393,1.478-0.588,2.313-0.489c0.183,0.022,0.504,0.029,0.651,0.157    c0.111,0.1-0.084,0.614-0.112,0.72C30.783,20.969,29.863,23.671,28.85,26.322z" fill="#D90057"/>
		<path d="M20.999,18.432c0-0.004,0.002-0.007,0.002-0.012c-0.035-2.224-1.581-4.141-3.768-4.598    c-2.156-0.45-4.408,0.765-5.247,2.792c-0.864,2.087-0.098,4.446,1.738,5.717c1.844,1.276,4.398,0.907,5.948-0.641    C20.533,20.83,20.978,19.636,20.999,18.432z M16.313,22.309c-2.146,0.034-3.856-1.795-3.889-3.889    c-0.034-2.146,1.795-3.856,3.889-3.889c2.146-0.034,3.856,1.794,3.889,3.889C20.168,20.566,18.459,22.275,16.313,22.309z" fill="#D90057"/>
	</g>
</g>
<g>
</g>
<g>
</g>
<g>
</g>
<g>
</g>
<g>
</g>
<g>
</g>
<g>
</g>
<g>
</g>
<g>
</g>
<g>
</g>
<g>
</g>
<g>
</g>
<g>
</g>
<g>
</g>
<g>
</g>
</svg>
