<?xml version="1.0" encoding="UTF-8" standalone="no"?>
<!DOCTYPE svg PUBLIC "-//W3C//DTD SVG 1.1//EN" "http://www.w3.org/Graphics/SVG/1.1/DTD/svg11.dtd">
<svg width="100%" height="100%" viewBox="0 0 207 207" version="1.1" xmlns="http://www.w3.org/2000/svg" xmlns:xlink="http://www.w3.org/1999/xlink" xml:space="preserve" style="fill-rule:evenodd;clip-rule:evenodd;stroke-linejoin:round;stroke-miterlimit:1.41421;">
    <path d="M84.963,34.367L121.363,34.37C112.912,33.112 111.736,30.382 111.736,30.382C109.946,27.806 110.969,22.868 110.969,22.868C112.454,21.66 113.027,18.453 113.027,18.453C115.493,16.562 115.372,13.795 114.233,13.825C113.319,13.849 113.526,13.092 113.526,13.092C115.068,0.636 104.01,0 104.01,0L102.322,0C102.322,0 91.259,0.636 92.799,13.089C92.799,13.089 93.006,13.847 92.084,13.822C90.948,13.792 90.842,16.559 93.299,18.45C93.299,18.45 93.871,21.656 95.357,22.865C95.357,22.865 96.38,27.803 94.59,30.379C94.59,30.379 94.112,31.492 91.566,32.624C90.124,33.265 88.02,33.912 84.963,34.367Z" style="fill:rgb(225,225,225);fill-rule:nonzero;"/>
</svg>
