<?xml version="1.0" encoding="iso-8859-1"?>
<!-- Generator: Adobe Illustrator 18.0.0, SVG Export Plug-In . SVG Version: 6.00 Build 0)  -->
<!DOCTYPE svg PUBLIC "-//W3C//DTD SVG 1.1//EN" "http://www.w3.org/Graphics/SVG/1.1/DTD/svg11.dtd">
<svg xmlns="http://www.w3.org/2000/svg" xmlns:xlink="http://www.w3.org/1999/xlink" version="1.1" id="Capa_1" x="0px" y="0px" viewBox="0 0 495.778 495.778" style="enable-background:new 0 0 495.778 495.778;" xml:space="preserve" width="512px" height="512px">
<g>
	<path d="M249.93,337.852c54.91,0,99.583-44.673,99.583-99.583c0-54.91-44.673-99.583-99.583-99.583   c-54.91,0-99.583,44.673-99.583,99.583C150.347,293.18,195.02,337.852,249.93,337.852z M208.992,156.921l16.703,43.956   c-6.688,4.35-12.14,10.438-15.711,17.624l-45.524-11.719C172.478,185.088,188.533,167.259,208.992,156.921z M249.93,202.186   c19.897,0,36.084,16.187,36.084,36.084s-16.187,36.083-36.084,36.083c-19.897,0-36.084-16.187-36.084-36.083   S230.033,202.186,249.93,202.186z M161.892,214.898l45.044,11.595c-0.806,2.941-1.322,6-1.506,9.148l-27.958,1.834   c-2.342,0.153-4.116,2.177-3.962,4.519c0.148,2.248,2.016,3.972,4.236,3.972c0.094,0,0.188-0.003,0.283-0.009l27.716-1.817   c2.884,21.818,21.593,38.714,44.186,38.714c24.583,0,44.584-20,44.584-44.583s-20.001-44.584-44.584-44.584   c-5.883,0-11.498,1.156-16.645,3.236l-16.523-43.482c10.283-4.034,21.471-6.253,33.168-6.253c50.223,0,91.083,40.86,91.083,91.083   c0,50.223-40.86,91.083-91.083,91.083c-50.223,0-91.083-40.86-91.083-91.083C158.847,230.192,159.91,222.36,161.892,214.898z" fill="#e36352"/>
	<path d="M249.93,316.403c43.083,0,78.133-35.05,78.133-78.133c0-2.347-1.903-4.25-4.25-4.25c-2.347,0-4.25,1.903-4.25,4.25   c0,38.396-31.237,69.633-69.633,69.633c-2.347,0-4.25,1.903-4.25,4.25C245.68,314.5,247.583,316.403,249.93,316.403z" fill="#e36352"/>
	<path d="M249.93,254.636c9.025,0,16.367-7.342,16.367-16.366c0-9.024-7.342-16.367-16.367-16.367   c-9.025,0-16.367,7.342-16.367,16.367C233.563,247.294,240.906,254.636,249.93,254.636z M249.93,230.403   c4.338,0,7.867,3.529,7.867,7.867c0,4.337-3.529,7.866-7.867,7.866c-4.338,0-7.867-3.529-7.867-7.866   C242.063,233.932,245.593,230.403,249.93,230.403z" fill="#e36352"/>
	<path d="M4.082,238.269c0,1.172,0.484,2.292,1.337,3.095c0.299,0.281,30.436,28.481,75.657,56.25   c41.863,25.707,105.658,56.352,171.841,56.352c66.211,0,128.399-30.663,168.909-56.385c43.759-27.787,72.411-56.011,72.695-56.293   c0.805-0.798,1.257-1.885,1.257-3.018c0-0.928-0.317-1.815-0.869-2.548l0.008-0.017c-1.027-1.357-25.635-33.623-67.574-66.475   c-38.83-30.417-100.261-66.748-172.405-67.098c-65.852-0.291-131.069,19.172-174.19,35.58   C34.08,155.469,2.444,173.581,2.13,173.762c-1.975,1.137-2.702,3.63-1.647,5.65l21.623,41.414   c-10.558,8.616-16.554,14.224-16.687,14.349C4.566,235.977,4.082,237.097,4.082,238.269z M9.939,179.157   c21.087-11.43,132.041-68.528,243.385-68.528c0.521,0,1.053,0.002,1.574,0.004c69.659,0.338,129.278,35.615,167.026,65.149   c7.046,5.513,13.602,11.033,19.649,16.404c-6.163-4.344-12.76-8.79-19.747-13.227c-40.51-25.723-102.697-56.385-168.909-56.385   c-66.184,0-129.978,30.644-171.841,56.351c-21.243,13.044-39.155,26.184-52.212,36.48L9.939,179.157z M30.259,225.152h60.564   c2.347,0,4.25-1.903,4.25-4.25c0-2.347-1.903-4.25-4.25-4.25H41.12c11.955-9.11,27.032-19.816,44.403-30.484   c0.008-0.005,0.016-0.01,0.023-0.014h38.274c2.347,0,4.25-1.903,4.25-4.25s-1.903-4.25-4.25-4.25h-23.87   c40.383-22.912,95.903-46.581,152.965-46.581c64.105,0,124.669,29.886,164.188,54.957c34.732,22.034,59.751,44.318,68.256,52.24   c-3.223,3.002-8.822,8.068-16.417,14.4c-0.065-0.003-0.127-0.02-0.193-0.02h-38.944c-2.347,0-4.25,1.903-4.25,4.25   c0,2.347,1.903,4.25,4.25,4.25h28.673c-11.251,8.869-25.266,19.14-41.375,29.359c-39.519,25.071-100.083,54.956-164.188,54.956   c-64.139,0-126.346-29.909-167.237-54.999c-35.823-21.98-62-44.208-71.013-52.199C17.841,235.454,23.152,230.867,30.259,225.152z" fill="#e36352"/>
	<path d="M488.536,274.934c-0.279,0.276-28.4,27.958-71.432,55.258c-39.519,25.071-100.083,54.957-164.188,54.957   c-64.139,0-126.346-29.909-167.237-54.999c-44.521-27.318-74.142-55.017-74.436-55.294c-1.71-1.607-4.398-1.526-6.007,0.183   c-1.608,1.709-1.527,4.398,0.182,6.007c0.299,0.281,30.436,28.481,75.657,56.251c41.863,25.707,105.658,56.352,171.841,56.352   c66.211,0,128.399-30.663,168.909-56.385c43.759-27.787,72.411-56.011,72.695-56.293c1.667-1.652,1.678-4.343,0.026-6.009   C492.894,273.293,490.203,273.281,488.536,274.934z" fill="#e36352"/>
</g>
<g>
</g>
<g>
</g>
<g>
</g>
<g>
</g>
<g>
</g>
<g>
</g>
<g>
</g>
<g>
</g>
<g>
</g>
<g>
</g>
<g>
</g>
<g>
</g>
<g>
</g>
<g>
</g>
<g>
</g>
</svg>
