<?xml version="1.0" encoding="iso-8859-1"?>
<!-- Generator: Adobe Illustrator 18.0.0, SVG Export Plug-In . SVG Version: 6.00 Build 0)  -->
<!DOCTYPE svg PUBLIC "-//W3C//DTD SVG 1.1//EN" "http://www.w3.org/Graphics/SVG/1.1/DTD/svg11.dtd">
<svg version="1.1" id="Capa_1" xmlns="http://www.w3.org/2000/svg" xmlns:xlink="http://www.w3.org/1999/xlink" x="0px" y="0px"
	 viewBox="0 0 486.043 486.043" style="enable-background:new 0 0 486.043 486.043;" xml:space="preserve">
<g>
	<path d="M390.015,146.936C389.91,65.894,323.946,0,242.88,0C161.748,0,95.743,66.005,95.743,147.136c0,2.347,1.903,4.25,4.25,4.25
		c2.347,0,4.25-1.903,4.25-4.25C104.243,70.692,166.435,8.5,242.88,8.5c57.438,0,106.827,35.113,127.836,85h-25.931
		c-2.347,0-4.25,1.903-4.25,4.25c0,2.347,1.903,4.25,4.25,4.25h29.181c2.61,7.561,4.586,15.415,5.858,23.5h-20.039
		c-2.347,0-4.25,1.903-4.25,4.25c0,2.347,1.903,4.25,4.25,4.25h21.104c0.409,4.326,0.626,8.705,0.626,13.136
		c0,0.139,0.007,0.283,0.021,0.421c0.021,0.21,1.978,21.325-5.613,51.491c-6.993,27.79-23.765,69.198-63.957,108.65
		c-16.901,16.59-28.809,32.901-37.203,47.503h-24.816c-2.347,0-4.25,1.903-4.25,4.25c0,2.347,1.903,4.25,4.25,4.25h20.212
		c-13.469,26.48-15.165,45.668-15.301,47.539c-4.472,43.374-28.377,66.303-69.133,66.303c-35.468,0-60.372-25.12-66.618-67.196
		c-0.345-2.322-2.504-3.923-4.828-3.58c-2.322,0.345-3.925,2.506-3.58,4.828c6.817,45.921,35.566,74.448,75.026,74.448
		c21.554,0,39.132-5.868,52.245-17.441c14.264-12.588,22.794-31.619,25.352-56.563c0.005-0.05,0.009-0.101,0.013-0.151
		c0.032-0.477,3.765-48.238,54.587-98.124c41.742-40.974,59.119-84.088,66.346-113.042
		C391.798,170.551,390.241,149.465,390.015,146.936z"/>
	<path d="M242.88,28.339c-65.505,0-118.797,53.292-118.797,118.797c0,2.347,1.903,4.25,4.25,4.25s4.25-1.903,4.25-4.25
		c0-60.818,49.479-110.297,110.297-110.297c2.347,0,4.25-1.903,4.25-4.25C247.13,30.242,245.227,28.339,242.88,28.339z"/>
	<path d="M229.847,411.172c-2.888,28.16-17.732,42.438-44.122,42.438c-2.347,0-4.25,1.903-4.25,4.25c0,2.347,1.903,4.25,4.25,4.25
		c30.594,0,49.267-17.782,52.578-50.07c0.239-2.335-1.46-4.422-3.794-4.662C232.171,407.139,230.087,408.836,229.847,411.172z"/>
	<path d="M292.216,252.174c1.742,1.574,4.429,1.437,6.002-0.305c34.946-38.689,32.412-87.831,32.158-91.63
		c-0.081-48.177-39.301-87.346-87.496-87.346c-48.246,0-87.497,39.251-87.497,87.496v57.974c0,2.008,1.406,3.743,3.371,4.158
		c0.244,0.052,24.604,5.408,37.286,25.897c5.81,9.387,8.279,20.542,7.424,33.286h-31.511c-2.347,0-4.25,1.903-4.25,4.25
		c0,2.347,1.903,4.25,4.25,4.25h30.487c-0.462,2.696-1.044,5.448-1.776,8.268c-10.577,40.755-43.665,45.036-56.526,45.111
		c1.532-5.521,3.774-14.701,4.912-24.606c2.551-22.206-1.694-36.542-12.616-42.61c-2.053-1.141-4.639-0.4-5.779,1.651
		c-1.14,2.052-0.4,4.639,1.651,5.779c15.8,8.778,6.924,48.057,2.171,62.451c-0.4,1.211-0.235,2.539,0.45,3.615
		c0.684,1.076,1.816,1.789,3.082,1.94c0.21,0.025,2.19,0.249,5.384,0.249c5.485,0,14.551-0.662,24.386-4.135
		c14.481-5.113,33.369-17.471,41.112-47.31c5.772-22.244,3.88-41.308-5.624-56.662c-11.716-18.929-31.487-26.487-39.384-28.849
		v-11.887h56.067c2.347,0,4.25-1.903,4.25-4.25c0-2.347-1.903-4.25-4.25-4.25h-56.067v-1.391
		c18.039-45.36,48.611-70.545,90.881-74.848c29.944-3.048,55.63,5.943,59.058,7.209c5.151,10.484,8.055,22.263,8.055,34.71
		c0,0.103,0.004,0.209,0.011,0.311c0.035,0.484,3.121,48.827-29.977,85.471C290.337,247.913,290.473,250.601,292.216,252.174z
		 M219.857,118.728c-23.528,10.207-42.294,28.428-55.975,54.273V160.39c0-43.559,35.438-78.996,78.997-78.996
		c26.534,0,50.036,13.163,64.368,33.287C290.295,110.033,254.641,103.638,219.857,118.728z"/>
</g>
<g>
</g>
<g>
</g>
<g>
</g>
<g>
</g>
<g>
</g>
<g>
</g>
<g>
</g>
<g>
</g>
<g>
</g>
<g>
</g>
<g>
</g>
<g>
</g>
<g>
</g>
<g>
</g>
<g>
</g>
</svg>
