<?xml version="1.0" encoding="iso-8859-1"?>
<!-- Generator: Adobe Illustrator 18.0.0, SVG Export Plug-In . SVG Version: 6.00 Build 0)  -->
<!DOCTYPE svg PUBLIC "-//W3C//DTD SVG 1.1//EN" "http://www.w3.org/Graphics/SVG/1.1/DTD/svg11.dtd">
<svg xmlns="http://www.w3.org/2000/svg" xmlns:xlink="http://www.w3.org/1999/xlink" version="1.1" id="Capa_1" x="0px" y="0px" viewBox="0 0 480.917 480.917" style="enable-background:new 0 0 480.917 480.917;" xml:space="preserve" width="512px" height="512px">
<g>
	<path d="M356.683,42.757C326.336,15.185,285.06,0,240.458,0c-44.602,0-85.877,15.185-116.225,42.757   c-31.179,28.329-48.35,67.823-48.35,111.207c0,16.193,2.33,32.077,6.923,47.21c9.861,32.478,24.542,78.427,38.132,102.388   c2.637,4.649,10.313,17.4,22.785,31.968c1.63,7.085,23.328,105.526-18.538,136.657c-1.883,1.401-2.275,4.063-0.875,5.947   c0.835,1.122,2.116,1.714,3.414,1.714c0.881,0,1.771-0.273,2.533-0.84c17.487-13.003,25.197-35.486,27.904-58.965h44.265   c2.347,0,4.25-1.903,4.25-4.25s-1.903-4.25-4.25-4.25h-43.495c1.634-24.546-1.527-49.059-4.137-64.015   c2.613,2.624,5.366,5.251,8.264,7.851c24.716,22.167,50.756,34.358,77.396,36.237c0.1,0.007,0.199,0.011,0.299,0.011   c0.1,0,0.2-0.003,0.299-0.011c26.64-1.879,52.679-14.07,77.396-36.237c2.468-2.213,4.827-4.447,7.088-6.682   c-4.003,22.986-9.279,68.372,3.441,101.844h-51.554c-2.347,0-4.25,1.903-4.25,4.25c0,2.347,1.903,4.25,4.25,4.25h55.317   c4.266,8.286,9.927,15.515,17.35,21.034c0.762,0.566,1.651,0.84,2.533,0.84c1.298,0,2.58-0.593,3.414-1.714   c1.4-1.884,1.009-4.546-0.874-5.947c-41.222-30.652-20.786-126.703-18.622-136.283c13.206-15.163,21.304-28.607,24.027-33.409   c14.527-25.615,30.075-77.479,37.546-102.403c4.591-15.318,6.919-31.197,6.919-47.196   C405.033,110.58,387.862,71.086,356.683,42.757z M353.174,299.37c-16.608,29.28-58.941,79.801-112.421,83.747   c-51.892-3.829-93.287-51.505-110.871-81.082h34.835c2.347,0,4.25-1.903,4.25-4.25c0-2.347-1.903-4.25-4.25-4.25h-39.481   c-13.92-27.731-29.072-77.626-34.295-94.829c-4.351-14.332-6.557-29.386-6.557-44.741c0-16.831,2.764-32.821,7.914-47.62h61.809   c2.347,0,4.25-1.903,4.25-4.25c0-2.347-1.903-4.25-4.25-4.25H95.584c2.022-4.776,4.297-9.415,6.82-13.898h59.955   c2.347,0,4.25-1.903,4.25-4.25c0-2.347-1.903-4.25-4.25-4.25h-54.754C134.631,34.608,182.974,8.5,240.458,8.5   c77.807,0,138.881,47.821,152.99,115.28h-16.538c-2.347,0-4.25,1.903-4.25,4.25c0,2.347,1.903,4.25,4.25,4.25h18.041   c0.979,6.653,1.509,13.477,1.565,20.449h-22.439c-0.323-34.759-14.234-66.369-39.273-89.118   c-24.642-22.389-58.148-34.719-94.347-34.719c-2.347,0-4.25,1.903-4.25,4.25c0,2.347,1.903,4.25,4.25,4.25   c70.895,0,124.455,49.496,125.119,115.336h-34.642c-2.347,0-4.25,1.903-4.25,4.25s1.903,4.25,4.25,4.25h65.408   c-0.592,12.706-2.714,25.288-6.372,37.491C382.589,223.346,367.228,274.589,353.174,299.37z" fill="#f0bc62"/>
	<path d="M260.499,319.47h-40.081c-2.347,0-4.25,1.903-4.25,4.25s1.903,4.25,4.25,4.25h40.081c2.347,0,4.25-1.903,4.25-4.25   S262.846,319.47,260.499,319.47z" fill="#f0bc62"/>
	<path d="M240.458,145.247c2.347,0,4.25-1.903,4.25-4.25V93.46c0-2.347-1.903-4.25-4.25-4.25c-2.347,0-4.25,1.903-4.25,4.25v47.537   C236.208,143.344,238.111,145.247,240.458,145.247z" fill="#f0bc62"/>
	<path d="M240.458,280.815c2.347,0,4.25-1.903,4.25-4.25v-50.69c0-2.347-1.903-4.25-4.25-4.25c-2.347,0-4.25,1.903-4.25,4.25v50.69   C236.208,278.913,238.111,280.815,240.458,280.815z" fill="#f0bc62"/>
</g>
<g>
</g>
<g>
</g>
<g>
</g>
<g>
</g>
<g>
</g>
<g>
</g>
<g>
</g>
<g>
</g>
<g>
</g>
<g>
</g>
<g>
</g>
<g>
</g>
<g>
</g>
<g>
</g>
<g>
</g>
</svg>
