<?xml version="1.0" encoding="iso-8859-1"?>
<!-- Generator: Adobe Illustrator 18.0.0, SVG Export Plug-In . SVG Version: 6.00 Build 0)  -->
<!DOCTYPE svg PUBLIC "-//W3C//DTD SVG 1.1//EN" "http://www.w3.org/Graphics/SVG/1.1/DTD/svg11.dtd">
<svg xmlns="http://www.w3.org/2000/svg" xmlns:xlink="http://www.w3.org/1999/xlink" version="1.1" id="Capa_1" x="0px" y="0px" viewBox="0 0 478.475 478.475" style="enable-background:new 0 0 478.475 478.475;" xml:space="preserve" width="512px" height="512px">
<g>
	<path d="M241.324,436.186c42.91,0.55,82.054-7.659,116.389-24.429c27.512-13.436,51.977-32.349,72.714-56.21   c35.272-40.588,47.359-80.908,47.857-82.605v0c0.112-0.381,0.191-0.777,0.191-1.195c0-0.883-0.27-1.704-0.73-2.383   c-3.369-6.123-7.992-14.781-13.33-24.779c-30.718-57.532-87.897-164.622-117.672-186.954   c-10.643-7.982-22.238-15.369-34.906-15.369c-3.658,0-7.286,0.627-10.784,1.863c-13.622,4.112-26.233,13.038-38.43,21.67   c-7.006,4.958-14.232,10.072-21.397,14.046c-8.135-4.167-14.096-9.672-20.381-15.478c-4.7-4.341-9.561-8.831-15.633-13.166   c-7.696-5.772-16.297-8.699-25.564-8.699c-10.904,0-22.321,4.252-32.189,12.006C108.279,86.066,27.13,211.943,0.388,269.968   c-0.458,0.993-0.498,2.078-0.19,3.054c0.001,0.005-0.001,0.011,0.001,0.016c0.54,1.695,13.66,41.991,49.966,82.555   c4.081,4.56,8.296,8.936,12.636,13.13c0.416,0.725,1.033,1.311,1.783,1.687c10.639,10.08,23.254,19.973,35.367,27.732   c7.413,4.748,16.418,9.801,24.349,13.625c33.656,16.228,75.721,24.445,117.024,24.445V436.186z M241.324,313.873   c2.347,0,4.25-1.903,4.25-4.25v-26.104c42.747-16.862,89.972-10.776,122.351-2.558c25.174,6.39,45.448,14.993,55.504,19.661   c-2.829,1.463-5.771,2.935-8.851,4.405c-34.705,16.564-92.934,36.31-173.253,36.31c-80.357,0-139.744-19.765-175.413-36.345   c-2.683-1.247-5.266-2.495-7.768-3.738c10.248-4.76,30.662-13.428,55.907-19.909c32.682-8.391,80.267-14.68,123.024,2.174v26.103   C237.074,311.97,238.977,313.873,241.324,313.873z M432.675,295.631c-6.324-3.192-30.184-14.642-62.454-22.857   c-33.94-8.639-83.676-15.004-128.897,3.272c-45.234-18.272-95.339-11.698-129.59-2.881c-32.459,8.355-56.551,19.921-63.042,23.199   c-7.386-3.982-13.796-7.822-19.23-11.314h14.264c2.347,0,4.25-1.903,4.25-4.25c0-2.347-1.903-4.25-4.25-4.25H17.07   c-2.949-2.17-5.241-3.978-6.88-5.319c2.258-2.682,5.931-6.947,10.871-12.357h81.914c2.347,0,4.25-1.903,4.25-4.25   c0-2.347-1.903-4.25-4.25-4.25H29.002c5.163-5.406,11.164-11.459,17.903-17.889h385.899c3.848,3.779,7.438,7.423,10.765,10.889   h-54.594c-2.347,0-4.25,1.903-4.25,4.25c0,2.347,1.903,4.25,4.25,4.25h62.578c4.841,5.275,8.847,9.863,11.935,13.5h-26.512   c-2.347,0-4.25,1.903-4.25,4.25c0,2.347,1.903,4.25,4.25,4.25h28.267C459.108,278.835,448.254,286.855,432.675,295.631z    M401.701,204.391c7.98,6.595,15.418,13.207,22.24,19.593h-44.1v-36.488C387.692,193.158,395.016,198.867,401.701,204.391z    M371.341,223.984h-50.245v-70.692c18.124,7.995,35.05,17.897,50.245,28.247V223.984z M312.595,223.984h-67.021v-88.937   c23.241,0.619,45.853,6.246,67.021,14.686V223.984z M237.074,223.984h-65.901v-74.87c20.967-8.1,43.208-13.464,65.901-14.067   V223.984z M162.673,223.984h-50.245V179.86c15.322-10.055,32.253-19.601,50.245-27.29V223.984z M103.927,223.984H56.023   c6.96-6.337,14.536-12.898,22.646-19.445c7.668-6.19,16.138-12.611,25.258-18.939V223.984z M152.75,61.156   c8.337-6.55,17.89-10.158,26.898-10.158c7.387,0,14.272,2.355,20.544,7.058c5.717,4.083,10.378,8.389,14.886,12.552   c7.263,6.708,14.124,13.045,24.449,17.863c1.203,0.562,2.601,0.528,3.777-0.09c8.273-4.354,16.385-10.096,24.23-15.647   c11.67-8.259,23.736-16.799,36.065-20.497c0.07-0.021,0.14-0.044,0.208-0.068c2.611-0.933,5.313-1.405,8.03-1.405   c10.178,0,20.34,6.569,29.806,13.669c7.176,5.382,16.318,16.494,26.428,30.942h-39.096c-2.347,0-4.25,1.903-4.25,4.25   c0,2.347,1.903,4.25,4.25,4.25h44.901c26.73,40,58.571,98.937,78.753,136.688c-11.743-12.427-27.186-27.563-45.368-42.603   c-25.017-20.692-50.278-37.191-75.082-49.039c-31.189-14.897-61.757-22.451-90.854-22.451c-0.002,0,0.001,0-0.001,0   c-29.087,0-59.871,7.551-91.488,22.44c-25.145,11.842-50.885,28.334-76.505,49.017c-20.568,16.605-37.801,33.328-50.288,46.388   C57.194,182.024,120.757,86.93,152.75,61.156z M424.01,349.972c-31.406,36.14-88.595,78.964-182.63,77.715   c-0.037-0.001-0.075-0.001-0.112,0c-50.898,0.669-91.316-11.563-122.819-28.643h16.774c2.347,0,4.25-1.903,4.25-4.25   s-1.903-4.25-4.25-4.25h-31.16c-9.739-6.251-18.482-12.912-26.284-19.67h70.195c2.347,0,4.25-1.903,4.25-4.25   c0-2.347-1.903-4.25-4.25-4.25H68.487c-4.247-4.1-8.163-8.186-11.757-12.19c-22.266-24.807-35.687-49.963-42.579-65.208   c10.01,7.191,25.9,17.338,47.788,27.545c36.506,17.024,97.262,37.318,179.385,37.318c82.142,0,141.771-20.304,177.328-37.337   c21.102-10.108,36.336-20.163,45.972-27.352c-4.568,10.713-12.229,26.294-23.893,43.225h-39.756c-2.347,0-4.25,1.903-4.25,4.25   c0,2.347,1.903,4.25,4.25,4.25h33.632C431.341,341.21,427.814,345.595,424.01,349.972z" fill="#e36352"/>
	<path d="M404.862,338.813c-33.832,39.588-77.666,63.036-130.284,69.693c-2.071,0.262-3.538,2.153-3.275,4.224   c0.242,1.91,1.869,3.305,3.745,3.305c0.158,0,0.318-0.01,0.479-0.03c54.543-6.9,99.991-31.219,135.082-72.281   c1.356-1.587,1.169-3.973-0.418-5.329C408.603,337.039,406.218,337.226,404.862,338.813z" fill="#e36352"/>
</g>
<g>
</g>
<g>
</g>
<g>
</g>
<g>
</g>
<g>
</g>
<g>
</g>
<g>
</g>
<g>
</g>
<g>
</g>
<g>
</g>
<g>
</g>
<g>
</g>
<g>
</g>
<g>
</g>
<g>
</g>
</svg>
