<?xml version="1.0" encoding="iso-8859-1"?>
<!-- Generator: Adobe Illustrator 18.0.0, SVG Export Plug-In . SVG Version: 6.00 Build 0)  -->
<!DOCTYPE svg PUBLIC "-//W3C//DTD SVG 1.1//EN" "http://www.w3.org/Graphics/SVG/1.1/DTD/svg11.dtd">
<svg version="1.1" id="Capa_1" xmlns="http://www.w3.org/2000/svg" xmlns:xlink="http://www.w3.org/1999/xlink" x="0px" y="0px"
	 viewBox="0 0 480.647 480.647" style="enable-background:new 0 0 480.647 480.647;" xml:space="preserve">
<g>
	<path d="M192.959,331.256c10.128,2.011,15.95,26.404,16.229,63.188c0.227,29.885-3.148,59.018-3.182,59.309
		c-0.141,1.205,0.239,2.413,1.046,3.32c0.806,0.907,1.962,1.425,3.175,1.425h134.539c0.007,0,0.013,0,0.02,0
		c2.347,0,4.25-1.903,4.25-4.25c0-0.307-0.033-0.605-0.094-0.894c-3.649-32.539,3.991-54.353,11.062-66.941
		c7.253-12.912,15.407-19.039,16.348-19.72c25.628-14.897,32.593-44.263,34.114-52.815c39.652-19.645,56.595-47.769,63.828-68.064
		c7.59-21.297,6.366-38.288,6.151-40.613c-0.06-23.187-10.115-44.888-27.692-59.94c0.288-2.617,0.433-5.229,0.433-7.793
		c0-39.359-32.021-71.38-71.38-71.38c-6.199,0-12.34,0.8-18.304,2.38c-13.74-25.286-40.662-41.438-69.576-41.438
		c-13.725,0-27.15,3.55-39.02,10.293c-12.525-9.807-28.023-15.175-43.977-15.175c-22.696,0-43.866,10.719-57.325,28.851
		c-8.544-3.488-17.574-5.253-26.892-5.253c-28.733,0-54.94,17.591-65.927,44.006c-16.731,4.264-31.865,13.951-42.807,27.449
		C6.385,131.503,0,149.538,0,167.982c0,27.024,13.252,51.845,35.581,66.916c-0.124,1.718-0.187,3.424-0.187,5.097
		c0,39.359,32.021,71.38,71.38,71.38c8.063,0,15.965-1.341,23.535-3.991c13.541,14.986,32.67,23.52,52.954,23.52
		c0.075,0,0.154-0.002,0.23-0.006c0.009,0,0.95-0.049,2.547-0.049C187.671,330.849,190.357,330.739,192.959,331.256z
		 M471.969,215.641h-26.299c-2.347,0-4.25,1.903-4.25,4.25c0,2.347,1.903,4.25,4.25,4.25h25.372
		c-0.332,2.167-0.29,4.635-1.308,6.908c-0.002,0.004-0.006,0.005-0.008,0.01c-0.171,0.521-9.65,14.786-31.338,29.48
		c-6.818,4.62-15.353,9.568-25.691,14.129c-2.33-5.216-7.498-15.703-15.417-26.036c16.807-8.795,20.583-25.912,20.083-34.416
		c-0.138-2.344-2.154-4.134-4.492-3.994c-2.343,0.138-4.131,2.149-3.994,4.492c0.012,0.198,0.88,19.013-17.21,27.197
		c-10.823-11.865-25.491-21.834-43.877-20.839c-2.344,0.126-4.141,2.129-4.014,4.473c0.127,2.344,2.124,4.138,4.473,4.014
		c31.316-1.691,51.336,36.923,56.563,48.359c-18.991,7.325-43.213,13.042-73.156,13.672c-35.459,0.747-61.404,4.952-80.246,10.226
		c-19.09-21.327-8.777-38.729-8.29-39.52c1.243-1.978,0.656-4.592-1.317-5.847c-1.981-1.259-4.607-0.676-5.867,1.305
		c-0.144,0.228-13.362,21.707,6.634,46.779c-21.763,7.322-31.915,15.804-35.907,20.009c-8.492-1.879-16.372-2.194-20.624-2.194
		c-1.513,0-2.53,0.04-2.878,0.056c-17.339-0.028-33.708-7.149-45.548-19.662c6.825-5.579,24.167-17.724,42.621-14.645
		c2.314,0.383,4.505-1.178,4.891-3.494c0.386-2.315-1.178-4.505-3.494-4.891c-9.481-1.581-18.532,0.077-26.39,2.986
		c-7.031-6.312-36.395-30.531-59.888-17.715c-2.06,1.124-2.82,3.706-1.696,5.766c1.123,2.061,3.705,2.819,5.766,1.696
		c16.212-8.84,38.143,6.653,47.225,14.106c-8.951,4.715-15.309,10.25-17.351,12.135c-7.209,2.771-14.781,4.189-22.524,4.189
		c-34.672,0-62.88-28.208-62.88-62.88c0-1.602,0.088-3.245,0.218-4.897c14.598-9.823,50.279-29.148,64.548-16.38
		c1.748,1.564,4.436,1.415,6.001-0.333c1.565-1.75,1.416-4.436-0.333-6.002c-8.081-7.23-19.761-7.429-31.582-4.602
		c-6.684-4.016-3.595-20.158-1.908-25.709c0.685-2.244-0.578-4.618-2.822-5.305c-2.244-0.689-4.621,0.576-5.307,2.821
		c-0.754,2.464-5.968,20.658,0.855,30.938c-14.679,5.201-28.161,13.555-33.551,17.101c-18.958-12.945-30.515-33.775-31.445-56.65
		h44.336c2.347,0,4.25-1.903,4.25-4.25c0-2.347-1.903-4.25-4.25-4.25H8.726c2.33-29.92,23.446-55.822,52.39-63.999
		c4.63,13.686,21.436,59.025,44.204,69.913c0.591,0.283,1.216,0.417,1.831,0.417c1.585,0,3.107-0.892,3.837-2.418
		c1.013-2.117,0.117-4.655-2.001-5.667C88.03,150.7,71.352,102.415,68.435,93.528c9.553-23.553,32.781-39.282,58.277-39.282
		c8.788,0,17.277,1.804,25.267,5.321c2.817,5.791,13.526,30.335-1.655,40.722c-1.937,1.326-2.433,3.971-1.108,5.908
		c0.824,1.204,2.156,1.851,3.512,1.851c0.827,0,1.662-0.241,2.396-0.743c20.297-13.887,8.918-42.202,4.892-50.665
		c11.836-16.318,30.686-25.991,50.914-25.991c13.919,0,27.44,4.645,38.417,13.128c-1.371,3.545-3.337,9.772-3.93,17.424
		c-7.106-0.473-20.821-0.432-27.668,5.973c-3.012,2.818-4.454,6.576-4.167,10.867c0.15,2.246,2.018,3.967,4.236,3.967
		c0.095,0,0.191-0.003,0.287-0.009c2.342-0.156,4.114-2.182,3.958-4.523c-0.117-1.755,0.342-3.017,1.49-4.092
		c3.936-3.688,14.39-4.219,21.837-3.668c0.403,5.5,1.673,11.407,4.361,17.382c0.708,1.574,2.257,2.507,3.878,2.507
		c0.583,0,1.176-0.121,1.742-0.375c2.141-0.963,3.095-3.479,2.131-5.62c-7.614-16.919-1.483-33.83,0.342-38.148
		c10.898-6.494,23.342-9.93,36.082-9.93c26.885,0,51.839,15.644,63.575,39.855c0.923,1.903,3.105,2.839,5.12,2.194
		c6.201-1.985,12.656-2.991,19.185-2.991c34.672,0,62.88,28.208,62.88,62.88c0,2.148-0.119,4.338-0.35,6.536
		c-10.667,4.266-40.952,17.742-39.793,32.814c0.171,2.229,2.034,3.924,4.233,3.924c0.109,0,0.22-0.004,0.331-0.013
		c2.34-0.18,4.091-2.223,3.911-4.564c-0.496-6.452,17.055-17.318,34.404-24.241c10.378,8.96,17.797,20.513,21.598,33.337h-50.475
		c-2.347,0-4.25,1.903-4.25,4.25c0,2.347,1.903,4.25,4.25,4.25h52.438C470.983,193.761,472.821,203.452,471.969,215.641z
		 M207.599,333.641c10.769,3.016,22.284,9.211,24.485,21.535c4.532,25.377,4.444,79.409,4.319,94.822h-21.453
		c0.952-9.586,2.911-32.329,2.739-55.547C217.472,365.202,214.181,345.027,207.599,333.641z M340.067,449.998h-9.74v-57.027
		c0-2.347-1.903-4.25-4.25-4.25c-2.347,0-4.25,1.903-4.25,4.25v57.027h-21.879v-42.923c0-2.347-1.903-4.25-4.25-4.25
		c-2.347,0-4.25,1.903-4.25,4.25v42.923h-46.541c0.126-13.917,0.227-57.652-2.982-85.894h21.467c2.347,0,4.25-1.903,4.25-4.25
		c0-2.347-1.903-4.25-4.25-4.25h-22.619c-0.106-0.651-0.212-1.301-0.322-1.922c-2.549-14.274-12.952-22.076-24.235-26.329
		c7.513-6.063,25.5-16.797,63.228-22.868c2.072,6.62,7.512,21.437,18.208,35.387c11.094,14.47,29.715,30.131,58.332,30.131
		c1.635,0,3.308-0.058,5.009-0.164C350.44,382.534,336.41,407.784,340.067,449.998z M371.542,359.967
		c-26.007,9.732-50.053-3.105-66.989-25.064c-9.273-12.022-14.379-25.078-16.566-31.666c12.573-1.652,27.094-2.795,43.85-3.147
		c54.288-1.143,90.728-18.466,111.737-32.796c7.777-5.305,14.056-10.571,18.981-15.245c-10.942,23.479-30.331,42.005-57.779,55.149
		c-1.307,0.625-2.205,1.879-2.383,3.316C402.35,310.851,399.626,349.458,371.542,359.967z"/>
	<path d="M381.806,96.161c22.777,0,41.307,18.53,41.307,41.307c0,2.347,1.903,4.25,4.25,4.25s4.25-1.903,4.25-4.25
		c0-27.464-22.343-49.807-49.807-49.807c-2.347,0-4.25,1.903-4.25,4.25C377.556,94.258,379.458,96.161,381.806,96.161z"/>
	<path d="M297.026,173.148c0.445,0,0.899-0.07,1.344-0.219c22.969-7.656,26.379-22.264,26.33-30.434
		c3.146,0.311,6.257,0.467,9.295,0.467c17.514,0,32.712-4.593,39.55-7.032c2.482,7.51,2.067,15.476-1.261,23.795
		c-0.872,2.18,0.188,4.653,2.367,5.524c0.518,0.208,1.052,0.305,1.577,0.305c1.686,0,3.283-1.011,3.947-2.672
		c14.214-35.534-19.895-56.037-20.241-56.24c-2.026-1.188-4.629-0.508-5.816,1.517c-1.187,2.025-0.508,4.629,1.517,5.816
		c0.071,0.042,7.155,4.247,12.803,12.105c0.501,0.698,0.969,1.401,1.414,2.108c-10.159,3.465-37.252,10.926-61.599,2
		c-2.202-0.809-4.645,0.324-5.453,2.527c-0.808,2.204,0.323,4.645,2.527,5.453c3.623,1.328,7.279,2.335,10.923,3.075
		c0.524,5.078-0.603,16.966-20.569,23.622c-2.227,0.742-3.43,3.149-2.688,5.375C293.588,172.022,295.246,173.148,297.026,173.148z"
		/>
	<path d="M239.651,207.864c2.346-0.071,4.19-2.031,4.119-4.377c-0.071-2.346-2.017-4.202-4.377-4.119
		c-28.227,0.858-50.417-7.755-57.427-10.851c2.708-13.839,15.664-25.994,15.944-26.253c1.729-1.586,1.846-4.274,0.26-6.004
		c-1.586-1.729-4.275-1.848-6.005-0.261c-1.16,1.063-28.263,26.316-16.12,50.603c0.745,1.49,2.246,2.351,3.805,2.351
		c0.639,0,1.287-0.145,1.897-0.45c2.1-1.049,2.951-3.603,1.901-5.702c-0.833-1.667-1.395-3.36-1.743-5.061
		c9.435,3.81,28.898,10.189,53.464,10.189C236.781,207.929,238.208,207.908,239.651,207.864z"/>
</g>
<g>
</g>
<g>
</g>
<g>
</g>
<g>
</g>
<g>
</g>
<g>
</g>
<g>
</g>
<g>
</g>
<g>
</g>
<g>
</g>
<g>
</g>
<g>
</g>
<g>
</g>
<g>
</g>
<g>
</g>
</svg>
