<?xml version="1.0" encoding="UTF-8" standalone="no"?>
<!DOCTYPE svg PUBLIC "-//W3C//DTD SVG 1.1//EN" "http://www.w3.org/Graphics/SVG/1.1/DTD/svg11.dtd">
<svg width="100%" height="100%" viewBox="0 0 207 207" version="1.1" xmlns="http://www.w3.org/2000/svg" xmlns:xlink="http://www.w3.org/1999/xlink" xml:space="preserve" style="fill-rule:evenodd;clip-rule:evenodd;stroke-linejoin:round;stroke-miterlimit:1.41421;">
    <path d="M85.284,65.809C85.284,65.809 76.588,34.449 75.449,45.796L75.291,62.431C75.291,62.431 74.682,72.284 71.369,77.566C71.369,77.566 69.448,80.958 69.226,88.764C69.226,88.764 68.663,95.38 67.923,97.438C67.472,98.647 65.902,100.693 64.674,102.227C62.266,105.22 58.219,111.467 60.384,112.18C60.384,112.18 62.073,112.344 64.293,107.923C64.293,107.923 64.247,109.616 62.466,114.548C62.116,115.462 60.627,120.138 63.039,118.457C63.039,118.457 64.156,117.69 65.608,112.88C65.608,112.88 64.829,120.979 65.696,121.386C66.829,121.941 67.447,120.339 67.958,113.251C67.958,113.251 68.482,110.962 68.725,119.699C68.737,120.15 69.398,122.397 70.321,120.479C71.1,118.871 70.75,114.615 70.75,113.184C70.75,113.184 71.749,118.706 72.683,118.706C72.683,118.706 73.782,119.997 73.331,113.135C73.258,112.014 73.651,109.713 73.7,109.043L73.806,106.412C73.806,106.412 73.532,103.398 73.532,102.143C73.532,101.832 74.61,97.728 77.453,93.396C77.453,93.396 83.366,82.908 82.985,76.054C82.985,76.054 82.903,69.514 85.284,65.809Z" style="fill:rgb(225,225,225);fill-rule:nonzero;"/>
</svg>
