<?xml version="1.0" encoding="UTF-8" standalone="no"?>
<!DOCTYPE svg PUBLIC "-//W3C//DTD SVG 1.1//EN" "http://www.w3.org/Graphics/SVG/1.1/DTD/svg11.dtd">
<svg width="100%" height="100%" viewBox="0 0 207 207" version="1.1" xmlns="http://www.w3.org/2000/svg" xmlns:xlink="http://www.w3.org/1999/xlink" xml:space="preserve" style="fill-rule:evenodd;clip-rule:evenodd;stroke-linejoin:round;stroke-miterlimit:1.41421;">
    <path d="M104.265,117.959C103.961,121.539 80.51,102.314 81.683,111.844C82.547,118.938 84.213,134.081 85.909,140.061C86.795,143.155 86.271,150.96 86.981,152.909C87.301,153.756 87.133,154.536 86.445,156.454C84.058,163.164 84.362,167.89 90.366,185.694C90.366,185.694 92.214,189.639 91.28,196.727C91.28,196.727 87.444,204.619 89.901,204.777C89.901,204.777 90.093,205.3 90.924,204.886C90.924,204.886 92.251,206.256 93.685,205.513C93.685,205.513 95.013,206.573 96.148,205.629C96.148,205.629 97.058,206.676 98.385,205.83C98.385,205.83 100.127,207.005 101.162,205.732C101.162,205.732 103.001,206.14 99.727,197.846C99.727,197.846 98.473,189.053 97.782,187.324C96.464,184.049 97.395,175.073 97.676,173.149C98.129,169.933 97.886,164.454 97.058,160.215C96.452,157.177 98.093,151.441 98.699,147.915C99.944,140.492 102.384,121.542 102.079,117.956L103.087,118.31C103.809,118.312 104.265,117.959 104.265,117.959Z" style="fill:rgb(225,225,225);fill-rule:nonzero;"/>
</svg>
