<?xml version="1.0" encoding="iso-8859-1"?>
<!-- Generator: Adobe Illustrator 18.0.0, SVG Export Plug-In . SVG Version: 6.00 Build 0)  -->
<!DOCTYPE svg PUBLIC "-//W3C//DTD SVG 1.1//EN" "http://www.w3.org/Graphics/SVG/1.1/DTD/svg11.dtd">
<svg xmlns="http://www.w3.org/2000/svg" xmlns:xlink="http://www.w3.org/1999/xlink" version="1.1" id="Capa_1" x="0px" y="0px" viewBox="0 0 492.831 492.831" style="enable-background:new 0 0 492.831 492.831;" xml:space="preserve" width="512px" height="512px">
<g>
	<path d="M395.84,1.776C395.042,0.661,393.755,0,392.384,0H255.819c-0.638,0-1.269,0.144-1.844,0.421   c-78.024,37.567-116.323,148.284-117.157,172.493c-0.846,24.475,8.848,38.883,16.636,50.461c1.35,2.007,2.628,3.907,3.762,5.735   c0.221,0.977,0.263,3.962,0.301,6.61c0.172,12.16,0.529,37.462,14.727,70.827c20.398,47.935,30.362,92.308,25.384,113.046   c-3.574,14.893-32.376,27.55-79.021,34.725c-16.272,2.503-22.963,11.378-22.375,19.062c0.547,7.154,6.894,12.15,15.435,12.15   c14.121,0,29.526,6.256,29.678,6.318c0.353,0.146,0.725,0.243,1.104,0.289c3.77,0.459,7.523,0.693,11.156,0.693   c13.706,0,24.451-3.284,33.932-6.182c8.073-2.467,15.698-4.798,24.093-4.798c5.042,0,10.077,0.827,15.392,2.529   c5.877,1.882,12.686,2.836,20.236,2.836c9.461,0,16.727-1.506,17.032-1.571c0.146-0.031,0.29-0.069,0.433-0.115   c8.851-2.863,14.923-7.746,18.05-14.512c6.315-13.666-0.942-31.214-6.242-44.027c-1.263-3.053-2.354-5.69-3.091-7.868   c-15.559-45.919-12.761-71.887-8.526-111.193c0.958-8.891,1.948-18.084,2.821-28.379c4.835-57.054-11.832-74.341-29.317-87.157   c-0.683-0.5-0.682-0.808-0.682-1.079c0.003-3.329,6.409-10.516,14.902-16.719C311.873,131.33,347.75,87.826,367.417,58.95   c21.427-31.461,28.692-52.453,28.991-53.331C396.849,4.321,396.638,2.89,395.84,1.776z M247.622,167.731   c-5.526,4.037-18.381,14.415-18.389,23.576c-0.002,3.2,1.435,5.946,4.157,7.941c8.141,5.967,15.766,12.736,20.769,24.695H223   c-2.347,0-4.25,1.903-4.25,4.25c0,2.347,1.903,4.25,4.25,4.25h33.997c0.762,2.906,1.4,6.057,1.894,9.499h-7.393   c-2.347,0-4.25,1.903-4.25,4.25c0,2.347,1.903,4.25,4.25,4.25h8.269c0.54,8.035,0.43,17.38-0.503,28.39   c-0.864,10.198-1.85,19.343-2.802,28.186c-3.693,34.287-6.479,60.21,3.902,98.416h-19.364c-2.347,0-4.25,1.903-4.25,4.25   c0,2.347,1.903,4.25,4.25,4.25h21.832c0.795,2.582,1.641,5.213,2.557,7.916c0.828,2.442,2.023,5.331,3.287,8.39   c4.699,11.362,11.135,26.923,6.38,37.213c-2.096,4.536-6.258,7.781-12.721,9.915c-1.191,0.23-7.386,1.348-15.078,1.348   c-6.67,0-12.606-0.818-17.645-2.431c-6.165-1.975-12.048-2.934-17.983-2.934c-9.665,0-17.88,2.511-26.577,5.169   c-9.347,2.856-19.012,5.81-31.447,5.811c-3.117,0-6.338-0.19-9.584-0.566c-3.09-1.212-17.952-6.734-32.354-6.734   c-3.966,0-6.763-1.727-6.96-4.298c-0.233-3.049,3.621-8.232,15.193-10.013c36.057-5.547,80.245-17.188,85.995-41.143   c6.524-27.183-9.065-78.963-25.829-118.358c-13.543-31.827-13.872-55.111-14.049-67.619c-0.081-5.73-0.122-8.607-1.416-10.711   c-1.26-2.047-2.636-4.093-4.094-6.259c-7.473-11.109-15.944-23.701-15.193-45.424c0.32-9.302,8.961-41.422,28.339-76.944   c5.672-10.399,12.785-22.005,21.366-33.526h42.394c2.347,0,4.25-1.903,4.25-4.25c0-2.347-1.903-4.25-4.25-4.25h-35.769   c5.205-6.371,10.879-12.609,17.022-18.5h106.747c2.347,0,4.25-1.903,4.25-4.25s-1.903-4.25-4.25-4.25h-97.229   c8.708-7.22,18.234-13.643,28.614-18.736h100.836c-3.874,8.638-12.55,26.12-27.943,48.263   c-28.018,40.302-66.197,78.674-110.413,110.968c-1.896,1.384-2.31,4.044-0.925,5.939c0.833,1.139,2.125,1.744,3.436,1.744   c0.87,0,1.747-0.266,2.503-0.818C323.903,101.84,359.782,25.616,366.91,8.5h19.197C377.496,28.489,342.27,98.602,247.622,167.731z" fill="#f0bc62"/>
	<path d="M198.773,303.219c-5.726-13.457-9.73-27.032-11.904-40.351c-0.378-2.317-2.559-3.89-4.879-3.51   c-2.316,0.378-3.888,2.562-3.51,4.879c2.283,13.991,6.479,28.226,12.471,42.31c6.827,16.043,12.785,32.511,17.231,47.626   c0.545,1.852,2.238,3.052,4.075,3.052c0.397,0,0.801-0.056,1.201-0.174c2.252-0.662,3.54-3.024,2.878-5.276   C211.8,336.35,205.727,319.56,198.773,303.219z" fill="#f0bc62"/>
</g>
<g>
</g>
<g>
</g>
<g>
</g>
<g>
</g>
<g>
</g>
<g>
</g>
<g>
</g>
<g>
</g>
<g>
</g>
<g>
</g>
<g>
</g>
<g>
</g>
<g>
</g>
<g>
</g>
<g>
</g>
</svg>
