<?xml version="1.0" encoding="iso-8859-1"?>
<!-- Generator: Adobe Illustrator 18.0.0, SVG Export Plug-In . SVG Version: 6.00 Build 0)  -->
<!DOCTYPE svg PUBLIC "-//W3C//DTD SVG 1.1//EN" "http://www.w3.org/Graphics/SVG/1.1/DTD/svg11.dtd">
<svg version="1.1" id="Capa_1" xmlns="http://www.w3.org/2000/svg" xmlns:xlink="http://www.w3.org/1999/xlink" x="0px" y="0px"
	 viewBox="0 0 488.858 488.858" style="enable-background:new 0 0 488.858 488.858;" xml:space="preserve">
<g>
	<path d="M278.102,305.439c-27.025-16.043-45.46-26.982-64.954-66.82c-19.591-40.034-7.659-196.008-7.536-197.579
		c0.093-1.181-0.313-2.347-1.117-3.217c-0.804-0.87-1.936-1.364-3.12-1.364H4.25c-1.415,0-2.737,0.704-3.527,1.878
		c-0.789,1.174-0.942,2.665-0.409,3.975C7.09,58.945,17.048,79.177,27.59,100.596c20.297,41.239,43.303,87.98,54.765,130.393
		c17.732,65.609,5.441,120.223-3.463,146.938c-5.12,15.358-2.508,32.934,6.816,45.87c7.04,9.768,21.073,21.412,47.94,21.411
		c9.396,0,19.758-1.47,30.795-4.367c21.248-5.578,48.753-8.406,81.751-8.406c60.488,0,122.757,9.562,147.651,16.351
		c8.917,2.432,16.715,3.614,23.837,3.614c12.396,0,21.107-3.659,29.533-7.198c6.431-2.701,13.081-5.495,21.808-6.93
		c13.147-2.163,20.507-15.385,19.786-26.396c-0.612-9.357-6.975-19.54-22.991-20.056l-2.105-0.068
		c-25.554-0.817-34.161-1.092-61.889-12.015c-19.823-7.809-57.837-32.308-88.381-51.994
		C299.487,318.748,286.854,310.635,278.102,305.439z M273.763,312.748c8.618,5.116,21.19,13.19,35.076,22.139
		c23.61,15.217,51.629,33.271,72.723,44.553h-35.113c-2.348,0-4.25,1.903-4.25,4.25c0,2.347,1.902,4.25,4.25,4.25h53.021
		c28.501,11.166,38.272,11.484,63.974,12.307l2.102,0.067c6.695,0.216,11.4,2.764,13.533,7.162h-33.893
		c-2.348,0-4.25,1.903-4.25,4.25s1.902,4.25,4.25,4.25h34.972c-0.95,6.353-5.4,12.738-12.513,13.907
		c-9.715,1.598-16.835,4.588-23.72,7.481c-8.349,3.506-15.558,6.535-26.241,6.535c-6.356,0-13.422-1.084-21.601-3.315
		c-25.351-6.914-88.614-16.651-149.888-16.651c-33.726,0-61.957,2.922-83.909,8.684c-10.333,2.713-19.969,4.088-28.638,4.089
		c-18.419,0.001-32.612-6.182-41.045-17.881c-7.754-10.758-9.918-25.4-5.647-38.211c1.539-4.618,3.175-10.059,4.748-16.207h72.744
		c2.348,0,4.25-1.903,4.25-4.25c0-2.347-1.902-4.25-4.25-4.25H93.724c1.329-6.05,2.547-12.65,3.547-19.742h40.939
		c2.347,0,4.25-1.903,4.25-4.25c0-2.347-1.903-4.25-4.25-4.25H98.329c2.987-27.563,2.338-61.501-7.769-98.896
		c-11.6-42.919-34.564-89.709-54.932-131.09h57.516c2.348,0,4.25-1.903,4.25-4.25s-1.902-4.25-4.25-4.25H31.448
		c-7.853-15.987-15.183-31.108-20.812-44.222h186.162c-0.246,3.464-0.599,8.687-0.983,15.22h-47.225c-2.347,0-4.25,1.903-4.25,4.25
		c0,2.347,1.903,4.25,4.25,4.25h46.748c-2.547,47.825-5.289,142.078,10.174,173.677
		C226.122,284.472,245.425,295.925,273.763,312.748z"/>
	<path d="M111.286,233.983c2.266-0.613,3.607-2.946,2.994-5.212c-9.801-36.264-27.699-75.268-45.582-112.016
		c-1.027-2.11-3.568-2.988-5.682-1.961c-2.11,1.027-2.988,3.57-1.962,5.681c17.7,36.371,35.404,74.934,45.019,110.514
		c0.513,1.895,2.228,3.142,4.101,3.142C110.542,234.131,110.915,234.083,111.286,233.983z"/>
	<path d="M113.099,241.593c-2.299,0.474-3.778,2.722-3.305,5.021c2.354,11.425,3.95,23.082,4.744,34.649
		c0.154,2.243,2.02,3.959,4.235,3.959c0.098,0,0.196-0.003,0.296-0.01c2.342-0.161,4.109-2.189,3.949-4.531
		c-0.82-11.946-2.469-23.985-4.9-35.783C117.646,242.6,115.401,241.12,113.099,241.593z"/>
	<path d="M162.285,414.294c-21.194,5.564-38.052,3.095-47.466-6.952c-8.17-8.719-8.99-21.13-6.18-29.562
		c0.742-2.227-0.461-4.634-2.688-5.376c-2.23-0.744-4.634,0.461-5.376,2.687c-4.403,13.21-1.247,28.15,8.04,38.062
		c4.971,5.304,15.085,12.557,33.209,12.557c6.474,0,13.97-0.925,22.618-3.195c2.271-0.596,3.627-2.919,3.031-5.19
		S164.556,413.7,162.285,414.294z"/>
	<path d="M168.06,89.181h-41.269c-2.347,0-4.25,1.903-4.25,4.25s1.903,4.25,4.25,4.25h41.269c2.348,0,4.25-1.903,4.25-4.25
		S170.407,89.181,168.06,89.181z"/>
</g>
<g>
</g>
<g>
</g>
<g>
</g>
<g>
</g>
<g>
</g>
<g>
</g>
<g>
</g>
<g>
</g>
<g>
</g>
<g>
</g>
<g>
</g>
<g>
</g>
<g>
</g>
<g>
</g>
<g>
</g>
</svg>
