<?xml version="1.0" encoding="iso-8859-1"?>
<!-- Generator: Adobe Illustrator 18.0.0, SVG Export Plug-In . SVG Version: 6.00 Build 0)  -->
<!DOCTYPE svg PUBLIC "-//W3C//DTD SVG 1.1//EN" "http://www.w3.org/Graphics/SVG/1.1/DTD/svg11.dtd">
<svg xmlns="http://www.w3.org/2000/svg" xmlns:xlink="http://www.w3.org/1999/xlink" version="1.1" id="Capa_1" x="0px" y="0px" viewBox="0 0 493.557 493.557" style="enable-background:new 0 0 493.557 493.557;" xml:space="preserve" width="512px" height="512px">
<g>
	<path d="M489.049,371.847c-109.773,6.677-172.305-5.105-205.432-16.164c-35.736-11.931-45.725-25.556-45.799-25.658   c-0.747-1.095-1.961-1.779-3.284-1.851c-1.319-0.069-2.603,0.479-3.463,1.488c-28.515,33.472-95.754,22.189-108.942,19.587   c-51.694-10.198-80.171-28.832-95.674-47.767l40.252-3.255c2.339-0.189,4.082-2.239,3.894-4.579   c-0.19-2.339-2.247-4.076-4.579-3.893l-45.411,3.672c-4.164-6.528-6.95-12.956-8.777-18.942c-0.437-1.431-0.812-2.863-1.159-4.297   H120.72c2.347,0,4.25-1.902,4.25-4.25c0-2.347-1.903-4.25-4.25-4.25H9.105c-1.555-12.318-0.108-24.491,3.26-35.635   c5.481,2.247,23.183,9.083,47.737,14.357c15.748,3.382,36.118,6.44,58.316,6.439c15.833,0,32.599-1.556,49.267-5.659   c16.122-3.968,26.83-11.56,31.829-22.564c5.407-11.903,2.584-24.602,0.131-31.689c5.26-0.115,10.692-0.299,16.326-0.569   c5.31-0.256,10.679-0.622,16.087-1.079v39.863c0,2.348,1.903,4.25,4.25,4.25c2.347,0,4.25-1.902,4.25-4.25v-40.656   c9.426-0.958,18.951-2.185,28.5-3.638v37.594c0,2.347,1.903,4.25,4.25,4.25c2.347,0,4.25-1.903,4.25-4.25v-38.945   c104.928-17.337,209.757-59.569,211.012-60.078c2.175-0.884,3.221-3.362,2.338-5.537s-3.364-3.222-5.537-2.338   c-1.49,0.604-150.372,60.582-269.808,66.324c-54.295,2.61-90.621-2.597-117.144-6.398c-32.396-4.645-51.949-7.446-70.131,10.805   c-19.717,19.793-35.82,57.866-24.581,94.684c8.533,27.953,35.72,64.631,116.78,80.622c18.999,3.748,81.751,13.065,113.768-18.855   c11.702,11.459,56.69,43.588,193.19,43.587c18.9,0,39.56-0.616,62.123-1.988c2.343-0.143,4.127-2.157,3.984-4.5   C493.407,373.487,491.376,371.698,489.049,371.847z M34.309,188.281c15.173-15.232,31.125-12.945,62.903-8.391   c22.511,3.227,51.999,7.45,93.391,7.176c1.917,4.595,6.156,17.072,1.172,28.044c-3.867,8.514-12.656,14.511-26.121,17.825   c-68.697,16.91-140.496-10.839-150.463-14.919C19.976,206.099,26.857,195.761,34.309,188.281z" fill="#f0bc62"/>
	<path d="M490.907,142.234c-0.883-2.175-3.364-3.223-5.537-2.338c-0.661,0.269-67.011,27.076-146.056,46.516   c-2.279,0.56-3.672,2.863-3.112,5.143c0.477,1.938,2.213,3.235,4.124,3.235c0.336,0,0.678-0.04,1.019-0.124   c79.637-19.585,146.559-46.624,147.225-46.895C490.744,146.888,491.79,144.409,490.907,142.234z" fill="#f0bc62"/>
	<path d="M401.395,333.204c-2.34-0.086-4.329,1.718-4.43,4.063c-0.101,2.346,1.718,4.328,4.063,4.43   c10.278,0.444,20.932,0.666,31.919,0.666c18.043,0,36.983-0.598,56.618-1.792c2.343-0.143,4.127-2.157,3.984-4.5   c-0.143-2.344-2.173-4.128-4.5-3.984C457.75,333.989,428.258,334.365,401.395,333.204z" fill="#f0bc62"/>
</g>
<g>
</g>
<g>
</g>
<g>
</g>
<g>
</g>
<g>
</g>
<g>
</g>
<g>
</g>
<g>
</g>
<g>
</g>
<g>
</g>
<g>
</g>
<g>
</g>
<g>
</g>
<g>
</g>
<g>
</g>
</svg>
