<?xml version="1.0" encoding="iso-8859-1"?>
<!-- Generator: Adobe Illustrator 18.0.0, SVG Export Plug-In . SVG Version: 6.00 Build 0)  -->
<!DOCTYPE svg PUBLIC "-//W3C//DTD SVG 1.1//EN" "http://www.w3.org/Graphics/SVG/1.1/DTD/svg11.dtd">
<svg version="1.1" id="Capa_1" xmlns="http://www.w3.org/2000/svg" xmlns:xlink="http://www.w3.org/1999/xlink" x="0px" y="0px"
	 viewBox="0 0 493.319 493.319" style="enable-background:new 0 0 493.319 493.319;" xml:space="preserve">
<g>
	<path d="M235.998,4.886c-2.325-0.352-4.489,1.238-4.844,3.558c-0.471,3.075-11.527,75.427-11.527,85.581
		c0,8.423-6.742,25.655-9.181,28.091c-2.236,2.233-1.882,4.614-0.169,11.983c4.147,17.841,15.015,64.686-1.508,121.191
		c-3.459,8.585-12.551,25.688-32.905,36.544c-2.071,1.104-2.855,3.679-1.75,5.75c0.765,1.434,2.234,2.251,3.754,2.251
		c0.674,0,1.359-0.161,1.996-0.501c8.906-4.75,15.808-10.538,21.137-16.42c-17.226,68.189-21.875,141.211-21.926,142.029
		c-0.081,1.333,0.479,2.636,1.494,3.503c0.125,0.107,12.506,10.862,9.317,24.894c-0.201,0.882-0.115,1.805,0.246,2.635
		c1.725,3.973,5.917,16.717,2.657,22.948c-0.978,1.87-2.588,2.971-5.068,3.467c-8.006,1.601-29.291,2.913-49.72,2.241
		c-29.005-0.955-37.612-5.207-38.533-6.811c-1.084-5.274,1.414-11.026,4.057-17.114c3.451-7.947,7.361-16.955,3.368-26.438
		c-5.401-12.827-0.696-27.477-0.65-27.615c0.206-0.616,0.267-1.271,0.18-1.914c-0.036-0.262-1.083-7.981-2.806-20.237h24.843
		c2.347,0,4.25-1.903,4.25-4.25c0-2.347-1.903-4.25-4.25-4.25h-26.045c-3.582-25.215-9.111-63.011-14.682-96.747
		c5.93,8.63,14.363,18.212,26.26,27.072c0.763,0.568,1.652,0.842,2.535,0.842c1.297,0,2.578-0.592,3.412-1.712
		c1.402-1.883,1.012-4.545-0.87-5.947c-24.831-18.491-33.73-40.584-35.982-47.352c-2.421-14.217-2.759-26.94-1.762-38.655h15.134
		c2.347,0,4.25-1.903,4.25-4.25c0-2.347-1.903-4.25-4.25-4.25H82.294c0.713-4.993,1.649-9.813,2.747-14.5h36.418
		c2.347,0,4.25-1.903,4.25-4.25c0-2.347-1.903-4.25-4.25-4.25H87.225c2.402-8.613,5.225-16.855,8.022-25.01
		c4.122-12.017,8.016-23.368,10.368-35.366c4.614-23.529-0.696-59.871-5.936-86.124h50.779c2.347,0,4.25-1.903,4.25-4.25
		c0-2.347-1.903-4.25-4.25-4.25H97.915c-2.891-13.427-5.395-22.778-5.687-23.86c-0.612-2.266-2.947-3.608-5.212-2.993
		c-2.266,0.613-3.606,2.946-2.993,5.212C84.23,6.127,104.646,82.39,97.274,119.99c-2.241,11.427-6.043,22.51-10.067,34.244
		c-9.339,27.225-19.924,58.082-12.231,100.941c10.003,55.732,21.575,140.078,22.898,149.789c-1.131,3.96-4.649,18.749,1.184,32.602
		c2.583,6.134-0.158,12.446-3.331,19.754c-3.069,7.069-6.243,14.379-4.562,22.327c1.162,5.494,7.316,11.985,44.904,13.42
		c4.514,0.172,9.05,0.251,13.488,0.251c17.062-0.001,32.659-1.159,39.83-2.593c4.984-0.997,8.765-3.716,10.934-7.863
		c5.047-9.649-0.036-24.368-1.869-29.003c2.709-15.005-6.791-26.372-10.758-30.369c0.98-13.673,7.545-95.538,28.233-162.431
		c18.605-60.157,6.999-110.088,2.629-128.885c-0.465-2.003-0.943-4.057-1.17-5.282c4.434-6.323,10.741-23.846,10.741-32.867
		c0-7.896,8.25-63.526,11.429-84.295C239.911,7.41,238.318,5.242,235.998,4.886z"/>
	<path d="M139.469,108.266c0,2.347,1.903,4.25,4.25,4.25h26.004c2.347,0,4.25-1.903,4.25-4.25s-1.903-4.25-4.25-4.25h-26.004
		C141.372,104.016,139.469,105.919,139.469,108.266z"/>
	<path d="M137.147,84.23c-0.399-2.313-2.592-3.861-4.909-3.466c-2.313,0.398-3.865,2.596-3.468,4.909
		c0.043,0.25,4.239,25.205-0.761,41.04c-0.707,2.238,0.535,4.625,2.773,5.333c0.426,0.134,0.857,0.198,1.281,0.198
		c1.805,0,3.48-1.159,4.052-2.971C141.741,111.456,137.338,85.334,137.147,84.23z"/>
	<path d="M183.177,146.591c0.688,0,1.385-0.167,2.031-0.52c2.061-1.124,2.82-3.706,1.696-5.766
		c-9.831-18.023,0.284-58.379,0.387-58.785c0.58-2.274-0.794-4.588-3.068-5.168c-2.277-0.582-4.588,0.792-5.168,3.066
		c-0.457,1.787-11.042,44.004,0.387,64.957C180.214,145.789,181.672,146.591,183.177,146.591z"/>
	<path d="M154.526,404.509c-2.288-0.521-4.565,0.911-5.086,3.199c-0.589,2.583-5.577,25.538,0.463,36
		c0.787,1.363,2.216,2.125,3.685,2.125c0.721,0,1.452-0.184,2.121-0.57c2.033-1.173,2.729-3.772,1.556-5.806
		c-3.304-5.724-1.469-21.354,0.463-29.863C158.247,407.307,156.814,405.03,154.526,404.509z"/>
	<path d="M129.066,445.263c0.669,0.386,1.4,0.57,2.121,0.57c1.469,0,2.897-0.762,3.685-2.125c6.039-10.462,1.052-33.417,0.463-36
		c-0.521-2.289-2.799-3.722-5.088-3.199c-2.289,0.521-3.721,2.799-3.199,5.088c1.937,8.5,3.775,24.124,0.463,29.861
		C126.337,441.491,127.033,444.09,129.066,445.263z"/>
	<path d="M406.112,154.234c-4.025-11.734-7.827-22.817-10.067-34.244C388.672,82.39,409.089,6.127,409.296,5.361
		c0.613-2.266-0.728-4.599-2.993-5.212c-2.264-0.613-4.599,0.727-5.212,2.993c-0.393,1.451-4.762,17.767-8.708,38.86h-31.925
		c-2.347,0-4.25,1.903-4.25,4.25c0,2.347,1.903,4.25,4.25,4.25h30.409c-4.054,23.903-6.947,51.824-3.163,71.124
		c2.352,11.998,6.246,23.349,10.368,35.366c4.682,13.647,9.439,27.527,12.16,43.01h-49.774c-2.347,0-4.25,1.903-4.25,4.25
		c0,2.347,1.903,4.25,4.25,4.25h51.026c1.49,12.498,1.528,26.108-0.887,41.479c-1.002,3.441-9.222,28.834-37.012,49.528
		c-1.882,1.402-2.272,4.065-0.87,5.947c0.835,1.12,2.115,1.712,3.412,1.712c0.882,0,1.772-0.274,2.535-0.842
		c12.501-9.31,21.175-19.415,27.14-28.377c-4.13,24.927-8.25,52.202-11.586,75.052h-9.759c-2.347,0-4.25,1.903-4.25,4.25
		c0,2.347,1.903,4.25,4.25,4.25h8.524c-3.604,24.942-6.031,42.835-6.085,43.237c-0.086,0.638-0.024,1.294,0.177,1.906
		c0.048,0.147,4.753,14.796-0.647,27.623c-3.993,9.484-0.082,18.491,3.368,26.438c2.643,6.088,5.141,11.84,4.057,17.114
		c-0.921,1.604-9.527,5.856-38.533,6.811c-20.43,0.672-41.714-0.64-49.72-2.241c-2.477-0.496-4.087-1.595-5.065-3.461
		c-3.249-6.199,0.934-18.972,2.654-22.954c0.36-0.83,0.446-1.753,0.246-2.635c-3.189-14.032,9.191-24.787,9.307-24.885
		c1.029-0.867,1.586-2.169,1.504-3.511c-0.05-0.814-4.659-73.182-21.694-141.105c5.177,5.557,11.79,10.99,20.241,15.497
		c0.637,0.34,1.322,0.501,1.996,0.501c1.52,0,2.989-0.817,3.754-2.251c1.104-2.071,0.321-4.646-1.75-5.75
		c-20.915-11.154-29.503-29.102-32.495-37.403c-16.165-56.121-5.381-102.581-1.255-120.332c1.713-7.369,2.338-10.06-0.169-11.983
		c-2.102-2.733-9.181-19.668-9.181-28.091c0-10.155-11.056-82.506-11.527-85.581c-0.355-2.32-2.527-3.91-4.844-3.558
		c-2.32,0.356-3.913,2.524-3.558,4.844c3.179,20.769,11.429,76.399,11.429,84.295c0,9.021,6.307,26.545,10.741,32.867
		c-0.227,1.225-0.705,3.279-1.17,5.282c-4.37,18.797-15.976,68.728,2.629,128.885c20.688,66.894,27.253,148.758,28.233,162.431
		c-3.967,3.996-13.467,15.363-10.758,30.369c-1.833,4.635-6.916,19.353-1.869,29.003c2.169,4.147,5.95,6.867,10.934,7.863
		c7.171,1.434,22.767,2.593,39.83,2.593c4.436-0.001,8.976-0.079,13.488-0.251c37.588-1.435,43.742-7.926,44.904-13.42
		c1.681-7.948-1.493-15.258-4.562-22.327c-3.173-7.309-5.914-13.621-3.331-19.754c5.833-13.853,2.315-28.642,1.184-32.602
		c1.324-9.71,12.895-94.054,22.898-149.789C426.036,212.316,415.451,181.459,406.112,154.234z"/>
	<path d="M323.596,112.516H349.6c2.347,0,4.25-1.903,4.25-4.25s-1.903-4.25-4.25-4.25h-26.004c-2.347,0-4.25,1.903-4.25,4.25
		S321.249,112.516,323.596,112.516z"/>
	<path d="M361.256,132.244c0.424,0,0.855-0.064,1.281-0.198c2.238-0.707,3.48-3.094,2.773-5.333
		c-5.001-15.835-0.804-40.79-0.761-41.04c0.397-2.313-1.155-4.511-3.468-4.909c-2.318-0.399-4.51,1.153-4.909,3.466
		c-0.19,1.104-4.594,27.226,1.032,45.042C357.776,131.085,359.45,132.244,361.256,132.244z"/>
	<path d="M306.415,140.304c-1.124,2.061-0.365,4.642,1.696,5.766c0.647,0.353,1.344,0.52,2.031,0.52
		c1.505,0,2.963-0.802,3.735-2.216c11.429-20.953,0.843-63.17,0.387-64.957c-0.58-2.273-2.892-3.646-5.168-3.066
		c-2.274,0.58-3.648,2.894-3.068,5.168C306.131,81.925,316.246,122.281,306.415,140.304z"/>
	<path d="M337.611,445.263c0.669,0.386,1.4,0.57,2.121,0.57c1.469,0,2.897-0.762,3.685-2.125c6.039-10.462,1.052-33.417,0.463-36
		c-0.521-2.289-2.801-3.722-5.088-3.199c-2.289,0.521-3.721,2.799-3.199,5.088c1.937,8.5,3.775,24.124,0.463,29.861
		C334.882,441.491,335.578,444.09,337.611,445.263z"/>
	<path d="M363.07,404.509c-2.292-0.521-4.565,0.911-5.086,3.199c-0.589,2.583-5.577,25.538,0.463,36
		c0.787,1.363,2.216,2.125,3.684,2.125c0.721,0,1.452-0.184,2.121-0.57c2.033-1.173,2.729-3.772,1.556-5.806
		c-3.304-5.724-1.469-21.354,0.463-29.863C366.792,407.307,365.359,405.03,363.07,404.509z"/>
</g>
<g>
</g>
<g>
</g>
<g>
</g>
<g>
</g>
<g>
</g>
<g>
</g>
<g>
</g>
<g>
</g>
<g>
</g>
<g>
</g>
<g>
</g>
<g>
</g>
<g>
</g>
<g>
</g>
<g>
</g>
</svg>
