<?xml version="1.0" encoding="iso-8859-1"?>
<!-- Generator: Adobe Illustrator 18.0.0, SVG Export Plug-In . SVG Version: 6.00 Build 0)  -->
<!DOCTYPE svg PUBLIC "-//W3C//DTD SVG 1.1//EN" "http://www.w3.org/Graphics/SVG/1.1/DTD/svg11.dtd">
<svg xmlns="http://www.w3.org/2000/svg" xmlns:xlink="http://www.w3.org/1999/xlink" version="1.1" id="Capa_1" x="0px" y="0px" viewBox="0 0 462.501 462.501" style="enable-background:new 0 0 462.501 462.501;" xml:space="preserve" width="512px" height="512px">
<g>
	<path d="M444.018,213.894c-8.593-38.163-25.336-65.811-49.765-82.175C314.37,78.205,215.89,45.252,147.342,27.031   C73.136,7.306,16.978,0.104,16.419,0.033c-2.333-0.29-4.455,1.356-4.748,3.685c-0.294,2.329,1.355,4.455,3.684,4.749   c0.554,0.07,56.253,7.22,129.934,26.814C196.276,48.84,263.957,70.614,327.911,103h-22.023c-2.347,0-4.25,1.903-4.25,4.25   s1.903,4.25,4.25,4.25h38c0.073,0,0.14-0.018,0.212-0.021c15.574,8.433,30.818,17.519,45.423,27.302   c6.221,4.167,11.905,9.159,17.05,14.952H335.6c-2.347,0-4.25,1.903-4.25,4.25c0,2.347,1.903,4.25,4.25,4.25h77.726   c3.375,4.745,6.459,9.916,9.253,15.498h-60.98c-2.347,0-4.25,1.903-4.25,4.25c0,2.347,1.903,4.25,4.25,4.25h64.874   c3.733,8.917,6.821,18.743,9.24,29.472c6.588,29.218,8.294,65.037,5.073,106.463c-5.512,70.878-23.794,134.264-23.979,134.895   c-0.656,2.253,0.639,4.612,2.892,5.269c0.397,0.116,0.797,0.171,1.19,0.171c1.841,0,3.538-1.206,4.079-3.062   c0.186-0.639,18.687-64.751,24.282-136.483C452.548,280.655,450.788,243.962,444.018,213.894z" fill="#E36352"/>
	<path d="M258.134,300.007c-84.706-4.925-239.835-36.601-241.393-36.921c-2.3-0.472-4.546,1.01-5.017,3.31   c-0.472,2.299,1.01,4.546,3.309,5.017c1.53,0.314,150.843,30.802,237.166,36.734c-3.438,13.205-9.983,52.423-4.555,149.341   c0.127,2.263,2.001,4.012,4.239,4.012c0.08,0,0.161-0.002,0.242-0.007c2.343-0.131,4.137-2.137,4.005-4.481   c-6.789-121.248,5.504-150.728,5.612-150.973c0.592-1.276,0.515-2.763-0.208-3.971   C260.812,300.861,259.539,300.089,258.134,300.007z" fill="#E36352"/>
	<path d="M13.939,220.027c63.985,32.992,229.512,49.754,236.527,50.452c0.143,0.014,0.285,0.022,0.425,0.022   c2.158,0,4.006-1.637,4.224-3.83c0.232-2.335-1.473-4.418-3.809-4.649c-1.702-0.169-170.927-17.298-233.473-49.548   c-2.086-1.075-4.649-0.256-5.725,1.83C11.034,216.389,11.854,218.952,13.939,220.027z" fill="#E36352"/>
	<path d="M428.861,303.828c1.782-1.528,1.988-4.211,0.461-5.993c-1.528-1.782-4.21-1.987-5.993-0.461   c-0.192,0.165-19.768,16.318-66.498,2.159c-2.247-0.683-4.62,0.588-5.3,2.835c-0.681,2.246,0.588,4.619,2.835,5.3   c14.979,4.539,27.495,6.158,37.728,6.158c10.351,0,18.357-1.657,24.227-3.623c-4.838,73.663-22.066,146.317-22.243,147.059   c-0.546,2.283,0.862,4.576,3.145,5.122c0.332,0.08,0.665,0.118,0.992,0.118c1.921,0,3.663-1.311,4.13-3.262   c0.183-0.764,18.262-76.984,22.733-152.878C427.42,305.028,428.658,304.002,428.861,303.828z" fill="#E36352"/>
	<path d="M285.853,333.731c-2.343,0.138-4.131,2.149-3.993,4.492c0.03,0.508,2.931,51.539-1.497,117.962   c-0.156,2.342,1.616,4.367,3.958,4.523c0.096,0.006,0.192,0.009,0.287,0.009c2.218,0,4.086-1.722,4.236-3.967   c4.466-66.988,1.532-118.514,1.501-119.026C290.207,335.381,288.195,333.603,285.853,333.731z" fill="#E36352"/>
	<path d="M15.469,36.189c0.97,0.149,98.173,15.417,196.998,56.718c0.536,0.224,1.09,0.33,1.637,0.33   c1.663,0,3.242-0.982,3.923-2.612c0.905-2.166-0.117-4.655-2.283-5.56C115.925,43.349,17.742,27.939,16.762,27.788   c-2.32-0.359-4.49,1.235-4.846,3.554C11.558,33.662,13.149,35.832,15.469,36.189z" fill="#E36352"/>
</g>
<g>
</g>
<g>
</g>
<g>
</g>
<g>
</g>
<g>
</g>
<g>
</g>
<g>
</g>
<g>
</g>
<g>
</g>
<g>
</g>
<g>
</g>
<g>
</g>
<g>
</g>
<g>
</g>
<g>
</g>
</svg>
