<?xml version="1.0" encoding="iso-8859-1"?>
<!-- Generator: Adobe Illustrator 19.0.0, SVG Export Plug-In . SVG Version: 6.00 Build 0)  -->
<svg version="1.1" id="Layer_1" xmlns="http://www.w3.org/2000/svg" xmlns:xlink="http://www.w3.org/1999/xlink" x="0px" y="0px"
	 viewBox="0 0 460.012 460.012" style="enable-background:new 0 0 460.012 460.012;" xml:space="preserve">
<ellipse style="fill:#B8CBCD;" cx="230.006" cy="412.76" rx="190.668" ry="47.252"/>
<polyline style="fill:#F7BB83;" points="303.326,68 371.326,68 371.326,420 87.326,420 87.326,68 155.326,68 "/>
<path style="fill:#6E4123;" d="M371.326,432h-284c-6.628,0-12-5.372-12-12V68c0-6.628,5.372-12,12-12h68c6.628,0,12,5.372,12,12
	s-5.372,12-12,12h-56v328h260V80h-56c-6.628,0-12-5.372-12-12s5.372-12,12-12h68c6.628,0,12,5.372,12,12v352
	C383.326,426.628,377.95,432,371.326,432z"/>
<polygon style="fill:#FFFFFF;" points="253.854,384 123.326,384 123.326,100 335.326,100 335.326,307.956 "/>
<path style="fill:#6E4123;" d="M253.854,392H123.326c-4.42,0-8-3.584-8-8V100c0-4.416,3.58-8,8-8h212c4.416,0,8,3.584,8,8v207.956
	c0,2.22-0.92,4.336-2.54,5.848l-81.472,76.044C257.83,391.232,255.878,392,253.854,392z M131.326,376h119.372l76.628-71.52V108h-196
	V376z"/>
<polyline style="fill:#FFFFFF;" points="251.326,376 251.326,300 327.326,300 "/>
<path style="fill:#6E4123;" d="M251.326,384c-4.42,0-8-3.584-8-8v-76c0-4.416,3.58-8,8-8h76c4.416,0,8,3.584,8,8s-3.584,8-8,8h-68
	v68C259.326,380.416,255.742,384,251.326,384z"/>
<polyline style="fill:#FFFFFF;" points="159.326,92 159.326,48 299.326,48 299.326,92 "/>
<g>
	<path style="fill:#6E4123;" d="M299.326,104c-6.628,0-12-5.372-12-12V60h-116v32c0,6.628-5.372,12-12,12s-12-5.372-12-12V48
		c0-6.628,5.372-12,12-12h140c6.628,0,12,5.372,12,12v44C311.326,98.628,305.95,104,299.326,104z"/>
	<path style="fill:#6E4123;" d="M295.734,108h-132.82c-4.416,0-8-3.584-8-8V64c0-4.416,3.584-8,8-8c4.42,0,8,3.584,8,8v28h116.82V64
		c0-4.416,3.584-8,8-8c4.42,0,8,3.584,8,8v36C303.734,104.416,300.154,108,295.734,108z"/>
	<path style="fill:#6E4123;" d="M263.326,58c-6.628,0-12-5.372-12-12c0-12.128-9.868-22-22-22s-22,9.872-22,22
		c0,6.628-5.372,12-12,12s-12-5.372-12-12c0-25.364,20.636-46,46-46s46,20.636,46,46C275.326,52.628,269.95,58,263.326,58z"/>
	<path style="fill:#6E4123;" d="M239.326,208c0,6.6-5.4,12-12,12l0,0c-6.6,0-12-5.4-12-12v-48c0-6.6,5.4-12,12-12l0,0
		c6.6,0,12,5.4,12,12V208z"/>
	<path style="fill:#6E4123;" d="M203.326,196c-6.6,0-12-5.4-12-12l0,0c0-6.6,5.4-12,12-12h48c6.6,0,12,5.4,12,12l0,0
		c0,6.6-5.4,12-12,12H203.326z"/>
</g>
<path style="fill:#6E4123;" d="M239.326,272h-76c-4.42,0-8-3.584-8-8s3.58-8,8-8h76c4.416,0,8,3.584,8,8S243.742,272,239.326,272z"
	/>
<path style="fill:#6E4123;" d="M291.326,272h-20c-4.42,0-8-3.584-8-8s3.58-8,8-8h20c4.416,0,8,3.584,8,8S295.742,272,291.326,272z"
	/>
<path style="fill:#6E4123;" d="M213.99,308h-50.664c-4.42,0-8-3.584-8-8s3.58-8,8-8h50.664c4.416,0,8,3.584,8,8
	S218.41,308,213.99,308z"/>
<g>
</g>
<g>
</g>
<g>
</g>
<g>
</g>
<g>
</g>
<g>
</g>
<g>
</g>
<g>
</g>
<g>
</g>
<g>
</g>
<g>
</g>
<g>
</g>
<g>
</g>
<g>
</g>
<g>
</g>
</svg>
