<?xml version="1.0" encoding="iso-8859-1"?>
<!-- Generator: Adobe Illustrator 19.0.0, SVG Export Plug-In . SVG Version: 6.00 Build 0)  -->
<svg version="1.1" id="Layer_1" xmlns="http://www.w3.org/2000/svg" xmlns:xlink="http://www.w3.org/1999/xlink" x="0px" y="0px"
	 viewBox="0 0 512 512" style="enable-background:new 0 0 512 512;" xml:space="preserve">
<rect x="82.54" y="33.8" style="fill:#6DA8D6;" width="346.916" height="468.001"/>
<rect x="118.473" y="70.599" style="fill:#E6E6E6;" width="275.052" height="392.2"/>
<rect x="209.573" y="10.199" style="fill:#FFCC75;" width="92.843" height="72.863"/>
<polygon style="fill:#F2484B;" points="259.079,349.796 229.426,349.796 229.426,320.144 191.231,320.144 191.231,349.796 
	161.579,349.796 161.579,387.992 191.231,387.992 191.231,417.643 229.426,417.643 229.426,387.992 259.079,387.992 "/>
<path d="M429.458,23.605H312.622V10.199C312.622,4.566,308.056,0,302.423,0h-92.847c-5.633,0-10.199,4.566-10.199,10.199v13.406
	H82.541c-5.633,0-10.199,4.566-10.199,10.199v467.997c0,5.633,4.566,10.199,10.199,10.199h346.919
	c5.633,0,10.199-4.566,10.199-10.199V33.804C439.658,28.171,435.091,23.605,429.458,23.605z M209.576,93.267h92.847
	c5.633,0,10.199-4.566,10.199-10.199v-2.269h70.703v371.804H128.674V80.798h70.703v2.269
	C199.377,88.7,203.943,93.267,209.576,93.267z M219.775,20.398h72.449v52.47h-72.449V20.398z M419.259,491.602H92.74V44.003h106.637
	V60.4h-80.902c-5.633,0-10.199,4.566-10.199,10.199v392.202c0,5.633,4.566,10.199,10.199,10.199h275.051
	c5.633,0,10.199-4.566,10.199-10.199V70.599c0-5.633-4.566-10.199-10.199-10.199h-80.902V44.003H419.26v447.598H419.259z"/>
<path d="M259.079,339.597h-19.452v-19.453c0-5.633-4.566-10.199-10.199-10.199h-38.196c-5.633,0-10.199,4.566-10.199,10.199v19.453
	h-19.453c-5.633,0-10.199,4.566-10.199,10.199v38.195c0,5.633,4.566,10.199,10.199,10.199h19.453v19.453
	c0,5.633,4.566,10.199,10.199,10.199h38.196c5.633,0,10.199-4.566,10.199-10.199V398.19h19.452c5.633,0,10.199-4.566,10.199-10.199
	v-38.195C269.278,344.163,264.712,339.597,259.079,339.597z M248.879,377.793h-19.452c-5.633,0-10.199,4.566-10.199,10.199v19.453
	h-17.798v-19.453c0-5.633-4.566-10.199-10.199-10.199h-19.453v-17.797h19.453c5.633,0,10.199-4.566,10.199-10.199v-19.453h17.798
	v19.453c0,5.633,4.566,10.199,10.199,10.199h19.452V377.793z"/>
<path d="M151.38,139.514c0,5.633,4.566,10.199,10.199,10.199h188.84c5.633,0,10.199-4.566,10.199-10.199
	s-4.566-10.199-10.199-10.199h-188.84C155.946,129.315,151.38,133.881,151.38,139.514z"/>
<path d="M350.42,193.973h-188.84c-5.633,0-10.199,4.566-10.199,10.199s4.566,10.199,10.199,10.199h188.84
	c5.633,0,10.199-4.566,10.199-10.199S356.053,193.973,350.42,193.973z"/>
<path d="M350.42,258.629h-188.84c-5.633,0-10.199,4.566-10.199,10.199c0,5.633,4.566,10.199,10.199,10.199h188.84
	c5.633,0,10.199-4.566,10.199-10.199C360.619,263.196,356.053,258.629,350.42,258.629z"/>
<path d="M350.42,407.444H319.63c-5.633,0-10.199,4.566-10.199,10.199s4.566,10.199,10.199,10.199h30.789
	c5.633,0,10.199-4.566,10.199-10.199S356.053,407.444,350.42,407.444z"/>
<path d="M286.789,407.444h-4.105c-5.633,0-10.199,4.566-10.199,10.199s4.566,10.199,10.199,10.199h4.105
	c5.633,0,10.199-4.566,10.199-10.199S292.422,407.444,286.789,407.444z"/>
<g>
</g>
<g>
</g>
<g>
</g>
<g>
</g>
<g>
</g>
<g>
</g>
<g>
</g>
<g>
</g>
<g>
</g>
<g>
</g>
<g>
</g>
<g>
</g>
<g>
</g>
<g>
</g>
<g>
</g>
</svg>
