<?xml version="1.0" encoding="UTF-8" standalone="no"?>
<!DOCTYPE svg PUBLIC "-//W3C//DTD SVG 1.1//EN" "http://www.w3.org/Graphics/SVG/1.1/DTD/svg11.dtd">
<svg width="100%" height="100%" viewBox="0 0 207 207" version="1.1" xmlns="http://www.w3.org/2000/svg" xmlns:xlink="http://www.w3.org/1999/xlink" xml:space="preserve" style="fill-rule:evenodd;clip-rule:evenodd;stroke-linejoin:round;stroke-miterlimit:1.41421;">
    <path d="M121.363,34.37C112.912,33.112 121.052,65.812 121.052,65.812C123.433,69.517 123.342,76.057 123.342,76.057C122.964,82.916 128.883,93.399 128.883,93.399C131.727,97.731 132.804,101.841 132.804,102.146C132.804,103.394 132.531,106.415 132.531,106.415L132.64,109.046C132.689,109.716 133.066,112.023 133.005,113.138C132.561,120 133.651,118.709 133.651,118.709C134.571,118.709 135.582,113.187 135.582,113.187C135.582,114.611 135.234,118.874 136.002,120.482C136.921,122.4 137.597,120.153 137.609,119.702C137.852,110.965 138.377,113.254 138.377,113.254C138.888,120.342 139.516,121.943 140.642,121.389C141.495,120.982 140.715,112.883 140.715,112.883C142.176,117.694 143.284,118.46 143.284,118.46C145.695,120.153 144.204,115.477 143.869,114.551C142.085,109.631 142.03,107.926 142.03,107.926C144.259,112.347 145.939,112.183 145.939,112.183C148.113,111.489 144.039,105.229 141.652,102.23C140.434,100.702 138.863,98.656 138.407,97.441C137.664,95.383 137.103,88.767 137.103,88.767C136.878,80.96 134.948,77.569 134.948,77.569C131.648,72.287 131.027,62.434 131.027,62.434L130.881,45.799C129.724,34.452 121.363,34.37 121.363,34.37Z" style="fill:rgb(225,225,225);fill-rule:nonzero;"/>
</svg>
