<?xml version="1.0" encoding="iso-8859-1"?>
<!-- Generator: Adobe Illustrator 18.0.0, SVG Export Plug-In . SVG Version: 6.00 Build 0)  -->
<!DOCTYPE svg PUBLIC "-//W3C//DTD SVG 1.1//EN" "http://www.w3.org/Graphics/SVG/1.1/DTD/svg11.dtd">
<svg version="1.1" id="Capa_1" xmlns="http://www.w3.org/2000/svg" xmlns:xlink="http://www.w3.org/1999/xlink" x="0px" y="0px"
	 viewBox="0 0 483.057 483.057" style="enable-background:new 0 0 483.057 483.057;" xml:space="preserve">
<g>
	<path d="M330.304,351.871c-0.005,1.863,1.502,3.378,3.365,3.383c0.003,0,0.006,0,0.009,0c1.859,0,3.369-1.506,3.374-3.366
		c0.044-18.06-10.171-36.828-28.027-51.492c-18.595-15.271-42.402-23.711-67.037-23.764c-0.002,0-0.005,0-0.007,0
		c-1.86,0-3.37,1.506-3.374,3.367c-0.004,1.863,1.503,3.377,3.367,3.381c23.082,0.05,45.374,7.944,62.768,22.23
		C321.026,318.983,330.343,335.846,330.304,351.871z"/>
	<path d="M78.556,118.002c0.108,2.275,1.987,4.048,4.242,4.048c0.068,0,0.137-0.001,0.205-0.005
		c2.345-0.111,4.155-2.102,4.043-4.446c-2.668-56.173-16.08-86.575-26.863-102.188c-1.333-1.932-3.98-2.418-5.912-1.082
		c-1.932,1.334-2.416,3.981-1.082,5.912C63.341,34.941,75.983,63.835,78.556,118.002z"/>
	<path d="M357.05,302.383c0.814,0,1.638-0.233,2.364-0.722c20.535-13.783,45.103-45.944,45.522-120.884
		c0.014-2.347-1.879-4.261-4.226-4.273c-0.009,0-0.017,0-0.024,0c-2.336,0-4.236,1.887-4.25,4.226
		c-0.398,71.22-22.929,101.235-41.76,113.874c-1.948,1.309-2.468,3.948-1.16,5.897C354.337,301.722,355.68,302.383,357.05,302.383z"
		/>
	<path d="M482.708,29.226c-0.931-2.154-3.433-3.146-5.587-2.217c-1.849,0.798-45.214,21.138-39.349,158.975
		c4.553,106.998-38.627,142.21-77.474,152.48c-1.124-5.27-2.901-10.523-5.29-15.686c7.615-1.48,21.237-5.98,34.293-19.677
		c24.05-25.229,34.91-68.827,32.277-129.583c-3.167-73.072,9.131-112.498,20.006-132.705c11.532-21.43,23.863-26.132,24.093-26.217
		c2.2-0.763,3.379-3.158,2.635-5.37c-0.747-2.225-3.158-3.418-5.383-2.673c-2.298,0.772-56.201,20.615-49.843,167.333
		c3.139,72.428-14.425,106.925-29.711,123.111c-13.397,14.187-27.543,17.2-32.567,17.837c-5.935-9.956-14.158-19.416-24.375-27.807
		c-23.424-19.237-53.413-29.868-84.443-29.935h-0.289c-30.973,0-60.936,10.529-84.369,29.649
		c-10.353,8.446-18.674,17.995-24.654,28.055c-5.342-0.714-19.498-3.899-32.87-18.055c-15.322-16.22-32.931-50.7-29.804-122.856
		C76.362,27.169,22.459,7.326,20.161,6.553c-2.211-0.742-4.583,0.44-5.349,2.64c-0.765,2.201,0.405,4.615,2.599,5.403
		c0.124,0.044,12.512,4.694,24.095,26.217C52.38,61.02,64.678,100.446,61.512,173.518c-2.623,60.533,8.267,104.044,32.366,129.324
		c13.126,13.77,26.852,18.359,34.621,19.892c-2.312,5.02-4.047,10.124-5.164,15.247c-32.976-9.926-82.657-42.952-78.017-151.997
		C51.183,48.147,7.818,27.807,5.97,27.009c-2.156-0.93-4.685,0.05-5.616,2.204c-0.93,2.155,0.033,4.644,2.188,5.574
		c0.098,0.046,9.941,4.842,19.068,25.528c8.549,19.374,18.128,56.841,15.215,125.308c-4.938,116.028,49.763,150.611,85.231,160.848
		c-0.136,1.637-0.214,3.272-0.218,4.903c-0.045,18.478,8.398,35.969,24.417,50.58c15.091,13.765,35.54,23.767,59.208,28.972
		c3.972,4.658,12.934,17.327,11.501,35.327c-0.105,1.323,0.414,2.619,1.402,3.505c0.318,0.284,7.965,6.969,23.421,6.969
		c0.001,0,0.001,0,0.002,0c15.454,0,23.101-6.685,23.418-6.969c0.989-0.885,1.507-2.181,1.402-3.504
		c-1.426-17.911,7.471-30.568,11.426-35.239c23.613-5.135,44.035-15.055,59.131-28.734c16.028-14.526,24.523-31.951,24.568-50.391
		c0.004-1.656-0.068-3.317-0.2-4.981c24.121-6.147,43.571-19.353,57.829-39.324c20.096-28.147,29.146-69.181,26.899-121.961
		c-2.913-68.466,6.666-105.933,15.215-125.308c9.04-20.487,18.78-25.388,19.064-25.525
		C482.662,33.842,483.631,31.364,482.708,29.226z M274.907,422.991c-0.875,0.183-1.671,0.637-2.274,1.298
		c-3.719,4.08-15.417,18.703-14.638,40.177c-2.432,1.427-7.71,3.761-16.207,3.761c-8.514,0-13.794-2.343-16.207-3.758
		c0.533-14.62-4.705-26.048-9.299-33.167h11.982c2.347,0,4.25-1.903,4.25-4.25c0-2.348-1.903-4.25-4.25-4.25h-20.126
		c-22.26-4.77-42.189-14.39-56.154-27.128c-14.199-12.951-21.684-28.263-21.645-44.279c0.024-9.767,2.813-19.768,8.008-29.39h37.011
		c2.347,0,4.25-1.903,4.25-4.25c0-2.348-1.903-4.25-4.25-4.25h-31.725c2.794-3.95,6.004-7.799,9.6-11.5h58.563
		c2.347,0,4.25-1.903,4.25-4.25c0-2.348-1.903-4.25-4.25-4.25h-49.3c0.071-0.059,0.14-0.118,0.211-0.176
		c21.92-17.886,49.975-27.735,78.995-27.735h0.27c29.075,0.063,57.155,10.008,79.066,28.003
		c20.513,16.846,32.248,38.085,32.198,58.272c-0.004,1.891-0.122,3.769-0.335,5.636h-49.106c-2.347,0-4.25,1.902-4.25,4.25
		c0,2.347,1.903,4.25,4.25,4.25h47.393c-1.965,6.784-5.333,13.331-10.043,19.5h-42.35c-2.347,0-4.25,1.902-4.25,4.25
		c0,2.347,1.903,4.25,4.25,4.25h34.757c-0.685,0.663-1.374,1.325-2.093,1.977C317.391,408.731,297.307,418.323,274.907,422.991z"/>
</g>
<g>
</g>
<g>
</g>
<g>
</g>
<g>
</g>
<g>
</g>
<g>
</g>
<g>
</g>
<g>
</g>
<g>
</g>
<g>
</g>
<g>
</g>
<g>
</g>
<g>
</g>
<g>
</g>
<g>
</g>
</svg>
