<?xml version="1.0" encoding="iso-8859-1"?>
<!-- Generator: Adobe Illustrator 18.0.0, SVG Export Plug-In . SVG Version: 6.00 Build 0)  -->
<!DOCTYPE svg PUBLIC "-//W3C//DTD SVG 1.1//EN" "http://www.w3.org/Graphics/SVG/1.1/DTD/svg11.dtd">
<svg xmlns="http://www.w3.org/2000/svg" xmlns:xlink="http://www.w3.org/1999/xlink" version="1.1" id="Capa_1" x="0px" y="0px" viewBox="0 0 484.495 484.495" style="enable-background:new 0 0 484.495 484.495;" xml:space="preserve" width="512px" height="512px">
<g>
	<path d="M429.738,288.504c-2.347,0-4.25,1.903-4.25,4.25c0,101.039-82.202,183.241-183.241,183.241   c-98.108,0-178.449-77.504-183.027-174.5h20.36c2.347,0,4.25-1.903,4.25-4.25s-1.903-4.25-4.25-4.25H59.01   c0-0.081-0.003-0.16-0.003-0.241c0-48.813,21.9-98.421,61.665-139.685c3.135-3.253,6.188-6.444,9.164-9.575h90.744   c2.347,0,4.25-1.903,4.25-4.25c0-2.347-1.903-4.25-4.25-4.25H137.86c10.996-11.724,20.831-22.541,29.63-32.5h29.091   c2.347,0,4.25-1.903,4.25-4.25s-1.903-4.25-4.25-4.25h-21.648c53.011-61.136,64.022-86.789,64.575-88.127   c0.895-2.165-0.133-4.641-2.295-5.541c-2.162-0.901-4.648,0.123-5.556,2.283c-0.171,0.408-18.291,42.024-117.105,144.561   c-41.3,42.855-64.045,94.558-64.045,145.583c0,105.726,86.014,191.741,191.74,191.741s191.741-86.015,191.741-191.741   C433.988,290.407,432.085,288.504,429.738,288.504z" fill="#E36352"/>
	<path d="M237.997,455.166c0,2.347,1.903,4.25,4.25,4.25c19.202,0,38.027-3.239,55.953-9.626c2.211-0.788,3.365-3.219,2.577-5.43   c-0.788-2.212-3.22-3.364-5.43-2.577c-17.008,6.06-34.873,9.133-53.1,9.133C239.9,450.916,237.997,452.819,237.997,455.166z" fill="#E36352"/>
	<path d="M327.909,435.017c0.767,0,1.542-0.207,2.241-0.642c41.507-25.816,69.517-68.207,76.849-116.304   c0.354-2.321-1.241-4.488-3.561-4.842c-2.321-0.351-4.488,1.24-4.842,3.561c-6.957,45.638-33.54,85.866-72.935,110.368   c-1.993,1.24-2.604,3.86-1.364,5.854C325.101,434.306,326.489,435.017,327.909,435.017z" fill="#E36352"/>
	<path d="M165.33,344.245c0,29.362,23.888,53.25,53.25,53.25s53.25-23.888,53.25-53.25s-23.888-53.25-53.25-53.25   S165.33,314.883,165.33,344.245z M263.33,344.245c0,24.675-20.075,44.75-44.75,44.75s-44.75-20.075-44.75-44.75   c0-24.675,20.075-44.75,44.75-44.75S263.33,319.57,263.33,344.245z" fill="#E36352"/>
	<path d="M222.83,276.245c0-2.347-1.903-4.25-4.25-4.25c-39.839,0-72.25,32.411-72.25,72.25c0,2.347,1.903,4.25,4.25,4.25   s4.25-1.903,4.25-4.25c0-35.152,28.598-63.75,63.75-63.75C220.927,280.495,222.83,278.592,222.83,276.245z" fill="#E36352"/>
	<path d="M200.33,344.245c0,10.063,8.187,18.25,18.25,18.25s18.25-8.187,18.25-18.25c0-2.347-1.903-4.25-4.25-4.25   s-4.25,1.903-4.25,4.25c0,5.376-4.374,9.75-9.75,9.75c-5.376,0-9.75-4.374-9.75-9.75c0-5.376,4.374-9.75,9.75-9.75   c2.347,0,4.25-1.903,4.25-4.25s-1.903-4.25-4.25-4.25C208.517,325.995,200.33,334.182,200.33,344.245z" fill="#E36352"/>
</g>
<g>
</g>
<g>
</g>
<g>
</g>
<g>
</g>
<g>
</g>
<g>
</g>
<g>
</g>
<g>
</g>
<g>
</g>
<g>
</g>
<g>
</g>
<g>
</g>
<g>
</g>
<g>
</g>
<g>
</g>
</svg>
