<?xml version="1.0" encoding="iso-8859-1"?>
<!-- Generator: Adobe Illustrator 18.0.0, SVG Export Plug-In . SVG Version: 6.00 Build 0)  -->
<!DOCTYPE svg PUBLIC "-//W3C//DTD SVG 1.1//EN" "http://www.w3.org/Graphics/SVG/1.1/DTD/svg11.dtd">
<svg version="1.1" id="Capa_1" xmlns="http://www.w3.org/2000/svg" xmlns:xlink="http://www.w3.org/1999/xlink" x="0px" y="0px"
	 viewBox="0 0 495.605 495.605" style="enable-background:new 0 0 495.605 495.605;" xml:space="preserve">
<g>
	<path d="M363.745,195.683c-23.385-42.243-21.339-91.427-15.504-125.248C354.615,33.483,366.777,6.27,366.899,6
		c0.965-2.139,0.015-4.656-2.124-5.622c-2.138-0.965-4.655-0.016-5.622,2.122c-0.283,0.626-4.093,9.146-8.559,23h-12.841
		c-2.347,0-4.25,1.903-4.25,4.25c0,2.347,1.903,4.25,4.25,4.25h10.231c-1.322,4.531-2.652,9.462-3.925,14.733H261.62
		c-2.347,0-4.25,1.903-4.25,4.25c0,2.347,1.903,4.25,4.25,4.25h80.514c-0.791,3.719-1.543,7.566-2.232,11.54
		c-6.103,35.228-8.211,86.556,16.407,131.027c34.84,62.938,47.986,108.84,18.763,256.179h-36.586c-2.347,0-4.25,1.903-4.25,4.25
		c0,2.347,1.903,4.25,4.25,4.25h34.877c-1.701,8.34-3.524,16.978-5.489,25.969c-0.501,2.293,0.952,4.558,3.244,5.059
		c0.306,0.067,0.611,0.099,0.912,0.099c1.954,0,3.713-1.356,4.148-3.344C415.058,314.309,402.247,265.236,363.745,195.683z"/>
	<path d="M139.297,199.799c13.545-24.468,18.989-51.008,20.139-75.804h37.324c2.347,0,4.25-1.903,4.25-4.25
		c0-2.347-1.903-4.25-4.25-4.25h-37.091c0.054-6.337-0.15-12.526-0.554-18.499h25.646c2.347,0,4.25-1.903,4.25-4.25
		c0-2.347-1.903-4.25-4.25-4.25h-0.406C179.021,42.58,163.017,3.968,162.353,2.5c-0.967-2.139-3.485-3.087-5.622-2.122
		c-2.139,0.966-3.089,3.483-2.124,5.622c0.158,0.349,16.149,37.826,21.287,82.496h-17.495c-0.7-6.978-1.635-13.599-2.696-19.724
		C149.124,30.803,136.966,3.637,136.452,2.5c-0.967-2.139-3.485-3.087-5.622-2.122c-2.139,0.966-3.089,3.483-2.124,5.622
		c0.122,0.271,12.284,27.483,18.659,64.436c5.834,33.821,7.88,83.004-15.504,125.248c-38.502,69.552-51.313,118.625-12.433,296.579
		c0.434,1.988,2.193,3.344,4.147,3.344c0.301,0,0.606-0.032,0.912-0.099c2.293-0.501,3.746-2.766,3.245-5.059
		C89.47,315.326,101.874,267.403,139.297,199.799z"/>
	<path d="M121.406,329.919c-0.034-2.347-1.992-4.258-4.313-4.186c-2.347,0.035-4.221,1.965-4.187,4.313
		c0.39,26.368,3.772,57.65,10.34,95.634c0.358,2.068,2.153,3.526,4.183,3.526c0.24,0,0.484-0.021,0.729-0.063
		c2.313-0.4,3.864-2.599,3.464-4.912C125.131,386.689,121.789,355.839,121.406,329.919z"/>
	<path d="M148.867,195.682c-17.007,30.722-28.528,56.571-33.411,90.461c-0.335,2.323,1.277,4.478,3.601,4.813
		c0.205,0.03,0.41,0.044,0.611,0.044c2.079,0,3.896-1.527,4.201-3.645c4.698-32.606,15.893-57.676,32.434-87.556
		c1.137-2.054,0.394-4.64-1.66-5.777C152.588,192.886,150.004,193.629,148.867,195.682z"/>
	<path d="M268.678,209.143c0.787,0,1.583-0.218,2.294-0.675c12.379-7.958,32.605-6.262,32.813-6.244
		c2.34,0.208,4.402-1.512,4.615-3.848c0.212-2.337-1.51-4.405-3.848-4.617c-0.945-0.085-23.316-1.994-38.177,7.559
		c-1.975,1.27-2.546,3.899-1.277,5.874C265.912,208.454,267.28,209.143,268.678,209.143z"/>
	<path d="M194.108,198.376c0.213,2.337,2.284,4.07,4.617,3.848c0.204-0.017,20.381-1.747,32.81,6.244
		c0.712,0.457,1.507,0.675,2.295,0.675c1.398,0,2.767-0.689,3.579-1.952c1.269-1.975,0.697-4.604-1.277-5.874
		c-14.862-9.553-37.233-7.645-38.177-7.559C195.618,193.971,193.896,196.038,194.108,198.376z"/>
	<path d="M288.94,363.411c19.252,0,42.88-6.282,70.608-18.805c2.139-0.966,3.09-3.483,2.125-5.623
		c-0.966-2.14-3.485-3.09-5.623-2.125c-48.134,21.737-74.601,19.846-88.326,14.431c-10.518-4.149-14.604-10.638-15.673-12.681
		l-0.002-73.373c0-2.347-1.903-4.25-4.25-4.25c-2.347,0-4.25,1.903-4.25,4.25l0.002,73.373c-1.067,2.04-5.151,8.53-15.672,12.681
		c-13.725,5.415-40.19,7.308-88.325-14.431c-2.139-0.966-4.657-0.015-5.623,2.125c-0.966,2.139-0.015,4.656,2.125,5.623
		c27.73,12.523,51.355,18.805,70.608,18.805c9.294,0,17.572-1.465,24.796-4.398c1.185-0.481,2.299-0.993,3.359-1.522
		c-1.001,15.116-5.193,73.546-13.724,133.262c-0.331,2.324,1.283,4.477,3.607,4.809c0.204,0.029,0.406,0.043,0.606,0.043
		c2.081,0,3.899-1.53,4.202-3.649c9.169-64.179,13.522-130.27,14.154-140.339c1.675-1.463,3.04-2.911,4.138-4.244
		c1.101,1.337,2.473,2.79,4.155,4.258c0.35,5.732,4.61,73.625,14.139,140.325c0.303,2.12,2.121,3.649,4.202,3.649
		c0.2,0,0.403-0.014,0.606-0.043c2.324-0.332,3.938-2.485,3.606-4.809c-8.528-59.702-12.722-118.143-13.724-133.261
		c1.061,0.529,2.174,1.041,3.358,1.522C271.37,361.947,279.644,363.411,288.94,363.411z"/>
</g>
<g>
</g>
<g>
</g>
<g>
</g>
<g>
</g>
<g>
</g>
<g>
</g>
<g>
</g>
<g>
</g>
<g>
</g>
<g>
</g>
<g>
</g>
<g>
</g>
<g>
</g>
<g>
</g>
<g>
</g>
</svg>
