<?xml version="1.0" encoding="iso-8859-1"?>
<!-- Generator: Adobe Illustrator 18.0.0, SVG Export Plug-In . SVG Version: 6.00 Build 0)  -->
<!DOCTYPE svg PUBLIC "-//W3C//DTD SVG 1.1//EN" "http://www.w3.org/Graphics/SVG/1.1/DTD/svg11.dtd">
<svg version="1.1" id="Capa_1" xmlns="http://www.w3.org/2000/svg" xmlns:xlink="http://www.w3.org/1999/xlink" x="0px" y="0px"
	 viewBox="0 0 486.185 486.185" style="enable-background:new 0 0 486.185 486.185;" xml:space="preserve">
<path d="M482.432,311.733c-7.045-38.573-24.122-79.843-48.084-116.21c-22.167-33.643-47.699-59.347-70.05-70.523
	c-23.502-11.751-41.387-13.481-53.157-5.144c-16.581,11.746-14.108,38.745-13.744,41.999v92.315l-26.966-16.594
	c-0.454-0.281-1.082-1.402-1.082-1.936V9.734c0-2.347-1.903-4.25-4.25-4.25s-4.25,1.903-4.25,4.25V82.37h-18.08
	c-2.347,0-4.25,1.903-4.25,4.25c0,2.347,1.903,4.25,4.25,4.25h18.08v63.188h-17.341c-2.347,0-4.25,1.903-4.25,4.25
	c0,2.347,1.903,4.25,4.25,4.25h17.341v73.083c0,3.488,2.156,7.347,5.127,9.175l50.882,31.312c1.359,0.836,3.073,0.841,4.436,0.012
	l44.472-27.05c1.72-1.047,3.97-0.498,5.014,1.22c1.045,1.718,0.497,3.968-1.222,5.014l-45.746,27.823
	c-1.268,0.771-2.042,2.148-2.042,3.631v15.683c0,0.779,0.214,1.543,0.619,2.208l26.781,44.031c1.045,1.719,0.497,3.968-1.22,5.013
	c-1.721,1.046-3.969,0.498-5.015-1.22l-28.551-46.943c-0.338-0.555-0.799-1.027-1.348-1.376l-9.014-5.741l-0.001-0.001
	l-58.509-37.263c-1.435-0.914-3.206-0.848-4.555,0.007l-0.006-0.01l-69.186,43.918c-0.551,0.35-1.014,0.823-1.353,1.38
	l-27.998,46.031c-0.505,0.832-1.305,1.417-2.252,1.648c-0.945,0.231-1.927,0.079-2.759-0.427c-1.719-1.046-2.267-3.295-1.222-5.013
	l27.614-45.401c0.405-0.665,0.619-1.43,0.619-2.209v-13.807c0-1.484-0.774-2.86-2.042-3.631l-46.579-28.33
	c-0.832-0.507-1.418-1.307-1.649-2.254c-0.23-0.947-0.079-1.927,0.427-2.759c1.045-1.719,3.295-2.266,5.013-1.221l44.893,27.305
	c1.364,0.829,3.077,0.825,4.436-0.012l51.567-31.734c2.971-1.828,5.126-5.686,5.126-9.175V133.397h21.795
	c2.347,0,4.25-1.902,4.25-4.25c0-2.347-1.903-4.25-4.25-4.25h-21.795V59.885h18.961c2.347,0,4.25-1.903,4.25-4.25
	c0-2.347-1.903-4.25-4.25-4.25h-18.961V9.734c0-2.347-1.903-4.25-4.25-4.25c-2.347,0-4.25,1.903-4.25,4.25v225.739
	c0,0.534-0.626,1.656-1.081,1.936l-27.242,16.765v-92.319c0.365-3.256,2.835-30.253-13.745-41.998
	c-11.771-8.337-29.656-6.607-53.157,5.144c-22.351,11.175-47.883,36.88-70.051,70.524c-23.962,36.366-41.038,77.638-48.083,116.211
	C-6.881,369.949,5.188,419.866,38.653,456.09c0.057,0.061,0.115,0.121,0.176,0.179c1.091,1.049,25.697,24.434,49.593,24.431
	c1.321-0.001,2.642-0.072,3.954-0.223c9.853-1.131,17.941-6.461,24.04-15.844c14.744-22.684,28.125-30.088,41.064-37.248
	c7.237-4.004,14.721-8.146,22.018-14.774c10.547-9.58,9.491-26.526,9.29-28.857v-79.409l54.439-34.558l54.171,34.501v79.465
	c-0.2,2.33-1.257,19.277,9.289,28.857c7.297,6.628,14.78,10.769,22.017,14.773c12.94,7.16,26.321,14.564,41.066,37.248
	c6.098,9.382,14.187,14.713,24.04,15.844c1.313,0.151,2.632,0.223,3.954,0.222c23.895-0.001,48.502-23.382,49.593-24.431
	c0.061-0.058,0.119-0.118,0.176-0.179C480.997,419.866,493.066,369.948,482.432,311.733z M180.309,384.381
	c0.015,0.147,1.37,14.767-6.527,21.94c-6.564,5.963-13.293,9.686-20.418,13.629c-13.207,7.308-28.176,15.591-44.076,40.053
	c-4.713,7.251-10.558,11.186-17.868,12.029c-20.473,2.363-45.021-20.311-46.62-21.814c-6.03-6.541-11.141-13.357-15.456-20.348
	h60.102c2.347,0,4.25-1.903,4.25-4.25c0-2.347-1.903-4.25-4.25-4.25H24.528c-2.495-4.81-4.647-9.682-6.488-14.586h34.955
	c2.347,0,4.25-1.903,4.25-4.25c0-2.347-1.903-4.25-4.25-4.25H15.161c-9.142-30.146-7.469-60.813-3.047-85.023
	c14.673-80.336,71.631-159.689,113.574-180.659c20.176-10.087,35.538-12.101,44.424-5.822c5.001,3.533,7.675,9.311,9.071,15.126
	h-19.262c-2.347,0-4.25,1.903-4.25,4.25c0,2.347,1.903,4.25,4.25,4.25h20.529c0.419,5.957-0.116,10.564-0.129,10.668
	c-0.022,0.176-0.033,0.354-0.033,0.531v97.798l-13.611,8.376l-42.672-25.955c-5.725-3.48-13.211-1.655-16.692,4.067
	c-1.686,2.773-2.191,6.036-1.423,9.189c0.521,2.138,1.596,4.043,3.092,5.58h-47.77c-2.347,0-4.25,1.903-4.25,4.25
	c0,2.347,1.903,4.25,4.25,4.25h60.979l33.726,20.513V299.9l-8.867,14.577h-32.59c-2.347,0-4.25,1.903-4.25,4.25
	c0,2.347,1.903,4.25,4.25,4.25h27.42l-12.959,21.308c-0.364,0.598-0.656,1.219-0.906,1.849H77.728c-2.347,0-4.25,1.903-4.25,4.25
	c0,2.347,1.903,4.25,4.25,4.25h50.123c0.899,2.556,2.648,4.828,5.138,6.342c1.927,1.172,4.091,1.773,6.29,1.773
	c0.964,0,1.936-0.116,2.897-0.35c3.153-0.768,5.818-2.718,7.503-5.49l27.481-45.182l3.127-1.985v74.209
	C180.287,384.091,180.295,384.241,180.309,384.381z M441.382,450.22c-1.534,1.444-23.723,21.987-43.539,21.985
	c-1.028,0-2.052-0.055-3.064-0.171c-7.316-0.84-13.166-4.776-17.882-12.032c-15.901-24.463-30.87-32.745-44.077-40.053
	c-6.424-3.555-12.525-6.948-18.475-11.949h29c2.347,0,4.25-1.902,4.25-4.25c0-2.347-1.903-4.25-4.25-4.25h-35.446
	c-2.767-7.052-2.034-15.008-2.023-15.109c0.015-0.146,0.023-0.293,0.023-0.439v-74.248l1.74,1.108l28.037,46.099
	c2.285,3.755,6.295,5.831,10.4,5.831c2.15,0,4.326-0.569,6.293-1.765c0.537-0.327,1.028-0.699,1.496-1.092h57.923
	c2.347,0,4.25-1.903,4.25-4.25c0-2.347-1.903-4.25-4.25-4.25h-53.622c0.16-2.408-0.384-4.886-1.73-7.1l-4.444-7.306h31.49
	c2.347,0,4.25-1.903,4.25-4.25c0-2.347-1.903-4.25-4.25-4.25h-36.66l-16.549-27.208v-12.103l33.583-20.426h60.1
	c2.347,0,4.25-1.903,4.25-4.25c0-2.347-1.903-4.25-4.25-4.25h-47.178c3.421-3.884,4.095-9.699,1.267-14.349
	c-3.481-5.722-10.969-7.545-16.693-4.065l-42.252,25.699l-13.201-8.123v-97.796c0-0.174-0.011-0.354-0.033-0.527
	c-0.031-0.249-2.93-25.017,10.208-34.299c8.885-6.279,24.247-4.266,44.425,5.821c41.941,20.971,98.9,100.321,113.573,180.657
	C481.132,351.919,481.185,407.049,441.382,450.22z"/>
<g>
</g>
<g>
</g>
<g>
</g>
<g>
</g>
<g>
</g>
<g>
</g>
<g>
</g>
<g>
</g>
<g>
</g>
<g>
</g>
<g>
</g>
<g>
</g>
<g>
</g>
<g>
</g>
<g>
</g>
</svg>
