<?xml version="1.0" encoding="iso-8859-1"?>
<!-- Generator: Adobe Illustrator 19.0.0, SVG Export Plug-In . SVG Version: 6.00 Build 0)  -->
<svg version="1.1" id="Layer_1" xmlns="http://www.w3.org/2000/svg" xmlns:xlink="http://www.w3.org/1999/xlink" x="0px" y="0px"
	 viewBox="0 0 471.426 471.426" style="enable-background:new 0 0 471.426 471.426;" xml:space="preserve">
<g>
	<g>
		<g>
			<path d="M99.865,30.082c-2.048-0.512-3.584-1.024-5.12-1.536c-1.024-0.512-2.56,0-3.072,1.536c-0.512,1.024,0,2.56,1.536,3.072
				c2.048,0.512,3.584,1.024,5.632,1.536h0.512c1.024,0,2.56-1.024,2.56-1.536C101.913,31.618,101.401,30.594,99.865,30.082z"/>
			<path d="M131.609,35.202c-4.096-3.072-9.216-4.096-14.336-4.096h-2.56c-1.024,0-2.048,0-3.072,0c-1.536,0-2.56,1.024-2.56,2.56
				s1.024,2.56,2.56,2.56c1.024,0,2.56,0,3.584,0h2.56c4.096,0,8.192,1.024,11.776,3.072c0.512,0.512,1.024,0.512,1.536,0.512
				c1.024,0,1.536-0.512,1.536-1.024C133.145,37.762,132.633,35.714,131.609,35.202z"/>
			<path d="M106.009,258.946c2.048,0,3.072-1.024,3.072-2.56c-0.512-3.072,0-5.632,0.512-8.704c0-1.536-0.512-2.56-2.048-3.072
				c-1.536,0-2.56,0.512-3.072,2.048c-1.024,3.072-1.536,6.656-1.024,10.24C103.449,257.922,104.473,258.946,106.009,258.946z"/>
			<path d="M106.009,235.394c0,1.536,1.024,2.56,2.56,2.56c1.536,0,2.56-1.024,3.072-3.072c-0.512-3.584-1.024-6.656-2.56-10.24
				c-1.024-1.536-2.048-2.048-3.584-1.536c-1.536,1.024-2.048,2.048-1.536,3.584C104.985,229.762,106.009,232.322,106.009,235.394z"
				/>
			<path d="M96.793,216.962c1.024,0.512,1.536,1.536,2.048,2.048s1.536,1.024,2.048,1.024c0.512,0,1.024-0.512,1.536-1.024
				c1.024-1.024,1.024-2.56,0-3.584c-0.512-0.512-1.024-1.536-2.048-2.048l-0.512-0.512c-1.024-1.024-2.56-1.024-3.584,0
				c-1.024,1.024-1.024,2.56,0,3.584L96.793,216.962z"/>
			<path d="M437.273,223.618l-4.096-11.264c-3.584-8.704-3.584-18.944-1.024-28.16l2.56-9.216
				c5.632-17.408,6.144-36.352,1.536-54.272l-2.048-9.216c-2.048-7.68-1.536-16.384,1.024-24.064l1.536-5.12
				c5.632-16.896,2.56-35.328-8.192-49.664l-0.512-0.512c-4.608-6.144-12.288-10.24-20.48-11.264l-5.12-0.512
				c-8.704-1.024-16.896-3.072-25.088-6.144l-6.144-2.56c-12.288-4.608-26.112-3.584-37.376,2.56l-8.704,5.12
				c-6.656,3.584-14.336,4.608-21.504,3.584l-13.824-2.048c-15.872-2.56-32.256,0-46.592,7.168l-9.728,4.608
				c-6.144,2.56-12.8,2.56-18.432-1.024l-9.216-5.632c-10.752-6.656-23.552-9.216-36.352-7.168l-14.336,2.56
				c-4.608,0.512-9.728-0.512-13.824-3.072L127.513,9.09c-10.752-7.168-23.04-10.24-35.84-8.704L82.969,1.41
				c-7.68,1.024-14.848,4.608-20.48,10.24l-1.024,1.024c-11.776,12.8-16.384,30.72-12.8,47.616l0.512,2.048
				c0.512,4.608-0.512,8.704-3.072,12.288l-0.512,0.512c-10.752,13.312-14.336,31.232-10.24,47.616l3.584,13.312
				c1.024,3.584,1.024,7.68-0.512,11.264l-6.656,18.432c-5.12,15.36-3.584,31.744,3.584,45.568l9.216,15.36
				c2.56,4.608,3.584,9.728,2.048,14.848l-2.048,7.68c-4.608,17.408-0.512,35.84,11.264,49.664l2.048,2.048
				c9.728,10.752,23.04,17.408,37.376,18.432l1.536-0.512c4.93,0.379,9.789,0.053,14.475-0.895
				c2.529,6.931,3.957,14.151,3.957,21.375l0.512,12.8c0,3.072,2.56,5.12,5.12,5.12c3.072,0,5.12-2.56,4.608-5.632l-0.512-12.8
				c0-8.266-1.358-16.192-4.027-23.79c4.151-1.697,8.078-3.906,11.697-6.556c18.822,16.822,43.466,25.738,68.618,25.738
				c2.258,0,4.517-0.001,6.904-0.257c0.533,6.176,2.121,12.331,4.872,18.177l9.728,20.48c1.024,3.072,2.048,6.656,1.536,10.24
				l-1.536,18.432c-1.024,12.288,2.048,25.088,9.216,35.328l19.456,28.16c0.433,0.433,0.961,0.862,1.539,1.217
				c2.632,3.61,6.935,5.439,11.261,5.439c0.512,0,1.536-0.512,2.56,0c4.608-1.024,10.24-5.632,10.24-14.848
				c0-0.151-0.011-0.298-0.023-0.444c0.006-0.023,0.017-0.045,0.023-0.068l2.048-17.408c1.536-8.192,1.024-16.896-1.536-24.576
				l-2.048-6.144c-1.024-3.584,0-7.168,2.56-9.728l1.536-1.024c6.366-5.877,9.911-14.564,9.312-23.373
				c9.016,5.549,18.838,8.525,29.088,8.525c8.192,0,16.384-2.048,23.04-5.632l11.776-6.144c5.632-2.56,11.776-4.608,17.92-4.608
				h3.072c26.624-0.512,48.64-21.504,51.712-47.616l1.024-9.728c0.512-4.608,1.536-8.704,3.584-12.8l5.632-12.288
				C444.441,264.066,444.953,243.074,437.273,223.618z M168.041,323.375c1.878-0.137,4.029-0.497,6.576-1.452
				c4.608,0,8.192-2.048,10.24-4.608c3.072-4.608,1.536-10.752,0.512-16.384c-1.024-3.584-1.536-7.168-1.024-9.216
				c2.048-6.144,9.728-7.168,15.872-7.68c4.608-0.512,7.68-1.024,8.704-3.072c0.512-1.024,0-3.072-1.024-3.584
				c-1.024-0.512-2.56,0-3.072,1.024c-0.512,0.512-3.072,1.024-5.12,1.024c-7.168,1.024-17.408,2.56-20.48,11.264
				c-1.536,3.584-0.512,7.68,0.512,12.288c1.024,4.608,2.048,9.728,0,12.288c-1.024,1.536-3.072,2.048-6.656,2.56
				c-12.8,1.024-17.408-0.512-19.456-1.536c-0.491-0.164-0.977-0.213-1.435-0.184c-5.451-3.096-10.634-6.713-15.483-10.807
				l3.605-2.833c5.12-4.096,9.216-9.728,10.752-16.384c3.584-15.36,0.512-32.256-9.216-45.056l-2.56-3.072
				c-4.608-6.144-6.144-13.824-4.096-20.992l2.436-8.283c0.813-1.829,1.688-4.074,2.684-6.565
				c5.12-13.312,12.288-33.28,27.136-32.256c3.072,0.512,5.12,6.656,4.608,10.752c0,1.024,1.536,2.56,2.56,2.56
				s2.56-1.024,2.56-2.56c0.512-6.656-2.048-15.872-9.216-16.384c-14.517-1.21-22.997,12.824-28.447,25.595
				c-0.669-8.658-3.396-17.057-7.905-24.571l-3.723-6.013c15.398-16.068,40.745-20.533,60.555-10.883
				c3.072,1.536,6.144,3.072,9.216,5.12c3.584,2.048,7.68,4.608,11.776,6.144c3.584,1.536,7.68,2.56,11.264,3.072
				c1.024,0,2.048-1.024,3.072-2.048c0-1.024-1.024-2.56-2.56-2.56c-3.072-0.512-6.144-1.024-9.216-2.56
				c-4.096-1.536-7.68-4.096-11.264-6.144c-3.072-2.048-6.144-4.096-9.728-5.632c-11.236-5.226-24.07-6.442-36.193-4.075
				c-0.844-4.672-2.194-10.706-4.473-16.55c1.306-6.514,4.677-12.425,8.922-15.727c1.024-1.024,1.536-2.56,0.512-3.584
				c-1.024-1.024-2.56-1.536-3.584-0.512c-3.938,3.222-7.12,7.699-9.031,13.074c-1.967-3.458-4.371-6.592-7.353-8.978
				c-1.024-1.024-2.56-0.512-3.584,0.512c-1.024,1.024-0.512,2.56,0.512,3.584c8.028,6.611,11.698,21.492,13.024,29.389
				c-9.176,2.602-17.729,7.311-24.598,13.945l-6.858-11.078c-3.072-5.12-3.584-11.776-1.536-17.408l1.024-3.072
				c4.608-11.776,4.096-24.576-1.536-35.84l-1.536-3.584c-0.956-1.913-1.682-3.827-2.244-5.792c2.275,0.027,4.563-0.083,6.852-0.352
				l2.56-0.512c4.608-0.512,9.216,0.512,12.8,3.072l13.312,8.704c11.776,7.68,25.6,10.24,38.912,8.192l7.68-1.536
				c8.704-1.536,17.408-0.512,25.088,3.072l6.144,2.56c7.86,3.723,16.724,5.774,25.509,6.424
				c-6.557,6.956-10.619,15.964-11.261,25.504c-0.472-0.42-0.952-0.827-1.448-1.208c-6.496-4.967-22.403-9.932-40.058-10.005
				c0.427-0.725,0.822-1.472,1.146-2.283c2.048-5.632,1.536-12.288,0-17.92c-0.512-1.536-1.536-2.56-3.072-2.048
				c-1.536,0.512-2.56,1.536-2.048,3.072c1.536,5.12,2.048,10.24,0.512,14.848c-0.5,2.001-1.497,3.506-2.976,4.529
				c-3.945,0.258-7.929,0.776-11.872,1.615c-1.536,0.512-2.56,1.536-2.048,3.072c0.512,1.536,1.536,2.56,3.072,2.048
				c23.552-5.12,47.616,2.048,54.272,7.168c5.278,3.839,8.758,10.376,9.174,17.083c-2.664,0.176-5.285,0.792-7.638,1.861
				c-1.024,1.024-1.536,2.048-1.024,3.584c1.024,1.024,2.048,1.536,3.584,1.024c4.608-2.048,9.728-2.048,14.336,0
				c1.536,0.512,3.584,1.536,5.12,2.56c2.048,1.024,4.608,2.56,7.168,3.584c4.096,1.536,8.704,1.536,12.8,1.536
				c5.12,0,9.728,0,13.312,2.56c1.024,1.024,2.56,2.048,3.584,3.584c1.024,1.024,2.048,2.56,3.584,3.584
				c0.512,0.512,1.024,0.512,1.536,0.512c0.512,0,1.024,0,1.536-1.024c0.512-1.024,0.512-2.56-0.512-3.584s-2.048-2.048-3.072-3.072
				c-1.536-1.536-2.56-3.072-4.608-4.608c-5.12-3.072-10.752-3.072-16.384-3.072c-3.584,0-7.68,0-10.752-1.024
				c-2.048-0.512-4.096-1.536-6.144-3.072c-1.536-1.024-3.584-2.048-5.632-3.072c-1.77-0.804-3.692-1.355-5.669-1.654
				c-0.227-4.958-1.91-9.862-4.585-14.054c0.003-0.056,0.014-0.107,0.014-0.164c-0.888-11.546,4.393-23.854,13.491-31.262
				c9.839-0.153,19.678-2.159,29.517-5.602l8.192-3.072c7.68-3.072,16.384-4.096,24.576-2.56l5.12,1.024
				c1.798,0.359,3.61,0.612,5.427,0.776c0.066,0.084,0.127,0.169,0.205,0.248c4.096,4.608,5.632,11.264,4.096,17.408
				c0,1.536,0.512,2.56,2.048,3.072h0.512c1.024,0,2.048-1.024,2.048-2.048c1.676-6.287,0.605-12.915-2.646-18.483
				c11.644-0.348,23.141-4.569,32.342-12.237l1.024-0.512c0.754-0.603,1.604-1.106,2.508-1.531l3.123,23.035
				c0.512,3.072,0,6.144-1.024,9.216l-9.216,22.016c-4.608,10.24-5.12,21.504-2.56,32.256l6.656,25.088
				c1.536,4.096,0.512,8.704-1.536,12.8l-7.68,13.824c-6.144,11.264-10.752,23.04-13.824,35.84l-6.144,27.136l-10.752-1.024
				c-15.872-1.024-32.256,0.512-47.616,4.096c-0.512,0-1.024-0.512-1.536-1.024c-11.264-11.776-28.672-14.848-43.008-7.68
				l-1.536,1.024c-18.312,9.156-29.021,28.268-29.14,47.965C194.209,329.856,180.67,327.888,168.041,323.375z M427.545,278.914
				l-5.632,12.288c-2.048,5.12-3.584,10.24-4.096,15.872l-1.024,9.728c-2.56,21.504-20.48,38.4-41.984,38.912h-3.072
				c-7.68,0-15.36,2.048-22.528,5.632l-11.776,6.144c-14.336,7.68-31.744,6.144-45.056-3.584l-33.792-24.576
				c-2.048-1.536-5.632-1.024-7.168,1.024s-1.024,5.632,1.024,7.168l25.3,18.4l0.812,7.712c0.512,5.632-1.536,11.776-6.144,15.872
				l-1.536,1.024c-5.632,5.12-7.68,13.312-5.632,20.48l2.048,6.144c2.048,6.144,2.56,13.312,1.536,19.968l-2.048,17.408
				c0,0.32,0.032,0.64,0.093,0.956c-0.061,0.347-0.093,0.711-0.093,1.091c0.512,2.56-0.512,4.096-2.048,4.608
				c-1.024,0-3.072-0.512-4.096-2.048c-0.266-0.355-0.609-0.645-0.979-0.905l-18.477-26.743c-6.144-8.192-8.704-18.432-7.68-28.672
				l1.536-18.432c0.512-5.12-0.512-10.752-2.56-15.36l-9.728-19.968c-10.24-21.504-1.536-47.104,19.456-57.856l1.536-1.024
				c10.24-5.12,22.528-3.072,31.232,5.632c2.048,2.048,5.632,5.12,9.728,4.096c14.848-4.096,30.208-5.12,45.568-4.096l15.36,1.024
				c2.56,0,5.12-1.536,5.632-4.096l7.168-31.232c2.56-11.264,6.656-22.528,12.8-32.768l7.68-13.824
				c3.584-6.656,4.608-13.824,2.56-20.992l-6.656-25.088c-2.048-8.704-1.536-17.408,2.048-25.6l8.192-22.528
				c2.048-4.608,2.56-9.216,2.048-14.336L383.9,82.796c9.131-0.499,17.565-5.377,22.653-12.777l2.048-2.56
				c1.536-2.56,1.024-5.632-1.536-7.168c-2.56-1.536-5.632-1.024-7.168,1.536l-2.048,2.56c-3.499,4.998-9.925,8.522-16.421,8.211
				c-1.031-0.886-2.475-1.306-4.059-1.042c-1.515,0-2.78,0.749-3.612,1.814c-3.568,0.831-6.915,2.367-9.7,4.842l-1.024,0.512
				c-10.24,8.192-23.04,11.776-35.84,9.216l-5.12-1.024c-10.24-2.048-20.992-1.024-30.72,3.072l-8.192,3.072
				c-17.408,6.656-36.864,6.656-53.76-1.024l-6.144-2.56c-9.728-4.608-20.48-5.632-30.72-4.096l-7.68,1.536
				c-10.752,2.048-22.016-0.512-31.232-6.656l-13.312-8.704c-5.632-3.584-12.8-5.632-19.456-4.608l-2.56,0.512
				c-3.148,0.35-6.321,0.337-9.456,0.009c-0.902-0.637-2.021-1.033-3.344-1.033c-0.38,0.076-0.743,0.196-1.096,0.338
				c-8.983-1.874-17.362-6.512-23.48-13.65c-2.048-2.048-5.12-2.56-7.168-0.512c-2.048,2.048-2.56,5.12-0.512,7.168
				c7.364,8.703,17.36,14.538,28.259,16.979c0.773,4.348,2.103,8.418,3.997,12.205l1.024,3.072
				c4.608,8.704,5.12,18.944,1.536,27.648l-1.024,3.072c-3.072,8.192-2.56,18.432,2.56,26.112l13.312,21.504
				c6.656,10.24,8.192,23.04,5.12,34.816l-2.56,9.216c-2.56,10.24-0.512,21.504,5.632,29.696l3.072,2.048
				c7.68,10.752,10.24,24.064,7.168,36.864c-1.024,4.096-3.584,8.192-7.168,10.752l-7.168,5.632
				c-2.985,2.238-6.243,4.064-9.697,5.462c3.713-11.154,2.529-23.274-3.102-34.134l-3.072-5.632
				c-1.024-1.024-2.56-1.536-3.584-1.024c-1.024,1.024-1.536,2.56-1.024,3.584l3.072,5.632c5.771,10.654,6.145,22.844,1.473,33.574
				c-4.248,1.027-8.701,1.458-13.249,1.242h-1.024c-11.776-0.512-22.528-6.144-30.208-14.848l-2.048-2.048
				c-9.728-10.752-13.312-26.112-9.216-39.936l2.048-7.68c2.048-7.68,1.024-15.872-3.072-22.528l-9.216-15.36
				c-6.656-10.752-7.68-24.064-3.584-36.352l6.656-18.432c1.536-5.632,2.048-11.776,0.512-17.408l-3.584-13.312
				c-3.584-13.312-0.512-27.648,8.192-38.4l0.512-0.512c5.12-6.144,6.656-13.824,5.12-20.992l-0.512-2.048
				c-3.072-13.824,1.024-28.16,10.24-38.4l1.024-1.024c3.584-4.096,8.704-6.656,14.336-7.168l8.704-1.024
				c10.24-1.024,20.48,1.536,29.184,7.168l13.824,9.216c6.144,4.096,13.824,5.632,20.992,4.608l13.824-3.072
				c10.24-1.536,20.992,0.512,29.696,5.632l9.216,5.632c8.704,5.12,18.944,5.632,28.16,1.024l9.728-4.608
				c12.288-6.144,26.624-8.192,40.448-6.144l13.824,2.048c9.728,1.536,19.456,0,28.16-4.608l8.704-5.12
				c8.704-4.608,19.456-5.12,28.672-1.536l6.144,2.56c3.818,1.572,7.837,2.833,11.919,3.857l-0.143,0.239
				c-4.096,5.632-11.264,8.704-18.432,8.704c-5.12-0.512-10.24,1.536-14.336,4.608l-1.024,0.512
				c-10.24,8.192-23.552,11.776-36.352,9.216l-5.12-1.024c-9.728-2.048-19.456-1.024-28.16,2.56l-7.68,3.072
				c-16.896,6.656-36.352,6.144-53.248-1.024l-5.632-2.56c-8.704-4.096-18.432-5.12-28.16-3.584l-7.68,1.024
				c-11.264,2.048-22.528-0.512-31.744-6.656c-1.024-1.024-2.56-0.512-3.584,0.512c-1.024,1.024-0.512,2.56,0.512,3.584
				c10.24,6.656,23.04,9.216,35.328,7.168l7.68-1.024c8.192-1.536,16.896-0.512,25.088,3.072l5.632,2.56
				c9.216,4.096,19.456,6.144,29.696,6.144c9.216,0,18.432-1.536,28.16-3.584l7.68-3.072c8.192-3.072,16.896-4.096,25.088-2.56
				l5.12,1.024c14.336,2.56,29.184-1.024,40.448-10.24l1.024-0.512c3.072-2.56,7.168-3.584,11.264-3.584
				c8.704,0.512,17.408-4.096,22.528-11.264l1.274-2.123c3.519,0.699,7.047,1.227,10.502,1.611l5.632,0.512
				c5.12,0.512,10.24,3.584,13.312,7.68l0.512,0.512c8.704,11.264,11.264,26.112,6.656,39.936l-1.536,5.12
				c-3.072,9.728-3.584,19.968-1.024,29.696l2.048,9.216c4.096,16.384,3.584,33.28-1.024,49.152l-2.56,9.216
				c-3.072,11.264-2.56,23.552,1.536,34.816l4.096,11.264C435.225,244.098,434.713,262.53,427.545,278.914z"/>
			<path d="M396.825,198.018c0.512,0,0.512,0,1.024,0c1.024,0,2.048-0.512,2.56-1.024c0-0.512,0.512-1.024,0.512-1.536
				c0.512-1.536,0-3.072-1.536-3.584c-1.536-0.512-3.072,0-3.584,1.536c0,0.512-0.512,1.024-0.512,1.536
				C394.777,195.97,395.289,197.506,396.825,198.018z"/>
			<path d="M396.313,210.306c1.536,0,2.56-1.024,2.56-3.584c0-1.024,0-2.56,0-3.584s-1.024-2.56-2.56-2.56
				c-1.024,0-2.56,1.024-2.56,2.56s0,3.072,0,4.608S394.777,210.306,396.313,210.306z"/>
			<path d="M397.337,216.962c-1.536,0.512-2.048,1.536-1.536,3.072l1.536,3.584c0.512,1.024,1.536,1.536,2.56,1.536
				c0.512,0,0.512,0,0.512,0c1.536-0.512,2.048-1.536,1.536-3.072l-1.536-3.584C399.897,216.962,398.873,216.45,397.337,216.962z"/>
			<path d="M402.457,230.786c-1.536,0.512-2.048,1.536-2.048,3.072c0.512,1.536,0.512,3.584,0.512,5.12s1.024,2.56,2.56,2.56
				c1.536,0,2.56-1.024,2.56-3.072c0-1.536,0-3.584-0.512-5.632C405.017,231.298,403.993,230.786,402.457,230.786z"/>
			<path d="M402.969,246.146c-1.536-0.512-3.072,0.512-3.072,2.048c-1.024,5.632-3.072,10.752-6.144,15.872
				c-0.512,1.024,0,3.072,1.024,3.584c0.512,0.512,1.024,0.512,1.536,0.512c1.024,0,2.048-0.512,2.048-1.024
				c3.072-5.632,5.632-11.776,6.656-17.92C405.529,247.682,404.505,246.146,402.969,246.146z"/>
			<path d="M392.217,271.746c-1.024-0.512-3.072,0-3.584,1.024c-2.048,3.072-3.584,7.168-4.608,10.752l-1.536,7.168
				c-3.072,15.872-19.968,27.136-39.424,26.112h-2.56c-1.536,0-2.56,1.024-2.56,2.56s1.024,2.56,2.56,2.56h2.56
				c1.024,0,1.536,0,2.56,0c20.48,0,38.912-12.288,42.496-30.208l1.536-7.168c0.512-3.072,1.536-6.144,3.584-9.216
				C393.753,274.306,393.241,272.258,392.217,271.746z"/>
			<path d="M322.073,319.874l-10.24,3.584c-1.024,0.512-2.048,1.536-1.536,3.072c0.512,1.024,1.536,1.536,2.56,1.536
				c0.512,0,0.512,0,0.512,0l10.24-3.584c1.024-0.512,2.048-1.536,1.536-3.072C324.633,320.386,323.609,319.362,322.073,319.874z"/>
			<path d="M297.497,324.994c-3.072,0-6.144-0.512-9.216-1.024c-1.536,0-2.56,0.512-3.072,2.048c0,1.536,0.512,2.56,2.048,3.072
				c3.072,0.512,6.656,1.024,10.24,1.024c1.536,0,2.56-1.024,2.56-2.56S299.033,324.994,297.497,324.994z"/>
			<path d="M276.505,319.874c-1.536-1.024-3.072-2.048-4.608-3.072c-1.024-1.024-2.56-0.512-3.584,0.512s-0.512,2.56,0.512,3.584
				c1.536,1.024,3.584,2.048,5.12,3.072c0,0.512,0.512,0.512,1.024,0.512c1.024,0,1.536-0.512,2.56-1.024
				C278.041,321.922,277.529,320.386,276.505,319.874z"/>
			<path d="M211.993,185.218c5.632,7.168,5.632,17.92,5.12,27.136c0,2.048,0,4.096,0.512,5.632c2.56,8.192,11.264,9.728,15.36,10.24
				c0.512,0,0.512,0,1.024,0c20.48,4.096,23.04,10.752,28.672,23.552l1.024,2.56c1.536,3.072,1.536,6.656,1.024,9.216
				c-0.512,2.048-1.536,3.072-4.608,3.072c-1.536,0-2.56,1.024-2.56,2.56c0,1.536,1.024,2.56,2.56,2.56
				c5.12,0,8.192-2.56,10.752-6.656c1.024-3.584,0.512-8.192-1.024-12.288l-1.024-2.56c-5.632-13.312-9.216-22.016-32.256-26.624
				c-0.512-0.512-1.024-0.512-1.536-0.512c-4.608-1.024-9.728-2.048-11.264-6.656c-0.512-1.024-0.512-2.56-0.512-4.096
				c0-10.24,0-21.504-6.656-30.208c-4.608-5.632-11.776-9.216-21.504-10.752c-1.536-0.512-2.56,0.512-3.072,2.048
				c-0.512,1.536,0.512,3.072,2.048,3.072C202.265,177.538,207.897,180.61,211.993,185.218z"/>
			<path d="M170.521,272.258c-1.024-0.512-2.56,0-3.072,1.536c-1.024,2.56-1.024,5.12-0.512,7.68
				c0.512,1.024,1.536,2.048,2.56,2.048c0.512,0,0.512-0.512,0.512,0c1.536-0.512,2.56-1.536,2.048-3.072c0-2.048,0-3.584,0-5.12
				C172.569,274.306,172.057,272.77,170.521,272.258z"/>
			<path d="M179.225,258.434c-1.536,1.024-2.56,2.048-3.584,3.072l-1.024,1.024c-1.024,1.024-1.024,2.56,0,3.584
				c0.512,0.512,1.536,1.024,2.048,1.024c0.512,0,1.536,0,1.536-0.512l1.024-1.024c1.024-1.024,2.048-2.048,3.584-3.584
				c1.024-1.024,1.024-2.56,0-3.584C181.785,257.41,180.249,257.41,179.225,258.434z"/>
			<path d="M179.225,226.178c-2.048-1.536-4.608-3.072-6.144-5.12c-6.656-7.168-6.656-17.408-1.024-27.648
				c0.512-1.536,0-3.072-1.024-3.584c-1.536-0.512-3.072,0-3.584,1.024c-7.168,12.288-6.656,24.576,1.536,33.792
				c2.048,2.56,4.608,4.608,7.168,6.144c3.072,2.048,6.144,4.096,7.68,7.168c2.56,4.608,2.56,9.216,1.024,13.312
				c-0.512,1.536,0,3.072,1.536,3.584c0.512,0,0.512,0,1.024,0c1.024,0,1.536-1.024,2.048-1.536
				c2.56-6.144,2.048-11.776-1.024-17.92C186.393,230.786,182.809,228.738,179.225,226.178z"/>
			<path d="M252.953,257.41l-3.072-1.024c-1.024-0.512-2.56,0-3.072,1.536c-0.512,1.024,0,2.56,1.536,3.072l3.584,1.024h0.512
				c1.536,0,2.56-1.024,2.048-1.536C255.001,258.946,254.489,257.922,252.953,257.41z"/>
			<path d="M243.737,254.338c-2.048-0.512-3.584-1.024-5.632-1.536c-1.024-0.512-2.56,0-3.072,1.536
				c-0.512,1.024,0,2.56,1.536,3.072c2.048,0.512,3.584,1.024,5.632,1.536h0.512c1.024,0,2.048-0.512,2.56-1.536
				S245.273,254.85,243.737,254.338z"/>
			<path d="M215.065,272.258c1.024,0,2.048-0.512,2.56-0.512c1.024-1.024,1.024-2.56,0-3.584c-1.024-1.024-2.048-1.024-3.072-0.512
				c-1.024-0.512-4.096-2.048-4.608-5.12c-0.512-5.12,0-7.68,2.56-9.728c3.072-2.048,7.168-1.024,11.776,0.512l3.072,1.024
				c1.024,0.512,2.56,0,3.072-1.536c0.512-1.024,0-2.56-1.536-3.072l-3.072-1.024c-4.096-1.536-11.264-4.096-16.384,0
				c-5.632,4.096-5.632,9.216-4.608,14.336c1.024,4.608,4.608,7.68,7.68,8.704C213.529,272.258,214.553,272.258,215.065,272.258z"/>
			<path d="M279.577,244.61l-2.56,2.048c-1.024,1.024-1.536,2.56-0.512,3.584c0.512,0.512,1.536,1.024,2.048,1.024
				c0.512,0,1.024,0,1.536-0.512l2.56-2.048c1.024-1.024,1.536-2.56,0.512-3.584C282.137,244.098,280.601,243.586,279.577,244.61z"
				/>
			<path d="M290.841,234.37c-1.536,1.536-3.584,3.072-5.12,4.608c-1.024,1.024-1.024,2.56,0,3.584
				c0.512,0.512,1.536,1.024,2.048,1.024c0.512,0,1.024,0,1.536-1.024c1.536-1.536,3.584-3.072,5.12-4.608
				c1.024-1.024,1.024-2.56,0-3.584S291.865,233.346,290.841,234.37z"/>
			<path d="M299.033,231.298c1.024,1.024,2.56,1.024,3.584,0c2.56-2.56,4.608-5.12,7.168-7.68l1.536-2.048
				c4.096-4.608,8.192-9.216,12.8-12.288c6.656-4.608,13.824-6.144,21.504-5.632c2.56,0,4.608,1.024,6.144,2.048
				c3.072,3.072,2.048,9.216-0.512,13.824c-3.072,5.632-7.168,11.264-12.288,15.36c-2.56,2.048-5.632,4.096-8.704,6.144
				c-6.593,4.564-13.181,8.63-17.286,15.672c-5.315,0.891-10.528,3.167-14.97,5.832c-1.536,1.024-1.536,2.56-1.024,3.584
				c0.512,0.512,1.024,1.024,2.048,1.024c0.512,0,1.024-0.512,2.048,0c3.615-2.41,7.549-4.176,11.794-5.079
				c-0.475,5.277-0.318,10.554,0.494,15.831c0.512,1.024,1.536,2.048,2.56,2.048c2.048,0,3.072-1.536,2.56-3.072
				c-0.988-5.929-1.013-11.386-0.094-17.282c0.194-0.402,0.266-0.805,0.094-1.15c-0.008-0.015-0.018-0.031-0.026-0.046
				c-0.019-0.199-0.054-0.385-0.098-0.563c3.662-4.99,9.06-8.591,14.46-12.191c3.072-2.048,6.144-4.096,9.216-6.656
				c5.632-4.608,10.24-10.24,13.824-16.896c3.584-6.144,5.12-14.848-0.512-19.968c-2.56-2.56-6.656-3.584-9.216-3.584
				c-3.512-0.413-7.022-0.234-10.433,0.419c-0.083-0.146-0.188-0.287-0.319-0.419c-3.072-4.096-4.608-8.704-4.608-13.824
				c0-0.512,0-1.536,0-2.56c0-3.584,0-7.168-2.048-10.752c-1.024-1.536-2.56-3.072-4.096-4.096
				c-1.024-0.512-1.536-1.024-2.048-1.536c-2.56-2.56-3.584-5.632-3.584-8.192c0-2.107,0.975-3.955,2.406-5.085
				c0.051-0.011,0.103-0.024,0.154-0.035l2.048-0.512c1.359-0.453,2.312-1.308,2.161-2.563c0.041-0.311,0.011-0.651-0.113-1.022
				c-0.512-1.536-1.536-2.56-3.072-2.048c-1.125,0.25-2.188,0.686-3.162,1.273c-8.878,1.989-18.057,4.071-23.462-2.809
				c-1.536-2.048-3.072-4.096-4.608-6.656l-1.024-1.536c-2.048-3.072-4.608-6.144-7.168-8.704c-1.024-1.024-2.56-1.024-3.584,0
				c-1.024,1.024-1.024,2.56,0,3.584c2.56,2.56,4.608,5.12,6.144,7.68l1.024,1.536c1.536,2.56,3.072,5.12,5.12,7.68
				c4.096,5.12,9.216,6.656,14.848,6.656c2.579,0,5.159-0.39,7.672-0.908c-0.244,0.782-0.42,1.597-0.504,2.444
				c0,4.608,1.536,8.704,5.12,12.288c0.512,1.024,1.536,1.536,2.048,2.048c1.024,1.024,2.56,2.048,3.072,3.072
				c1.024,2.048,1.024,5.12,1.024,8.192c0,1.024,0,2.048,0,3.072c0,5.551,1.681,11.091,4.269,15.509
				c-2.756,1.036-5.396,2.368-7.853,3.947c-5.632,3.584-9.728,8.704-13.824,13.312l-1.536,2.048c-2.048,2.56-4.608,5.12-7.168,7.68
				C298.009,228.738,298.009,230.274,299.033,231.298z"/>
			<path d="M252.441,183.17c1.024,0.512,2.56,3.584,3.584,5.632c3.072,5.632,7.68,14.848,18.432,14.848
				c3.584,0,7.68-1.024,12.8-3.072c9.216-4.608,11.776-10.24,13.312-14.848c0.512-1.024,0-2.56-1.536-3.072
				c-1.024-0.512-2.56,0-3.072,1.536c-1.024,4.096-3.072,8.192-10.752,11.776c-15.872,7.68-20.48-1.024-24.576-9.216
				c-2.048-4.096-3.584-7.168-6.656-8.192c-1.024-0.512-2.56,0-3.072,1.536C250.393,181.122,250.905,182.658,252.441,183.17z"/>
			<path d="M291.865,206.722c0.512-1.024,0-2.56-1.536-3.072c-1.024-0.512-2.56,0-3.072,1.536c-1.536,6.144,0,12.8,4.096,17.92
				c0.512,0.512,1.536,1.024,2.048,1.024c0.512,0,1.024-0.512,1.024-0.512c1.536-1.024,1.536-2.56,0.512-3.584
				C291.865,216.45,290.329,211.33,291.865,206.722z"/>
			<path d="M275.481,121.73c-2.56-1.024-4.608-2.048-7.168-3.072c-1.024-0.512-2.56,0.512-3.072,1.536
				c-0.512,1.024,0,2.56,1.536,3.072c2.048,1.024,4.096,2.048,6.144,3.072c0.512,0.512,1.024,0.512,1.536,0.512
				c0.512,0,1.536-0.512,2.048-1.536C277.017,123.778,276.505,122.242,275.481,121.73z"/>
			<path d="M321.049,127.874c9.728-1.024,17.408,0.512,20.992,4.096c3.584,3.072,3.072,7.168,3.072,9.216v0.512
				c0,8.704-8.192,20.992-13.824,29.184c-0.512,1.024-0.512,3.072,0.512,3.584c0.512,0.512,1.024,0.512,1.536,0.512
				c1.024,0,1.536-0.512,2.56-0.512c7.68-11.264,14.848-23.04,14.848-32.768c0.313-1.253,0.428-4.039-0.696-7.184
				c0.443-0.399,0.91-0.71,1.208-1.008c1.536-1.024,3.072-2.048,4.608-3.072c1.536-1.024,2.048-2.048,1.024-3.584
				s-2.56-1.536-3.584-1.024c-1.536,1.024-3.072,2.048-4.608,3.072c-0.402,0.402-0.804,0.72-1.206,1.026
				c-0.409-0.519-0.85-1.034-1.354-1.538c-4.608-4.608-13.312-6.656-25.088-5.632c-5.12,0.512-11.264-3.584-13.312-8.704
				c-1.024-1.536-2.048-2.048-3.584-1.536c-1.536,1.024-2.048,2.048-1.536,3.584C305.689,123.266,313.881,128.386,321.049,127.874z"
				/>
			<path d="M361.497,125.826c0,0,0.512,0,1.536,0c1.536-1.024,2.56-1.536,3.584-2.048c1.024-1.024,1.536-2.56,1.024-3.584
				c-1.024-1.024-2.56-1.536-3.584-1.024c-1.024,0.512-2.56,1.536-3.584,2.048c-1.536,1.024-1.536,2.56-1.024,3.584
				C359.961,125.314,360.473,125.826,361.497,125.826z"/>
		</g>
	</g>
</g>
<g>
</g>
<g>
</g>
<g>
</g>
<g>
</g>
<g>
</g>
<g>
</g>
<g>
</g>
<g>
</g>
<g>
</g>
<g>
</g>
<g>
</g>
<g>
</g>
<g>
</g>
<g>
</g>
<g>
</g>
</svg>
