<?xml version="1.0" encoding="iso-8859-1"?>
<!-- Generator: Adobe Illustrator 18.0.0, SVG Export Plug-In . SVG Version: 6.00 Build 0)  -->
<!DOCTYPE svg PUBLIC "-//W3C//DTD SVG 1.1//EN" "http://www.w3.org/Graphics/SVG/1.1/DTD/svg11.dtd">
<svg version="1.1" id="Capa_1" xmlns="http://www.w3.org/2000/svg" xmlns:xlink="http://www.w3.org/1999/xlink" x="0px" y="0px"
	 viewBox="0 0 493.272 493.272" style="enable-background:new 0 0 493.272 493.272;" xml:space="preserve">
<g>
	<path d="M445.627,179.434C445.523,121.015,397.964,73.52,339.522,73.52c-22.44,0.001-44.04,7.09-62.464,20.504
		c-16.926,12.323-30.149,29.571-37.48,48.811c-6.531-0.058-11.595-2.063-15.472-6.126c-8.932-9.36-8.243-26.399-8.235-26.563
		c0.003-0.071,0.005-0.142,0.005-0.212V4.25c0-2.347-1.903-4.25-4.25-4.25h-42.121c-2.347,0-4.25,1.903-4.25,4.25v127.943
		c-0.043,21.486,6.011,38.469,17.994,50.475c16.253,16.286,38.796,18.805,49.275,19.025c-3.41,23.057-15.082,58.037-54.038,67.228
		c-76.24,17.988-109.396,37.587-117.358,112.435c-7.551,70.979-13.685,106.587-13.746,106.938c-0.215,1.236,0.127,2.504,0.935,3.464
		c0.808,0.96,1.998,1.514,3.252,1.514H89.86c2.241,0,4.097-1.74,4.241-3.976c0.073-1.135,0.154-2.51,0.247-4.096
		c5.657-96.623,24.829-116.905,39.917-116.905c4.395,0,9.324,1.645,14.651,4.888c23.24,14.148,48.31,21.322,74.514,21.321
		c8.817,0,17.713-0.779,27.197-2.381c48.081-8.122,88.269-24.329,119.445-48.169c25.055-19.159,44.352-43.237,57.355-71.563
		C449.001,225.394,445.948,183.153,445.627,179.434z M410.457,286.451h-68.592c-2.347,0-4.25,1.903-4.25,4.25
		c0,2.347,1.903,4.25,4.25,4.25h63.193c-31.506,46.788-83.772,76.615-155.848,88.79c-9.01,1.522-17.443,2.262-25.781,2.262
		c-24.622,0-48.205-6.756-70.094-20.082c-6.678-4.065-13.095-6.127-19.071-6.127c-33.316,0-43.236,61.803-46.762,101.656H65.865
		c-2.347,0-4.25,1.903-4.25,4.25s1.903,4.25,4.25,4.25h20.95c-0.424,5.739-0.719,10.772-0.952,14.752
		c-0.001,0.023-0.003,0.046-0.004,0.069H56.57c1.921-12.105,7.027-46.28,13.01-102.517c2.34-21.995,6.815-38.843,14.287-52.179
		h43.373c2.347,0,4.25-1.903,4.25-4.25s-1.903-4.25-4.25-4.25H89.38c3.407-4.545,7.284-8.626,11.684-12.333h120.341
		c2.347,0,4.25-1.903,4.25-4.25c0-2.347-1.903-4.25-4.25-4.25H113.121c16.495-9.806,38.432-16.734,67.318-23.549
		c20.467-4.83,36.304-16.482,47.071-34.634c0.772-1.301,1.489-2.616,2.183-3.935c15.435,0.074,23.852,2.666,32.741,5.414
		c9.224,2.851,18.761,5.799,35.911,5.799c17.232,0,25.972-3.064,34.424-6.028c8.139-2.854,15.826-5.549,31.612-5.549
		c15.786,0,23.473,2.696,31.612,5.549c7.91,2.774,16.074,5.635,31.213,5.991c-2.104,6.317-4.63,12.818-7.664,19.391
		C416.785,275.163,413.752,280.913,410.457,286.451z M429.812,241.331c-15.368-0.07-22.976-2.727-31.007-5.543
		c-8.452-2.964-17.192-6.028-34.424-6.028c-17.232,0-25.972,3.064-34.424,6.028c-8.139,2.854-15.826,5.549-31.611,5.549
		c-15.866,0-24.384-2.633-33.401-5.42c-8.364-2.586-17.007-5.243-31.33-5.717c4.85-11.894,7.021-23.658,7.976-32.369
		c0.138-1.256-0.293-2.509-1.172-3.417c-0.879-0.909-2.118-1.38-3.379-1.284c-0.011,0.001-1.074,0.079-2.888,0.08
		c-8.53,0-29.98-1.612-44.885-16.546c-2.422-2.427-4.552-5.118-6.411-8.046h36.51c2.347,0,4.25-1.903,4.25-4.25
		s-1.903-4.25-4.25-4.25h-40.842c-1.501-3.754-2.643-7.815-3.435-12.167h14.277c2.347,0,4.25-1.903,4.25-4.25
		c0-2.347-1.903-4.25-4.25-4.25h-15.354c-0.172-2.346-0.26-4.761-0.255-7.25V8.5h33.621v101.339
		c-0.076,1.856-0.569,21.016,10.549,32.704c6.154,6.469,14.579,9.41,24.958,8.686c1.696-0.118,3.158-1.236,3.718-2.842
		c13.61-39.076,51.821-66.367,92.921-66.367c37.93,0,70.875,21.75,87.022,53.431H401.5c-2.347,0-4.25,1.903-4.25,4.25
		c0,2.347,1.903,4.25,4.25,4.25h28.876c4.356,11.056,6.751,23.091,6.751,35.675c0,0.131,0.006,0.265,0.018,0.395
		C437.177,180.358,439.478,207.218,429.812,241.331z"/>
	<path d="M339.522,96.078c-15.422,0-30.264,4.872-42.922,14.087c-12.178,8.867-21.566,21.448-26.436,35.426
		c-0.772,2.217,0.399,4.64,2.616,5.412c0.463,0.161,0.934,0.238,1.398,0.238c1.758,0,3.402-1.1,4.014-2.854
		c8.984-25.793,34.204-43.808,61.33-43.809c2.347,0,4.25-1.903,4.25-4.25C343.772,97.981,341.869,96.078,339.522,96.078z"/>
</g>
<g>
</g>
<g>
</g>
<g>
</g>
<g>
</g>
<g>
</g>
<g>
</g>
<g>
</g>
<g>
</g>
<g>
</g>
<g>
</g>
<g>
</g>
<g>
</g>
<g>
</g>
<g>
</g>
<g>
</g>
</svg>
