<?xml version="1.0" encoding="iso-8859-1"?>
<!-- Generator: Adobe Illustrator 18.0.0, SVG Export Plug-In . SVG Version: 6.00 Build 0)  -->
<!DOCTYPE svg PUBLIC "-//W3C//DTD SVG 1.1//EN" "http://www.w3.org/Graphics/SVG/1.1/DTD/svg11.dtd">
<svg version="1.1" id="Capa_1" xmlns="http://www.w3.org/2000/svg" xmlns:xlink="http://www.w3.org/1999/xlink" x="0px" y="0px"
	 viewBox="0 0 487.015 487.015" style="enable-background:new 0 0 487.015 487.015;" xml:space="preserve">
<g>
	<path d="M400.04,195.19c-19.858-35.607-42.931-61.026-69.871-76.828c-1.737-3.451-10.581-20.149-28.275-38.755
		c-7.194-7.563-16.52-16.174-28.11-24.659c18.287-11.166,36.825-18.339,37.029-18.417c1.087-0.418,1.957-1.264,2.403-2.341
		c0.446-1.076,0.431-2.288-0.042-3.354C303.665,9.444,289.383,0.93,288.78,0.579c-1.049-0.611-2.306-0.745-3.459-0.369
		c-22.565,7.358-42.18,17.01-58.349,28.688c-6.521-2.64-13.41-5.065-20.674-7.207c-0.854-0.252-1.766-0.23-2.606,0.065
		c-1.03,0.36-25.26,9.145-27.744,36.47c-0.178,1.953,1.003,3.773,2.859,4.407c0.143,0.049,4.704,1.626,11.704,4.575
		c-13.805,22.319-14.553,40.309-14.578,41.097c-0.013,0.417,0.053,0.815,0.152,1.199c-6.916,1.755-14.1,3.72-21.582,5.9
		c-17.685,5.154-31.067,12.458-44.819,21.743c-3.633-40.916,5.464-87.316,5.58-87.896c0.275-1.379-0.149-2.805-1.133-3.809
		c-0.984-1.003-2.4-1.455-3.785-1.207l-44.168,7.928c-1.774,0.318-3.154,1.721-3.444,3.499
		c-10.085,61.854-4.865,102.437,1.32,125.652c-20.843,37.505-18.558,83.973,6.293,127.549
		c30.842,54.074,81.526,106.047,135.58,139.027c30.26,18.463,60.553,30.557,90.039,35.945c11.604,2.12,22.994,3.18,34.138,3.179
		c20.38,0,39.932-3.542,58.415-10.607c15.988-6.11,28.387-21.022,36.853-44.322C448.207,369.246,436.606,260.76,400.04,195.19z
		 M285.985,8.942c3.247,2.388,11.144,9.058,17.518,21.384c-7.228,3.036-22.485,9.893-37.29,19.329
		C257.351,43.733,247.342,38,236.136,32.86C250.274,23.33,267,15.3,285.985,8.942z M205.307,30.265
		c35.274,10.661,61.199,28.238,78.837,43.982h-24.158c-2.347,0-4.25,1.902-4.25,4.25c0,2.347,1.903,4.25,4.25,4.25h33.107
		c0.822,0.831,1.628,1.655,2.399,2.463c9.601,10.059,16.428,19.349,20.813,26.03c-8.335-3.716-17.011-6.616-26.057-8.687
		c-10.683-2.445-21.777-3.816-33.638-4.098c-23.658-23.543-60.533-38.489-71.762-42.68C187.835,39.174,201.18,32.085,205.307,30.265
		z M238.554,98.836c-0.289-1.632-0.365-3.27-0.221-4.933c1.985,1.503,3.928,3.053,5.812,4.65
		C242.301,98.624,240.439,98.716,238.554,98.836z M198.371,70.664c9.468,4.339,21.172,10.346,32.309,17.799
		c-0.943,3.727-1.165,7.434-0.634,11.067c-13.881,1.37-28.917,3.995-45.529,7.914C184.914,103.338,187.084,88.475,198.371,70.664z
		 M105.819,53.684c-3.177,18.635-11.192,75.236,0.9,113.908c-1.073,5.093-6.987,27.941-27.227,31.407
		c-4.205-8.559-17.481-41.17-12.904-103.995h23c2.347,0,4.25-1.903,4.25-4.25c0-2.348-1.903-4.25-4.25-4.25h-22.29
		c0.79-8.339,1.888-17.169,3.351-26.508L105.819,53.684z M64.631,275.04h31.087c2.347,0,4.25-1.902,4.25-4.25
		c0-2.347-1.903-4.25-4.25-4.25H62.209c-1.597-6.395-2.685-12.767-3.267-19.077h81.602c2.347,0,4.25-1.902,4.25-4.25
		c0-2.347-1.903-4.25-4.25-4.25H58.455c-0.316-16.092,2.76-31.644,9.241-45.967c2.974,8.188,5.497,12.317,5.832,12.848
		c0.783,1.239,2.143,1.98,3.592,1.98c0.113,0,0.226-0.004,0.34-0.014c25.013-2,35.682-26.894,37.829-39.777
		c0.112-0.674,0.061-1.363-0.15-2.013c-1.947-5.989-3.357-12.519-4.347-19.326c14.427-10.039,27.909-17.83,46.089-23.129
		c1.636-0.477,3.264-0.944,4.885-1.404c4.559,1.641,40.912,15.545,52.586,44.785c6.953,17.416,4.484,37.447-7.339,59.539
		c-12.955,24.204-27.621,43.909-40.561,61.295c-14.948,20.084-27.857,37.429-33.163,55.235c-3.579,12.012-3.469,23.642,0.452,35.506
		c-22.03-22.869-41.325-48.122-56.01-73.868C72.154,294.875,67.795,284.953,64.631,275.04z M262.967,175.485
		c-24.468-27.47-45.689-53.185-54.714-64.293c77.134-13.7,136.732,2.73,184.363,88.138c34.928,62.633,46.502,170.042,24.769,229.854
		c-7.479,20.583-18.509,34.168-31.898,39.285c-59.766,22.843-119.475,3.166-162.571-20.549h50.133c2.347,0,4.25-1.903,4.25-4.25
		c0-2.348-1.903-4.25-4.25-4.25h-64.645c-9.499-5.888-18.885-12.362-28.064-19.342h36.409c2.347,0,4.25-1.902,4.25-4.25
		c0-2.347-1.903-4.25-4.25-4.25h-47.177c-5.556-4.542-11.024-9.251-16.373-14.122c-27.889-39.1-8.979-65.568,20.073-104.602
		c13.117-17.623,27.983-37.598,41.236-62.359c13.073-24.428,15.67-46.886,7.719-66.752c-9.938-24.83-33.659-38.971-47.033-45.232
		c8.034-2.085,15.895-3.935,23.584-5.509c9.065,11.268,53.892,66.501,93.643,106.849c-1.679,8.485-12.561,60.747-33.384,103.088
		l-36.948,10.176c-2.263,0.624-3.592,2.964-2.969,5.227c0.52,1.886,2.23,3.122,4.095,3.122c0.374,0,0.753-0.05,1.131-0.153
		l29.299-8.069c-10.698,19.19-23.656,35.125-38.964,41.998c-2.141,0.961-3.098,3.477-2.136,5.618c0.708,1.576,2.257,2.51,3.879,2.51
		c0.582,0,1.173-0.12,1.738-0.374c26.237-11.779,45.673-46.145,59.106-80.299l9.912,26.927c0.633,1.718,2.259,2.782,3.989,2.782
		c0.488,0,0.983-0.084,1.468-0.263c2.202-0.811,3.331-3.254,2.52-5.456l-13.323-36.192c9.522-26.785,15.322-51.706,17.8-63.434
		c13.705,13.47,26.469,24.648,36.522,30.983l5.209,25.655c0.409,2.016,2.181,3.405,4.161,3.405c0.28,0,0.565-0.027,0.85-0.086
		c2.3-0.467,3.787-2.71,3.319-5.011l-4.698-23.137l35.199-5.8c2.315-0.382,3.884-2.568,3.502-4.885
		c-0.381-2.315-2.57-3.884-4.885-3.502l-37.981,6.258c-17.566-10.986-44.642-38.483-70.104-66.64l75.694,4.264
		c0.082,0.005,0.163,0.007,0.243,0.007c2.238,0,4.112-1.749,4.239-4.011c0.132-2.344-1.661-4.351-4.004-4.482l-10.767-0.606
		l9.025-9.153c1.648-1.672,1.629-4.362-0.043-6.011c-1.672-1.648-4.362-1.629-6.01,0.043l-14.281,14.484l-61.858-3.286V175.485z"/>
	<path d="M404.088,345.418c-0.007,0-0.012,0-0.018,0c-2.347,0.01-4.242,1.92-4.233,4.268c0.211,52.302-13.749,90.179-36.432,98.848
		c-2.192,0.838-3.29,3.295-2.453,5.487c0.647,1.693,2.26,2.733,3.971,2.733c0.504,0,1.017-0.09,1.516-0.281
		c26.464-10.114,42.127-50.048,41.897-106.821C408.328,347.309,406.427,345.418,404.088,345.418z"/>
</g>
<g>
</g>
<g>
</g>
<g>
</g>
<g>
</g>
<g>
</g>
<g>
</g>
<g>
</g>
<g>
</g>
<g>
</g>
<g>
</g>
<g>
</g>
<g>
</g>
<g>
</g>
<g>
</g>
<g>
</g>
</svg>
