<?xml version="1.0" encoding="iso-8859-1"?>
<!-- Generator: Adobe Illustrator 18.0.0, SVG Export Plug-In . SVG Version: 6.00 Build 0)  -->
<!DOCTYPE svg PUBLIC "-//W3C//DTD SVG 1.1//EN" "http://www.w3.org/Graphics/SVG/1.1/DTD/svg11.dtd">
<svg version="1.1" id="Capa_1" xmlns="http://www.w3.org/2000/svg" xmlns:xlink="http://www.w3.org/1999/xlink" x="0px" y="0px"
	 viewBox="0 0 493.829 493.829" style="enable-background:new 0 0 493.829 493.829;" xml:space="preserve">
<g>
	<path d="M184.546,305.013c-2.063-1.125-4.643-0.364-5.766,1.696c-0.321,0.588-7.915,14.681-12.773,38.326
		c-4.463,21.727-7.327,55.994,4.367,95.86c0.543,1.853,2.238,3.055,4.076,3.055c0.395,0,0.799-0.056,1.198-0.173
		c2.252-0.661,3.542-3.022,2.882-5.274c-21.366-72.835,7.42-127.186,7.713-127.727C187.365,308.716,186.606,306.137,184.546,305.013
		z"/>
	<path d="M316.807,306.709c-1.123-2.059-3.702-2.816-5.761-1.696c-2.061,1.121-2.822,3.701-1.704,5.763
		c0.294,0.54,29.08,54.891,7.714,127.727c-0.66,2.252,0.63,4.614,2.882,5.274c0.399,0.117,0.803,0.173,1.198,0.173
		c1.838,0,3.533-1.202,4.076-3.055c11.694-39.866,8.829-74.133,4.366-95.86C324.722,321.39,317.127,307.298,316.807,306.709z"/>
	<path d="M252.043,298.671c0-2.347-1.902-4.25-4.25-4.25c-2.347,0-4.25,1.903-4.25,4.25v103.756c0,2.347,1.903,4.25,4.25,4.25
		c2.348,0,4.25-1.903,4.25-4.25V298.671z"/>
	<path d="M247.793,421.346c-2.347,0-4.25,1.903-4.25,4.25v15.11c0,2.347,1.903,4.25,4.25,4.25c2.348,0,4.25-1.903,4.25-4.25v-15.11
		C252.043,423.249,250.141,421.346,247.793,421.346z"/>
	<path d="M424.432,202.468c6.67-52.121-40.869-104.668-41.35-105.193C367.875,80.685,363.2,64.938,365.485,4.41
		c0.089-2.345-1.741-4.319-4.087-4.407c-2.344-0.091-4.318,1.741-4.407,4.087c-1.783,47.255,0.865,69.021,9.341,84.634h-13.957
		c-2.347,0-4.25,1.903-4.25,4.25c0,2.347,1.903,4.25,4.25,4.25h19.534c1.515,1.961,3.148,3.875,4.907,5.794
		c0.454,0.495,45.359,50.119,39.186,98.37c-2.564,20.042-13.963,36.869-33.845,50.046H111.673
		c-4.368-2.895-8.325-5.967-11.869-9.211h54.57c2.348,0,4.25-1.903,4.25-4.25c0-2.347-1.902-4.25-4.25-4.25H91.783
		c-7.735-9.577-12.425-20.381-13.955-32.336c-6.175-48.251,38.73-97.874,39.185-98.37c1.459-1.592,2.831-3.18,4.121-4.794h37.24
		c2.348,0,4.25-1.903,4.25-4.25c0-2.347-1.902-4.25-4.25-4.25h-31.432c8.915-15.687,11.718-37.361,9.896-85.634
		c-0.089-2.345-2.081-4.159-4.407-4.087c-2.346,0.088-4.176,2.062-4.087,4.407c2.284,60.528-2.391,76.275-17.598,92.864
		c-0.48,0.525-48.02,53.072-41.35,105.193c2.875,22.469,15.375,41.233,37.16,55.796c3.397,17.216,29.791,160.513-17.229,228.908
		c-1.33,1.934-0.84,4.58,1.094,5.91c0.735,0.506,1.574,0.749,2.404,0.749c1.353,0,2.682-0.644,3.506-1.843
		c14.679-21.352,23.864-50.753,27.491-87.762h11.882c2.348,0,4.25-1.903,4.25-4.25c0-2.347-1.902-4.25-4.25-4.25h-11.15
		c1.155-15.819,1.355-32.938,0.589-51.336c-1.11-26.628-4.132-50.695-6.669-67.164h66.899c2.348,0,4.25-1.903,4.25-4.25
		c0-2.347-1.902-4.25-4.25-4.25h-68c-0.092,0-0.178,0.021-0.268,0.027c-0.604-3.578-1.143-6.549-1.569-8.816h262.755
		c-2.327,12.375-7.991,45.702-9.606,84.453c-2.107,50.574,3.077,91.504,15.414,122.199h-33.726c-2.347,0-4.25,1.903-4.25,4.25
		c0,2.347,1.903,4.25,4.25,4.25h37.444c2.906,6.097,6.13,11.737,9.679,16.9c0.824,1.199,2.153,1.843,3.506,1.843
		c0.83,0,1.669-0.243,2.404-0.749c1.934-1.33,2.424-3.976,1.094-5.91c-47.02-68.395-20.627-211.691-17.229-228.908
		C409.056,243.701,421.557,224.936,424.432,202.468z"/>
	<path d="M368.541,244.969c0.791,0,1.592-0.221,2.305-0.682c19.493-12.613,31.101-28.855,34.501-48.275
		c0.404-2.312-1.142-4.515-3.454-4.919c-2.313-0.401-4.515,1.142-4.919,3.454c-2.975,16.994-13.319,31.328-30.745,42.604
		c-1.971,1.275-2.534,3.907-1.26,5.877C365.782,244.284,367.148,244.969,368.541,244.969z"/>
	<path d="M127.754,108.613c-0.336,0.367-33.637,37.143-33.963,76.331c-0.02,2.347,1.868,4.266,4.215,4.285c0.013,0,0.024,0,0.036,0
		c2.33,0,4.229-1.88,4.249-4.215c0.3-35.959,31.415-70.314,31.729-70.657c1.586-1.731,1.47-4.419-0.261-6.005
		C132.029,106.765,129.34,106.882,127.754,108.613z"/>
	<path d="M300.419,466.587H195.167c-2.347,0-4.25,1.903-4.25,4.25c0,2.347,1.903,4.25,4.25,4.25h105.252
		c2.348,0,4.25-1.903,4.25-4.25C304.669,468.49,302.767,466.587,300.419,466.587z"/>
	<path d="M262.624,272.974c0-2.347-1.902-4.25-4.25-4.25h-37c-2.347,0-4.25,1.903-4.25,4.25c0,2.347,1.903,4.25,4.25,4.25h37
		C260.722,277.224,262.624,275.322,262.624,272.974z"/>
	<path d="M147.374,30.224h25.357v30.862c0,30.33,33.279,55.004,74.184,55.004c38.975,0,71.002-22.405,73.94-50.754h23.221
		c2.347,0,4.25-1.903,4.25-4.25c0-2.347-1.903-4.25-4.25-4.25h-22.978V4.25c0-2.347-1.902-4.25-4.25-4.25
		c-2.347,0-4.25,1.903-4.25,4.25v56.837c0,25.642-29.465,46.504-65.684,46.504c-36.218,0-65.684-20.862-65.684-46.504V4.25
		c0-2.347-1.902-4.25-4.25-4.25c-2.347,0-4.25,1.903-4.25,4.25v17.474h-25.357c-2.347,0-4.25,1.903-4.25,4.25
		C143.124,28.322,145.027,30.224,147.374,30.224z"/>
</g>
<g>
</g>
<g>
</g>
<g>
</g>
<g>
</g>
<g>
</g>
<g>
</g>
<g>
</g>
<g>
</g>
<g>
</g>
<g>
</g>
<g>
</g>
<g>
</g>
<g>
</g>
<g>
</g>
<g>
</g>
</svg>
