<?xml version="1.0" encoding="iso-8859-1"?>
<!-- Generator: Adobe Illustrator 18.0.0, SVG Export Plug-In . SVG Version: 6.00 Build 0)  -->
<!DOCTYPE svg PUBLIC "-//W3C//DTD SVG 1.1//EN" "http://www.w3.org/Graphics/SVG/1.1/DTD/svg11.dtd">
<svg xmlns="http://www.w3.org/2000/svg" xmlns:xlink="http://www.w3.org/1999/xlink" version="1.1" id="Capa_1" x="0px" y="0px" viewBox="0 0 473.007 473.007" style="enable-background:new 0 0 473.007 473.007;" xml:space="preserve" width="512px" height="512px">
<g>
	<path d="M470.02,159.217c-7.82-43.007-75.677-67.121-120.578-83.077c-15.664-5.566-29.191-10.374-34.944-14.209   c-20.265-13.51-12.603-56.337-12.5-56.898c0.432-2.307-1.089-4.527-3.397-4.959c-2.309-0.434-4.527,1.089-4.959,3.396   c-0.24,1.29-3.876,21.47,0.405,40.036h-20.754c-2.348,0-4.25,1.903-4.25,4.25c0,2.347,1.902,4.25,4.25,4.25h23.378   c2.713,6.775,6.866,12.833,13.111,16.997c6.629,4.419,19.949,9.153,36.813,15.146c43.056,15.3,108.122,38.423,115.062,76.588   c6.249,34.369-0.811,105.563-9.932,170.769h-22.432c-2.348,0-4.25,1.903-4.25,4.25s1.902,4.25,4.25,4.25h21.228   c-9.724,67.694-21.17,126.761-21.399,127.936c-0.449,2.304,1.054,4.536,3.357,4.985c0.275,0.054,0.549,0.079,0.819,0.079   c1.992,0,3.77-1.408,4.166-3.437C439.346,459.932,483.375,232.668,470.02,159.217z" fill="#f0bc62"/>
	<path d="M414.274,193.536c0.081-2.346-1.755-4.313-4.101-4.394c-2.357-0.086-4.314,1.755-4.395,4.101   c-0.029,0.845-3.246,85.506-31.386,176.49c-0.162,0.54-1.004,3.364-2.253,7.773h-67.879c-6.315,0-8.218,1.903-8.218,4.25   s1.902,4.25,8.218,4.25h65.521c-1.942,7.149-4.261,16.051-6.48,25.5h-21.009c-2.348,0-4.25,1.903-4.25,4.25s1.902,4.25,4.25,4.25   h19.077c-3.945,18.004-7.054,36.642-6.238,48.053c0.159,2.238,2.025,3.948,4.234,3.948c0.102,0,0.204-0.004,0.308-0.011   c2.341-0.168,4.104-2.201,3.937-4.542c-1.832-25.648,18.717-94.587,18.913-95.245C411.003,280.131,414.245,194.391,414.274,193.536   z" fill="#f0bc62"/>
	<path d="M239.294,189.506c-2.348,0-4.25,1.903-4.25,4.25v274c0,2.347,1.902,4.25,4.25,4.25c2.347,0,4.25-1.903,4.25-4.25v-274   C243.544,191.409,241.641,189.506,239.294,189.506z" fill="#f0bc62"/>
	<path d="M221.294,371.506c-2.348,0-4.25,1.903-4.25,4.25v52c0,2.347,1.902,4.25,4.25,4.25c2.347,0,4.25-1.903,4.25-4.25v-52   C225.544,373.409,223.641,371.506,221.294,371.506z" fill="#f0bc62"/>
	<path d="M258.294,190.506c-2.348,0-4.25,1.903-4.25,4.25v52c0,2.347,1.902,4.25,4.25,4.25c2.347,0,4.25-1.903,4.25-4.25v-52   C262.544,192.409,260.641,190.506,258.294,190.506z" fill="#f0bc62"/>
	<path d="M65.864,430.754c-0.023,0.008-2.391,0.719-4.476-0.686c-2.816-1.898-4.538-7.044-4.849-14.489   c-0.099-2.345-2.077-4.172-4.423-4.069c-2.346,0.097-4.168,2.078-4.069,4.423c0.438,10.509,3.327,17.636,8.59,21.183   c2.717,1.831,5.482,2.329,7.686,2.329c2.354,0,4.066-0.567,4.399-0.686c2.211-0.789,3.363-3.222,2.573-5.432   C70.508,431.117,68.074,429.966,65.864,430.754z" fill="#f0bc62"/>
	<path d="M417.438,411.51c-2.342-0.102-4.325,1.724-4.423,4.069c-0.307,7.37-2.002,12.497-4.772,14.435   c-2.08,1.455-4.423,0.777-4.609,0.72c-2.194-0.75-4.593,0.401-5.375,2.593c-0.79,2.21,0.362,4.642,2.573,5.432   c0.333,0.119,2.046,0.686,4.4,0.686c2.203,0,4.969-0.498,7.685-2.329c5.263-3.547,8.152-10.674,8.59-21.183   C421.606,413.588,419.784,411.608,417.438,411.51z" fill="#f0bc62"/>
	<path d="M143.294,297.506H80.58c-1.248-6.347-2.381-12.525-3.41-18.5h19.124c2.347,0,4.25-1.903,4.25-4.25s-1.903-4.25-4.25-4.25   H75.751c-7.285-45.161-8.485-76.749-8.503-77.264c-0.082-2.346-2.05-4.183-4.395-4.101c-2.346,0.081-4.182,2.047-4.101,4.394   c0.029,0.855,3.271,86.596,31.738,178.638c0.208,0.693,20.758,69.624,18.925,95.28c-0.167,2.341,1.596,4.375,3.937,4.542   c0.104,0.007,0.205,0.011,0.308,0.011c2.209,0,4.075-1.709,4.234-3.948c1.942-27.194-18.395-95.434-19.272-98.361   c-6.792-21.963-12.128-43.554-16.321-63.692h60.993c2.347,0,4.25-1.903,4.25-4.25S145.641,297.506,143.294,297.506z" fill="#f0bc62"/>
	<path d="M44.294,304.506H17.585c-7.143-56.927-11.62-114.04-6.215-143.769c3.55-19.526,22.317-35.112,45.564-47.731h85.359   c2.347,0,4.25-1.903,4.25-4.25c0-2.347-1.903-4.25-4.25-4.25H74.112c17.765-8.076,36.523-14.744,52.318-20.357   c16.864-5.993,30.184-10.726,36.813-15.146c24.961-16.64,16.512-63.544,16.14-65.533c-0.432-2.308-2.654-3.83-4.959-3.396   c-2.307,0.431-3.827,2.651-3.396,4.959c0.081,0.432,7.841,43.338-12.499,56.898c-5.753,3.836-19.281,8.643-34.944,14.209   C78.683,92.096,10.826,116.21,3.007,159.217c-13.355,73.449,30.252,299.752,32.115,309.35c0.394,2.031,2.173,3.441,4.167,3.441   c0.269,0,0.541-0.025,0.814-0.078c2.304-0.447,3.81-2.678,3.362-4.982c-0.256-1.321-14.683-76.172-24.794-153.94h25.622   c2.347,0,4.25-1.903,4.25-4.25S46.641,304.506,44.294,304.506z" fill="#f0bc62"/>
	<path d="M187.294,297.506h-23c-2.348,0-4.25,1.903-4.25,4.25s1.902,4.25,4.25,4.25h23c2.347,0,4.25-1.903,4.25-4.25   S189.641,297.506,187.294,297.506z" fill="#f0bc62"/>
</g>
<g>
</g>
<g>
</g>
<g>
</g>
<g>
</g>
<g>
</g>
<g>
</g>
<g>
</g>
<g>
</g>
<g>
</g>
<g>
</g>
<g>
</g>
<g>
</g>
<g>
</g>
<g>
</g>
<g>
</g>
</svg>
