<?xml version="1.0" encoding="iso-8859-1"?>
<!-- Generator: Adobe Illustrator 19.0.0, SVG Export Plug-In . SVG Version: 6.00 Build 0)  -->
<svg version="1.1" id="Layer_1" xmlns="http://www.w3.org/2000/svg" xmlns:xlink="http://www.w3.org/1999/xlink" x="0px" y="0px"
	 viewBox="0 0 473.654 473.654" style="enable-background:new 0 0 473.654 473.654;" xml:space="preserve">
<circle style="fill:#4ABC96;" cx="236.827" cy="236.827" r="236.827"/>
<path style="fill:#505251;" d="M267.911,376.856c-7.599-22.101-11.899-27.856-26.33-27.856c-14.244,0-19.188,7.307-26.319,27.856
	c-24.315,2.356-41.375,7.879-41.375,14.315c0,8.582,30.305,15.534,67.697,15.534s67.698-6.952,67.698-15.534
	C309.274,384.739,292.218,379.215,267.911,376.856z"/>
<path style="fill:#3D4040;" d="M412.898,336.629c0,11.308-9.169,20.478-20.478,20.478c0,0-84.256,11.869-155.282,11.869
	c-54.377,0-146.782-11.869-146.782-11.869c-11.308,0-20.482-9.166-20.482-20.478V134.4c0-11.308,9.169-20.478,20.482-20.478H392.42
	c11.305,0,20.478,9.166,20.478,20.478V336.629z"/>
<rect x="83.714" y="128.709" style="fill:#5DC0C1;" width="314.61" height="212.8"/>
<g>
	<circle style="fill:#FDF2F7;" cx="177.723" cy="239.968" r="16.391"/>
	<circle style="fill:#FDF2F7;" cx="260.387" cy="212.075" r="16.391"/>
	<circle style="fill:#FDF2F7;" cx="341.984" cy="175.106" r="16.394"/>
</g>
<path style="fill:#357180;" d="M397.591,143.241c-14.233-3.646-24.707,7.505-37.979,21.604c-0.961,1.017-1.941,2.057-2.928,3.1
	c1.062,2.173,1.713,4.585,1.713,7.161c0,9.05-7.345,16.391-16.398,16.391c-3.01,0-5.793-0.868-8.212-2.281
	c-14.166,10.822-32.082,19.79-57.021,22.067c-0.019,0-0.045,0.007-0.064,0.007c0.011,0.266,0.079,0.516,0.079,0.785
	c0,9.053-7.341,16.394-16.394,16.394c-7.184,0-13.223-4.656-15.437-11.088c-9.327,2.218-18.589,4.615-25.736,6.469l-6.35,1.638
	c-7.745,1.975-14.719,3.919-21.117,6.11c1.477,2.457,2.375,5.303,2.375,8.38c0,9.05-7.337,16.391-16.391,16.391
	c-6.69,0-12.419-4.016-14.97-9.757c-11.38,8.889-21.495,21.63-32.624,41.655c-7.849,14.124-16.177,21.278-24.76,21.278
	c-0.172,0-0.34,0-0.509-0.007c-10.71-0.352-18.309-11.694-21.151-16.693v48.667h314.625V143.458L397.591,143.241z"/>
<g>
	<path style="fill:#FDF7FA;" d="M83.677,285.58v7.315c2.842,5.004,10.635,16.394,21.345,16.746c0.168,0.007,0.337,0.011,0.505,0.011
		c8.586,0,16.91-7.158,24.76-21.278c24.431-43.959,43.97-52.889,82.731-62.78l6.346-1.638c16.29-4.222,43.559-11.286,57.556-12.569
		c42.807-3.912,65.009-27.49,82.843-46.434c13.279-14.102,24.303-25.235,38.536-21.592l-0.026-3.257
		c-16.106-4.117-26.902,7.67-40.93,22.568c-17.453,18.533-39.176,41.603-80.726,45.398c-14.263,1.309-41.693,8.414-58.083,12.666
		l-6.335,1.634c-39.729,10.138-59.755,19.292-84.817,64.388c-7.348,13.219-14.839,19.831-22.243,19.562
		c-11.424-0.37-19.408-16.944-19.487-17.112L83.677,285.58z"/>
	<polygon style="fill:#FDF7FA;" points="83.714,292.842 83.714,292.842 83.695,292.812 	"/>
</g>
<g>
</g>
<g>
</g>
<g>
</g>
<g>
</g>
<g>
</g>
<g>
</g>
<g>
</g>
<g>
</g>
<g>
</g>
<g>
</g>
<g>
</g>
<g>
</g>
<g>
</g>
<g>
</g>
<g>
</g>
</svg>
